<svg id="wws-svg" xmlns="http://www.w3.org/2000/svg" viewBox="0 0 980 600" role="img" aria-label="風速與浪高散佈圖，可拖曳時間軸切換預報時次" style="width:100%;height:auto;display:block">
<rect width="980" height="600" fill="#0b1220" rx="16"/>
<rect x="58" y="58" width="880" height="460" fill="#111a2e" rx="8"/>
<rect x="58.0" y="58" width="198.9" height="460" fill="#34d399" opacity="0.07"/>
<rect x="256.9" y="58" width="174.0" height="460" fill="#fbbf24" opacity="0.07"/>
<rect x="430.9" y="58" width="507.1" height="460" fill="#fb7185" opacity="0.07"/>
<defs><marker id="arrow-38bdf8" viewBox="0 0 10 10" refX="8" refY="5" markerWidth="6" markerHeight="6" orient="auto-start-reverse"><path d="M0,0 L10,5 L0,10 z" fill="#38bdf8"/></marker><marker id="arrow-fbbf24" viewBox="0 0 10 10" refX="8" refY="5" markerWidth="6" markerHeight="6" orient="auto-start-reverse"><path d="M0,0 L10,5 L0,10 z" fill="#fbbf24"/></marker></defs>
<text id="wws-title" x="58" y="24" fill="#e2e8f0" font-size="16" font-weight="700" font-family="Noto Sans TC,system-ui,sans-serif">今日 15:00 風速 × 浪高　預報 vs 即時浮標</text>
<text x="58" y="44" fill="#8b9bb4" font-size="11" font-family="Noto Sans TC,system-ui,sans-serif">圓點＝預報 · 菱形＝即時 · 縮寫標在點旁 · 箭頭為去向（北風→朝南；北=0°、東=90°）· 青＝風 · 金＝浪 · 拖曳下方時間軸切換預報時次</text>
<line x1="58.0" y1="58" x2="58.0" y2="518" stroke="#1e3a5f" stroke-dasharray="4 4" opacity="0.7"/>
<text x="58.0" y="536" text-anchor="middle" fill="#8b9bb4" font-size="11">0</text>
<line x1="107.7" y1="58" x2="107.7" y2="518" stroke="#1e3a5f" stroke-dasharray="4 4" opacity="0.7"/>
<text x="107.7" y="536" text-anchor="middle" fill="#8b9bb4" font-size="11">2</text>
<line x1="157.4" y1="58" x2="157.4" y2="518" stroke="#1e3a5f" stroke-dasharray="4 4" opacity="0.7"/>
<text x="157.4" y="536" text-anchor="middle" fill="#8b9bb4" font-size="11">4</text>
<line x1="207.2" y1="58" x2="207.2" y2="518" stroke="#1e3a5f" stroke-dasharray="4 4" opacity="0.7"/>
<text x="207.2" y="536" text-anchor="middle" fill="#8b9bb4" font-size="11">6</text>
<line x1="256.9" y1="58" x2="256.9" y2="518" stroke="#1e3a5f" stroke-dasharray="4 4" opacity="0.7"/>
<text x="256.9" y="536" text-anchor="middle" fill="#8b9bb4" font-size="11">8</text>
<line x1="306.6" y1="58" x2="306.6" y2="518" stroke="#1e3a5f" stroke-dasharray="4 4" opacity="0.7"/>
<text x="306.6" y="536" text-anchor="middle" fill="#8b9bb4" font-size="11">10</text>
<line x1="356.3" y1="58" x2="356.3" y2="518" stroke="#1e3a5f" stroke-dasharray="4 4" opacity="0.7"/>
<text x="356.3" y="536" text-anchor="middle" fill="#8b9bb4" font-size="11">12</text>
<line x1="406.0" y1="58" x2="406.0" y2="518" stroke="#1e3a5f" stroke-dasharray="4 4" opacity="0.7"/>
<text x="406.0" y="536" text-anchor="middle" fill="#8b9bb4" font-size="11">14</text>
<line x1="455.7" y1="58" x2="455.7" y2="518" stroke="#1e3a5f" stroke-dasharray="4 4" opacity="0.7"/>
<text x="455.7" y="536" text-anchor="middle" fill="#8b9bb4" font-size="11">16</text>
<line x1="505.5" y1="58" x2="505.5" y2="518" stroke="#1e3a5f" stroke-dasharray="4 4" opacity="0.7"/>
<text x="505.5" y="536" text-anchor="middle" fill="#8b9bb4" font-size="11">18</text>
<line x1="555.2" y1="58" x2="555.2" y2="518" stroke="#1e3a5f" stroke-dasharray="4 4" opacity="0.7"/>
<text x="555.2" y="536" text-anchor="middle" fill="#8b9bb4" font-size="11">20</text>
<line x1="604.9" y1="58" x2="604.9" y2="518" stroke="#1e3a5f" stroke-dasharray="4 4" opacity="0.7"/>
<text x="604.9" y="536" text-anchor="middle" fill="#8b9bb4" font-size="11">22</text>
<line x1="654.6" y1="58" x2="654.6" y2="518" stroke="#1e3a5f" stroke-dasharray="4 4" opacity="0.7"/>
<text x="654.6" y="536" text-anchor="middle" fill="#8b9bb4" font-size="11">24</text>
<line x1="704.3" y1="58" x2="704.3" y2="518" stroke="#1e3a5f" stroke-dasharray="4 4" opacity="0.7"/>
<text x="704.3" y="536" text-anchor="middle" fill="#8b9bb4" font-size="11">26</text>
<line x1="754.0" y1="58" x2="754.0" y2="518" stroke="#1e3a5f" stroke-dasharray="4 4" opacity="0.7"/>
<text x="754.0" y="536" text-anchor="middle" fill="#8b9bb4" font-size="11">28</text>
<line x1="803.8" y1="58" x2="803.8" y2="518" stroke="#1e3a5f" stroke-dasharray="4 4" opacity="0.7"/>
<text x="803.8" y="536" text-anchor="middle" fill="#8b9bb4" font-size="11">30</text>
<line x1="853.5" y1="58" x2="853.5" y2="518" stroke="#1e3a5f" stroke-dasharray="4 4" opacity="0.7"/>
<text x="853.5" y="536" text-anchor="middle" fill="#8b9bb4" font-size="11">32</text>
<line x1="903.2" y1="58" x2="903.2" y2="518" stroke="#1e3a5f" stroke-dasharray="4 4" opacity="0.7"/>
<text x="903.2" y="536" text-anchor="middle" fill="#8b9bb4" font-size="11">34</text>
<line x1="58" y1="518.0" x2="938" y2="518.0" stroke="#1e3a5f" stroke-dasharray="4 4" opacity="0.5"/>
<text x="50" y="518.0" text-anchor="end" dominant-baseline="middle" fill="#8b9bb4" font-size="11">0.2</text>
<line x1="58" y1="491.3" x2="938" y2="491.3" stroke="#1e3a5f" stroke-dasharray="4 4" opacity="0.5"/>
<text x="50" y="491.3" text-anchor="end" dominant-baseline="middle" fill="#8b9bb4" font-size="11">0.4</text>
<line x1="58" y1="464.7" x2="938" y2="464.7" stroke="#1e3a5f" stroke-dasharray="4 4" opacity="0.5"/>
<text x="50" y="464.7" text-anchor="end" dominant-baseline="middle" fill="#8b9bb4" font-size="11">0.6</text>
<line x1="58" y1="438.0" x2="938" y2="438.0" stroke="#1e3a5f" stroke-dasharray="4 4" opacity="0.5"/>
<text x="50" y="438.0" text-anchor="end" dominant-baseline="middle" fill="#8b9bb4" font-size="11">0.8</text>
<line x1="58" y1="411.3" x2="938" y2="411.3" stroke="#1e3a5f" stroke-dasharray="4 4" opacity="0.5"/>
<text x="50" y="411.3" text-anchor="end" dominant-baseline="middle" fill="#8b9bb4" font-size="11">1.0</text>
<line x1="58" y1="384.7" x2="938" y2="384.7" stroke="#1e3a5f" stroke-dasharray="4 4" opacity="0.5"/>
<text x="50" y="384.7" text-anchor="end" dominant-baseline="middle" fill="#8b9bb4" font-size="11">1.2</text>
<line x1="58" y1="358.0" x2="938" y2="358.0" stroke="#1e3a5f" stroke-dasharray="4 4" opacity="0.5"/>
<text x="50" y="358.0" text-anchor="end" dominant-baseline="middle" fill="#8b9bb4" font-size="11">1.4</text>
<line x1="58" y1="331.3" x2="938" y2="331.3" stroke="#1e3a5f" stroke-dasharray="4 4" opacity="0.5"/>
<text x="50" y="331.3" text-anchor="end" dominant-baseline="middle" fill="#8b9bb4" font-size="11">1.6</text>
<line x1="58" y1="304.7" x2="938" y2="304.7" stroke="#1e3a5f" stroke-dasharray="4 4" opacity="0.5"/>
<text x="50" y="304.7" text-anchor="end" dominant-baseline="middle" fill="#8b9bb4" font-size="11">1.8</text>
<line x1="58" y1="278.0" x2="938" y2="278.0" stroke="#1e3a5f" stroke-dasharray="4 4" opacity="0.5"/>
<text x="50" y="278.0" text-anchor="end" dominant-baseline="middle" fill="#8b9bb4" font-size="11">2.0</text>
<line x1="58" y1="251.3" x2="938" y2="251.3" stroke="#1e3a5f" stroke-dasharray="4 4" opacity="0.5"/>
<text x="50" y="251.3" text-anchor="end" dominant-baseline="middle" fill="#8b9bb4" font-size="11">2.2</text>
<line x1="58" y1="224.7" x2="938" y2="224.7" stroke="#1e3a5f" stroke-dasharray="4 4" opacity="0.5"/>
<text x="50" y="224.7" text-anchor="end" dominant-baseline="middle" fill="#8b9bb4" font-size="11">2.4</text>
<line x1="58" y1="198.0" x2="938" y2="198.0" stroke="#1e3a5f" stroke-dasharray="4 4" opacity="0.5"/>
<text x="50" y="198.0" text-anchor="end" dominant-baseline="middle" fill="#8b9bb4" font-size="11">2.6</text>
<line x1="58" y1="171.3" x2="938" y2="171.3" stroke="#1e3a5f" stroke-dasharray="4 4" opacity="0.5"/>
<text x="50" y="171.3" text-anchor="end" dominant-baseline="middle" fill="#8b9bb4" font-size="11">2.8</text>
<line x1="58" y1="144.7" x2="938" y2="144.7" stroke="#1e3a5f" stroke-dasharray="4 4" opacity="0.5"/>
<text x="50" y="144.7" text-anchor="end" dominant-baseline="middle" fill="#8b9bb4" font-size="11">3.0</text>
<line x1="58" y1="118.0" x2="938" y2="118.0" stroke="#1e3a5f" stroke-dasharray="4 4" opacity="0.5"/>
<text x="50" y="118.0" text-anchor="end" dominant-baseline="middle" fill="#8b9bb4" font-size="11">3.2</text>
<line x1="58" y1="91.3" x2="938" y2="91.3" stroke="#1e3a5f" stroke-dasharray="4 4" opacity="0.5"/>
<text x="50" y="91.3" text-anchor="end" dominant-baseline="middle" fill="#8b9bb4" font-size="11">3.4</text>
<line x1="58" y1="64.7" x2="938" y2="64.7" stroke="#1e3a5f" stroke-dasharray="4 4" opacity="0.5"/>
<text x="50" y="64.7" text-anchor="end" dominant-baseline="middle" fill="#8b9bb4" font-size="11">3.6</text>
<text x="498" y="552" text-anchor="middle" fill="#e2e8f0" font-size="12">風速（kt）</text>
<text x="52" y="54" text-anchor="end" fill="#8b9bb4" font-size="11">浪高 m</text>
<g id="wws-forecast-layer">
<line x1="604.5" y1="313.0" x2="594.4" y2="342.5" stroke="#38bdf8" stroke-width="2.4" marker-end="url(#arrow-38bdf8)" /><line x1="605.0" y1="313.1" x2="596.4" y2="343.1" stroke="#fbbf24" stroke-width="2.4" marker-end="url(#arrow-fbbf24)" /><circle cx="607.4" cy="304.7" r="8.0" fill="#38bdf8" stroke="#fff" stroke-width="1.6" opacity="0.95"/>
<line x1="510.5" y1="326.5" x2="501.9" y2="356.5" stroke="#38bdf8" stroke-width="2.4" marker-end="url(#arrow-38bdf8)" /><line x1="510.3" y1="326.4" x2="501.2" y2="356.3" stroke="#fbbf24" stroke-width="2.4" marker-end="url(#arrow-fbbf24)" /><circle cx="512.9" cy="318.0" r="8.0" fill="#2dd4bf" stroke="#fff" stroke-width="1.6" opacity="0.95"/>
<line x1="482.7" y1="339.7" x2="472.5" y2="369.2" stroke="#38bdf8" stroke-width="2.4" marker-end="url(#arrow-38bdf8)" /><line x1="483.6" y1="339.9" x2="476.6" y2="370.3" stroke="#fbbf24" stroke-width="2.4" marker-end="url(#arrow-fbbf24)" /><circle cx="485.6" cy="331.3" r="8.0" fill="#fbbf24" stroke="#fff" stroke-width="1.6" opacity="0.95"/>
<line x1="353.3" y1="388.4" x2="325.0" y2="401.6" stroke="#38bdf8" stroke-width="2.4" marker-end="url(#arrow-38bdf8)" /><line x1="357.8" y1="392.8" x2="345.6" y2="421.5" stroke="#fbbf24" stroke-width="2.4" marker-end="url(#arrow-fbbf24)" /><circle cx="361.3" cy="384.7" r="8.0" fill="#4ade80" stroke="#fff" stroke-width="1.6" opacity="0.95"/>
<line x1="341.2" y1="415.6" x2="313.9" y2="430.7" stroke="#38bdf8" stroke-width="2.4" marker-end="url(#arrow-38bdf8)" /><line x1="345.3" y1="419.4" x2="332.6" y2="447.9" stroke="#fbbf24" stroke-width="2.4" marker-end="url(#arrow-fbbf24)" /><circle cx="348.8" cy="411.3" r="8.0" fill="#22d3ee" stroke="#fff" stroke-width="1.6" opacity="0.95"/>
<line x1="417.8" y1="388.1" x2="389.1" y2="400.3" stroke="#38bdf8" stroke-width="2.4" marker-end="url(#arrow-38bdf8)" /><line x1="422.6" y1="392.8" x2="410.9" y2="421.8" stroke="#fbbf24" stroke-width="2.4" marker-end="url(#arrow-fbbf24)" /><circle cx="425.9" cy="384.7" r="8.0" fill="#fb923c" stroke="#fff" stroke-width="1.6" opacity="0.95"/>
<line x1="287.7" y1="445.8" x2="273.5" y2="473.6" stroke="#38bdf8" stroke-width="2.4" marker-end="url(#arrow-38bdf8)" /><line x1="291.4" y1="446.8" x2="290.3" y2="478.0" stroke="#fbbf24" stroke-width="2.4" marker-end="url(#arrow-fbbf24)" /><circle cx="291.7" cy="438.0" r="8.0" fill="#a78bfa" stroke="#fff" stroke-width="1.6" opacity="0.95"/>
<line x1="279.7" y1="483.3" x2="254.8" y2="502.1" stroke="#38bdf8" stroke-width="2.4" marker-end="url(#arrow-38bdf8)" /><line x1="283.4" y1="486.2" x2="271.7" y2="515.1" stroke="#fbbf24" stroke-width="2.4" marker-end="url(#arrow-fbbf24)" /><circle cx="286.7" cy="478.0" r="8.0" fill="#f472b6" stroke="#fff" stroke-width="1.6" opacity="0.95"/>
<text x="621.4" y="294.7" text-anchor="start" dominant-baseline="central" fill="#38bdf8" font-size="11" font-weight="700" font-family="Noto Sans TC,system-ui,sans-serif" stroke="#0b1220" stroke-width="3" paint-order="stroke">後龍</text>
<text x="526.9" y="330.0" text-anchor="start" dominant-baseline="central" fill="#2dd4bf" font-size="11" font-weight="700" font-family="Noto Sans TC,system-ui,sans-serif" stroke="#0b1220" stroke-width="3" paint-order="stroke">假森</text>
<text x="499.6" y="321.3" text-anchor="start" dominant-baseline="central" fill="#fbbf24" font-size="11" font-weight="700" font-family="Noto Sans TC,system-ui,sans-serif" stroke="#0b1220" stroke-width="3" paint-order="stroke">松柏</text>
<text x="375.3" y="374.7" text-anchor="start" dominant-baseline="central" fill="#4ade80" font-size="11" font-weight="700" font-family="Noto Sans TC,system-ui,sans-serif" stroke="#0b1220" stroke-width="3" paint-order="stroke">中角</text>
<text x="362.8" y="423.3" text-anchor="start" dominant-baseline="central" fill="#22d3ee" font-size="11" font-weight="700" font-family="Noto Sans TC,system-ui,sans-serif" stroke="#0b1220" stroke-width="3" paint-order="stroke">翡灣</text>
<text x="411.9" y="374.7" text-anchor="end" dominant-baseline="central" fill="#fb923c" font-size="11" font-weight="700" font-family="Noto Sans TC,system-ui,sans-serif" stroke="#0b1220" stroke-width="3" paint-order="stroke">石門</text>
<text x="305.7" y="428.0" text-anchor="start" dominant-baseline="central" fill="#a78bfa" font-size="11" font-weight="700" font-family="Noto Sans TC,system-ui,sans-serif" stroke="#0b1220" stroke-width="3" paint-order="stroke">無尾</text>
<text x="300.7" y="490.0" text-anchor="start" dominant-baseline="central" fill="#f472b6" font-size="11" font-weight="700" font-family="Noto Sans TC,system-ui,sans-serif" stroke="#0b1220" stroke-width="3" paint-order="stroke">烏石</text>
</g>
<g id="wws-live-layer">
<line x1="226.0" y1="493.6" x2="210.4" y2="520.6" stroke="#38bdf8" stroke-width="2.4" marker-end="url(#arrow-38bdf8)" /><line x1="228.8" y1="494.6" x2="222.8" y2="525.3" stroke="#fbbf24" stroke-width="2.4" marker-end="url(#arrow-fbbf24)" /><polygon points="230.4,476.8 239.6,486.0 230.4,495.2 221.2,486.0" fill="#38bdf8" stroke="#fff" stroke-width="1.5" opacity="0.92"/>
<line x1="248.4" y1="504.3" x2="232.8" y2="531.3" stroke="#38bdf8" stroke-width="2.4" marker-end="url(#arrow-38bdf8)" /><line x1="251.1" y1="505.3" x2="245.2" y2="535.9" stroke="#fbbf24" stroke-width="2.4" marker-end="url(#arrow-fbbf24)" /><polygon points="252.8,487.5 262.0,496.7 252.8,505.9 243.6,496.7" fill="#2dd4bf" stroke="#fff" stroke-width="1.5" opacity="0.92"/>
<line x1="178.3" y1="498.4" x2="159.6" y2="523.3" stroke="#38bdf8" stroke-width="2.4" marker-end="url(#arrow-38bdf8)" /><line x1="180.3" y1="499.5" x2="168.7" y2="528.4" stroke="#fbbf24" stroke-width="2.4" marker-end="url(#arrow-fbbf24)" /><polygon points="183.6,482.1 192.8,491.3 183.6,500.5 174.4,491.3" fill="#fbbf24" stroke="#fff" stroke-width="1.5" opacity="0.92"/>
<line x1="165.3" y1="436.3" x2="134.7" y2="430.4" stroke="#38bdf8" stroke-width="2.4" marker-end="url(#arrow-38bdf8)" /><line x1="172.3" y1="446.6" x2="166.3" y2="477.3" stroke="#fbbf24" stroke-width="2.4" marker-end="url(#arrow-fbbf24)" /><polygon points="174.0,428.8 183.2,438.0 174.0,447.2 164.8,438.0" fill="#86efac" stroke="#fff" stroke-width="1.5" opacity="0.92"/>
<line x1="172.8" y1="506.8" x2="203.1" y2="514.3" stroke="#38bdf8" stroke-width="2.4" marker-end="url(#arrow-38bdf8)" /><line x1="155.7" y1="506.5" x2="125.2" y2="513.0" stroke="#fbbf24" stroke-width="2.4" marker-end="url(#arrow-fbbf24)" /><polygon points="164.3,495.5 173.5,504.7 164.3,513.9 155.1,504.7" fill="#a78bfa" stroke="#fff" stroke-width="1.5" opacity="0.92"/>
<text x="216.4" y="498.0" text-anchor="end" dominant-baseline="central" fill="#38bdf8" font-size="11" font-weight="700" font-family="Noto Sans TC,system-ui,sans-serif" stroke="#0b1220" stroke-width="3" paint-order="stroke">後龍·即</text>
<text x="266.8" y="508.7" text-anchor="start" dominant-baseline="central" fill="#2dd4bf" font-size="11" font-weight="700" font-family="Noto Sans TC,system-ui,sans-serif" stroke="#0b1220" stroke-width="3" paint-order="stroke">假森·即</text>
<text x="169.6" y="481.3" text-anchor="end" dominant-baseline="central" fill="#fbbf24" font-size="11" font-weight="700" font-family="Noto Sans TC,system-ui,sans-serif" stroke="#0b1220" stroke-width="3" paint-order="stroke">松柏·即</text>
<text x="188.0" y="428.0" text-anchor="start" dominant-baseline="central" fill="#86efac" font-size="11" font-weight="700" font-family="Noto Sans TC,system-ui,sans-serif" stroke="#0b1220" stroke-width="3" paint-order="stroke">富貴·即</text>
<text x="178.3" y="516.7" text-anchor="start" dominant-baseline="central" fill="#a78bfa" font-size="11" font-weight="700" font-family="Noto Sans TC,system-ui,sans-serif" stroke="#0b1220" stroke-width="3" paint-order="stroke">無尾·即</text>
</g>
<circle cx="90" cy="568" r="7" fill="#94a3b8" stroke="#fff"/>
<text x="106" y="572" fill="#e2e8f0" font-size="11" font-family="Noto Sans TC,system-ui,sans-serif">預報</text>
<polygon points="160,561 167,568 160,575 153,568" fill="#94a3b8" stroke="#fff"/>
<text x="176" y="572" fill="#e2e8f0" font-size="11" font-family="Noto Sans TC,system-ui,sans-serif">即時</text>
<line x1="230" y1="568" x2="255" y2="568" stroke="#38bdf8" stroke-width="2.2"/>
<text x="262" y="572" fill="#e2e8f0" font-size="11" font-family="Noto Sans TC,system-ui,sans-serif">風向去向</text>
<line x1="340" y1="568" x2="365" y2="568" stroke="#fbbf24" stroke-width="2.2"/>
<text x="372" y="572" fill="#e2e8f0" font-size="11" font-family="Noto Sans TC,system-ui,sans-serif">浪向去向</text>
<text id="wws-foot" x="490" y="582" text-anchor="middle" fill="#64748b" font-size="10" font-family="Noto Sans TC,system-ui,sans-serif">預報 10/2 15:00 台北｜即時約 2026-10-02 03:20｜北海岸三點即時共用富貴角（只顯示一點）｜後龍／假日之森共用新竹略偏移｜綠&lt;8kt／黃8–14／紅≥15</text>
</svg>