<svg id="wws-svg" xmlns="http://www.w3.org/2000/svg" viewBox="0 0 980 600" role="img" aria-label="風速與浪高散佈圖，可拖曳時間軸切換預報時次" style="width:100%;height:auto;display:block">
<rect width="980" height="600" fill="#0b1220" rx="16"/>
<rect x="58" y="58" width="880" height="460" fill="#111a2e" rx="8"/>
<rect x="58.0" y="58" width="191.3" height="460" fill="#34d399" opacity="0.07"/>
<rect x="249.3" y="58" width="167.4" height="460" fill="#fbbf24" opacity="0.07"/>
<rect x="416.7" y="58" width="521.3" height="460" fill="#fb7185" opacity="0.07"/>
<defs><marker id="arrow-38bdf8" viewBox="0 0 10 10" refX="8" refY="5" markerWidth="6" markerHeight="6" orient="auto-start-reverse"><path d="M0,0 L10,5 L0,10 z" fill="#38bdf8"/></marker><marker id="arrow-fbbf24" viewBox="0 0 10 10" refX="8" refY="5" markerWidth="6" markerHeight="6" orient="auto-start-reverse"><path d="M0,0 L10,5 L0,10 z" fill="#fbbf24"/></marker></defs>
<text id="wws-title" x="58" y="24" fill="#e2e8f0" font-size="16" font-weight="700" font-family="Noto Sans TC,system-ui,sans-serif">今日 15:00 風速 × 浪高　預報 vs 即時浮標</text>
<text x="58" y="44" fill="#8b9bb4" font-size="11" font-family="Noto Sans TC,system-ui,sans-serif">圓點＝預報 · 菱形＝即時 · 縮寫標在點旁 · 箭頭為去向（北風→朝南；北=0°、東=90°）· 青＝風 · 金＝浪 · 拖曳下方時間軸切換預報時次</text>
<line x1="58.0" y1="58" x2="58.0" y2="518" stroke="#1e3a5f" stroke-dasharray="4 4" opacity="0.7"/>
<text x="58.0" y="536" text-anchor="middle" fill="#8b9bb4" font-size="11">0</text>
<line x1="105.8" y1="58" x2="105.8" y2="518" stroke="#1e3a5f" stroke-dasharray="4 4" opacity="0.7"/>
<text x="105.8" y="536" text-anchor="middle" fill="#8b9bb4" font-size="11">2</text>
<line x1="153.7" y1="58" x2="153.7" y2="518" stroke="#1e3a5f" stroke-dasharray="4 4" opacity="0.7"/>
<text x="153.7" y="536" text-anchor="middle" fill="#8b9bb4" font-size="11">4</text>
<line x1="201.5" y1="58" x2="201.5" y2="518" stroke="#1e3a5f" stroke-dasharray="4 4" opacity="0.7"/>
<text x="201.5" y="536" text-anchor="middle" fill="#8b9bb4" font-size="11">6</text>
<line x1="249.3" y1="58" x2="249.3" y2="518" stroke="#1e3a5f" stroke-dasharray="4 4" opacity="0.7"/>
<text x="249.3" y="536" text-anchor="middle" fill="#8b9bb4" font-size="11">8</text>
<line x1="297.1" y1="58" x2="297.1" y2="518" stroke="#1e3a5f" stroke-dasharray="4 4" opacity="0.7"/>
<text x="297.1" y="536" text-anchor="middle" fill="#8b9bb4" font-size="11">10</text>
<line x1="345.0" y1="58" x2="345.0" y2="518" stroke="#1e3a5f" stroke-dasharray="4 4" opacity="0.7"/>
<text x="345.0" y="536" text-anchor="middle" fill="#8b9bb4" font-size="11">12</text>
<line x1="392.8" y1="58" x2="392.8" y2="518" stroke="#1e3a5f" stroke-dasharray="4 4" opacity="0.7"/>
<text x="392.8" y="536" text-anchor="middle" fill="#8b9bb4" font-size="11">14</text>
<line x1="440.6" y1="58" x2="440.6" y2="518" stroke="#1e3a5f" stroke-dasharray="4 4" opacity="0.7"/>
<text x="440.6" y="536" text-anchor="middle" fill="#8b9bb4" font-size="11">16</text>
<line x1="488.4" y1="58" x2="488.4" y2="518" stroke="#1e3a5f" stroke-dasharray="4 4" opacity="0.7"/>
<text x="488.4" y="536" text-anchor="middle" fill="#8b9bb4" font-size="11">18</text>
<line x1="536.3" y1="58" x2="536.3" y2="518" stroke="#1e3a5f" stroke-dasharray="4 4" opacity="0.7"/>
<text x="536.3" y="536" text-anchor="middle" fill="#8b9bb4" font-size="11">20</text>
<line x1="584.1" y1="58" x2="584.1" y2="518" stroke="#1e3a5f" stroke-dasharray="4 4" opacity="0.7"/>
<text x="584.1" y="536" text-anchor="middle" fill="#8b9bb4" font-size="11">22</text>
<line x1="631.9" y1="58" x2="631.9" y2="518" stroke="#1e3a5f" stroke-dasharray="4 4" opacity="0.7"/>
<text x="631.9" y="536" text-anchor="middle" fill="#8b9bb4" font-size="11">24</text>
<line x1="679.7" y1="58" x2="679.7" y2="518" stroke="#1e3a5f" stroke-dasharray="4 4" opacity="0.7"/>
<text x="679.7" y="536" text-anchor="middle" fill="#8b9bb4" font-size="11">26</text>
<line x1="727.6" y1="58" x2="727.6" y2="518" stroke="#1e3a5f" stroke-dasharray="4 4" opacity="0.7"/>
<text x="727.6" y="536" text-anchor="middle" fill="#8b9bb4" font-size="11">28</text>
<line x1="775.4" y1="58" x2="775.4" y2="518" stroke="#1e3a5f" stroke-dasharray="4 4" opacity="0.7"/>
<text x="775.4" y="536" text-anchor="middle" fill="#8b9bb4" font-size="11">30</text>
<line x1="823.2" y1="58" x2="823.2" y2="518" stroke="#1e3a5f" stroke-dasharray="4 4" opacity="0.7"/>
<text x="823.2" y="536" text-anchor="middle" fill="#8b9bb4" font-size="11">32</text>
<line x1="871.0" y1="58" x2="871.0" y2="518" stroke="#1e3a5f" stroke-dasharray="4 4" opacity="0.7"/>
<text x="871.0" y="536" text-anchor="middle" fill="#8b9bb4" font-size="11">34</text>
<line x1="918.9" y1="58" x2="918.9" y2="518" stroke="#1e3a5f" stroke-dasharray="4 4" opacity="0.7"/>
<text x="918.9" y="536" text-anchor="middle" fill="#8b9bb4" font-size="11">36</text>
<line x1="58" y1="518.0" x2="938" y2="518.0" stroke="#1e3a5f" stroke-dasharray="4 4" opacity="0.5"/>
<text x="50" y="518.0" text-anchor="end" dominant-baseline="middle" fill="#8b9bb4" font-size="11">0.2</text>
<line x1="58" y1="492.8" x2="938" y2="492.8" stroke="#1e3a5f" stroke-dasharray="4 4" opacity="0.5"/>
<text x="50" y="492.8" text-anchor="end" dominant-baseline="middle" fill="#8b9bb4" font-size="11">0.4</text>
<line x1="58" y1="467.6" x2="938" y2="467.6" stroke="#1e3a5f" stroke-dasharray="4 4" opacity="0.5"/>
<text x="50" y="467.6" text-anchor="end" dominant-baseline="middle" fill="#8b9bb4" font-size="11">0.6</text>
<line x1="58" y1="442.4" x2="938" y2="442.4" stroke="#1e3a5f" stroke-dasharray="4 4" opacity="0.5"/>
<text x="50" y="442.4" text-anchor="end" dominant-baseline="middle" fill="#8b9bb4" font-size="11">0.8</text>
<line x1="58" y1="417.2" x2="938" y2="417.2" stroke="#1e3a5f" stroke-dasharray="4 4" opacity="0.5"/>
<text x="50" y="417.2" text-anchor="end" dominant-baseline="middle" fill="#8b9bb4" font-size="11">1.0</text>
<line x1="58" y1="392.0" x2="938" y2="392.0" stroke="#1e3a5f" stroke-dasharray="4 4" opacity="0.5"/>
<text x="50" y="392.0" text-anchor="end" dominant-baseline="middle" fill="#8b9bb4" font-size="11">1.2</text>
<line x1="58" y1="366.8" x2="938" y2="366.8" stroke="#1e3a5f" stroke-dasharray="4 4" opacity="0.5"/>
<text x="50" y="366.8" text-anchor="end" dominant-baseline="middle" fill="#8b9bb4" font-size="11">1.4</text>
<line x1="58" y1="341.6" x2="938" y2="341.6" stroke="#1e3a5f" stroke-dasharray="4 4" opacity="0.5"/>
<text x="50" y="341.6" text-anchor="end" dominant-baseline="middle" fill="#8b9bb4" font-size="11">1.6</text>
<line x1="58" y1="316.4" x2="938" y2="316.4" stroke="#1e3a5f" stroke-dasharray="4 4" opacity="0.5"/>
<text x="50" y="316.4" text-anchor="end" dominant-baseline="middle" fill="#8b9bb4" font-size="11">1.8</text>
<line x1="58" y1="291.2" x2="938" y2="291.2" stroke="#1e3a5f" stroke-dasharray="4 4" opacity="0.5"/>
<text x="50" y="291.2" text-anchor="end" dominant-baseline="middle" fill="#8b9bb4" font-size="11">2.0</text>
<line x1="58" y1="265.9" x2="938" y2="265.9" stroke="#1e3a5f" stroke-dasharray="4 4" opacity="0.5"/>
<text x="50" y="265.9" text-anchor="end" dominant-baseline="middle" fill="#8b9bb4" font-size="11">2.2</text>
<line x1="58" y1="240.7" x2="938" y2="240.7" stroke="#1e3a5f" stroke-dasharray="4 4" opacity="0.5"/>
<text x="50" y="240.7" text-anchor="end" dominant-baseline="middle" fill="#8b9bb4" font-size="11">2.4</text>
<line x1="58" y1="215.5" x2="938" y2="215.5" stroke="#1e3a5f" stroke-dasharray="4 4" opacity="0.5"/>
<text x="50" y="215.5" text-anchor="end" dominant-baseline="middle" fill="#8b9bb4" font-size="11">2.6</text>
<line x1="58" y1="190.3" x2="938" y2="190.3" stroke="#1e3a5f" stroke-dasharray="4 4" opacity="0.5"/>
<text x="50" y="190.3" text-anchor="end" dominant-baseline="middle" fill="#8b9bb4" font-size="11">2.8</text>
<line x1="58" y1="165.1" x2="938" y2="165.1" stroke="#1e3a5f" stroke-dasharray="4 4" opacity="0.5"/>
<text x="50" y="165.1" text-anchor="end" dominant-baseline="middle" fill="#8b9bb4" font-size="11">3.0</text>
<line x1="58" y1="139.9" x2="938" y2="139.9" stroke="#1e3a5f" stroke-dasharray="4 4" opacity="0.5"/>
<text x="50" y="139.9" text-anchor="end" dominant-baseline="middle" fill="#8b9bb4" font-size="11">3.2</text>
<line x1="58" y1="114.7" x2="938" y2="114.7" stroke="#1e3a5f" stroke-dasharray="4 4" opacity="0.5"/>
<text x="50" y="114.7" text-anchor="end" dominant-baseline="middle" fill="#8b9bb4" font-size="11">3.4</text>
<line x1="58" y1="89.5" x2="938" y2="89.5" stroke="#1e3a5f" stroke-dasharray="4 4" opacity="0.5"/>
<text x="50" y="89.5" text-anchor="end" dominant-baseline="middle" fill="#8b9bb4" font-size="11">3.6</text>
<line x1="58" y1="64.3" x2="938" y2="64.3" stroke="#1e3a5f" stroke-dasharray="4 4" opacity="0.5"/>
<text x="50" y="64.3" text-anchor="end" dominant-baseline="middle" fill="#8b9bb4" font-size="11">3.8</text>
<text x="498" y="552" text-anchor="middle" fill="#e2e8f0" font-size="12">風速（kt）</text>
<text x="52" y="54" text-anchor="end" fill="#8b9bb4" font-size="11">浪高 m</text>
<g id="wws-forecast-layer">
<line x1="215.3" y1="526.6" x2="221.8" y2="557.1" stroke="#38bdf8" stroke-width="2.4" marker-end="url(#arrow-38bdf8)" /><line x1="209.6" y1="525.9" x2="195.9" y2="554.0" stroke="#fbbf24" stroke-width="2.4" marker-end="url(#arrow-fbbf24)" /><circle cx="213.4" cy="518.0" r="8.0" fill="#38bdf8" stroke="#fff" stroke-width="1.6" opacity="0.95"/>
<line x1="214.2" y1="526.2" x2="225.4" y2="555.3" stroke="#38bdf8" stroke-width="2.4" marker-end="url(#arrow-38bdf8)" /><line x1="207.0" y1="525.8" x2="192.9" y2="553.6" stroke="#fbbf24" stroke-width="2.4" marker-end="url(#arrow-fbbf24)" /><circle cx="211.0" cy="518.0" r="8.0" fill="#2dd4bf" stroke="#fff" stroke-width="1.6" opacity="0.95"/>
<line x1="223.3" y1="515.8" x2="236.9" y2="543.9" stroke="#38bdf8" stroke-width="2.4" marker-end="url(#arrow-38bdf8)" /><line x1="216.0" y1="516.0" x2="203.8" y2="544.7" stroke="#fbbf24" stroke-width="2.4" marker-end="url(#arrow-fbbf24)" /><circle cx="219.4" cy="507.9" r="8.0" fill="#fbbf24" stroke="#fff" stroke-width="1.6" opacity="0.95"/>
<line x1="188.6" y1="512.1" x2="168.6" y2="536.0" stroke="#38bdf8" stroke-width="2.4" marker-end="url(#arrow-38bdf8)" /><line x1="190.0" y1="513.1" x2="174.9" y2="540.4" stroke="#fbbf24" stroke-width="2.4" marker-end="url(#arrow-fbbf24)" /><circle cx="194.3" cy="505.4" r="8.0" fill="#4ade80" stroke="#fff" stroke-width="1.6" opacity="0.95"/>
<line x1="186.5" y1="512.3" x2="167.3" y2="536.9" stroke="#38bdf8" stroke-width="2.4" marker-end="url(#arrow-38bdf8)" /><line x1="187.6" y1="513.1" x2="172.5" y2="540.4" stroke="#fbbf24" stroke-width="2.4" marker-end="url(#arrow-fbbf24)" /><circle cx="191.9" cy="505.4" r="8.0" fill="#22d3ee" stroke="#fff" stroke-width="1.6" opacity="0.95"/>
<line x1="240.5" y1="502.4" x2="222.2" y2="527.7" stroke="#38bdf8" stroke-width="2.4" marker-end="url(#arrow-38bdf8)" /><line x1="241.6" y1="503.1" x2="226.9" y2="530.6" stroke="#fbbf24" stroke-width="2.4" marker-end="url(#arrow-fbbf24)" /><circle cx="245.7" cy="495.3" r="8.0" fill="#fb923c" stroke="#fff" stroke-width="1.6" opacity="0.95"/>
<line x1="142.7" y1="503.3" x2="112.4" y2="495.7" stroke="#38bdf8" stroke-width="2.4" marker-end="url(#arrow-38bdf8)" /><line x1="146.1" y1="512.5" x2="127.7" y2="537.8" stroke="#fbbf24" stroke-width="2.4" marker-end="url(#arrow-fbbf24)" /><circle cx="151.3" cy="505.4" r="8.0" fill="#a78bfa" stroke="#fff" stroke-width="1.6" opacity="0.95"/>
<line x1="176.0" y1="516.9" x2="145.0" y2="513.1" stroke="#38bdf8" stroke-width="2.4" marker-end="url(#arrow-38bdf8)" /><line x1="176.0" y1="519.4" x2="145.2" y2="524.3" stroke="#fbbf24" stroke-width="2.4" marker-end="url(#arrow-fbbf24)" /><circle cx="184.7" cy="518.0" r="8.0" fill="#f472b6" stroke="#fff" stroke-width="1.6" opacity="0.95"/>
<text x="227.4" y="508.0" text-anchor="start" dominant-baseline="central" fill="#38bdf8" font-size="11" font-weight="700" font-family="Noto Sans TC,system-ui,sans-serif" stroke="#0b1220" stroke-width="3" paint-order="stroke">後龍</text>
<text x="225.0" y="530.0" text-anchor="start" dominant-baseline="central" fill="#2dd4bf" font-size="11" font-weight="700" font-family="Noto Sans TC,system-ui,sans-serif" stroke="#0b1220" stroke-width="3" paint-order="stroke">假森</text>
<text x="233.4" y="497.9" text-anchor="start" dominant-baseline="central" fill="#fbbf24" font-size="11" font-weight="700" font-family="Noto Sans TC,system-ui,sans-serif" stroke="#0b1220" stroke-width="3" paint-order="stroke">松柏</text>
<text x="208.3" y="495.4" text-anchor="start" dominant-baseline="central" fill="#4ade80" font-size="11" font-weight="700" font-family="Noto Sans TC,system-ui,sans-serif" stroke="#0b1220" stroke-width="3" paint-order="stroke">中角</text>
<text x="205.9" y="517.4" text-anchor="start" dominant-baseline="central" fill="#22d3ee" font-size="11" font-weight="700" font-family="Noto Sans TC,system-ui,sans-serif" stroke="#0b1220" stroke-width="3" paint-order="stroke">翡灣</text>
<text x="231.7" y="485.3" text-anchor="end" dominant-baseline="central" fill="#fb923c" font-size="11" font-weight="700" font-family="Noto Sans TC,system-ui,sans-serif" stroke="#0b1220" stroke-width="3" paint-order="stroke">石門</text>
<text x="165.3" y="495.4" text-anchor="start" dominant-baseline="central" fill="#a78bfa" font-size="11" font-weight="700" font-family="Noto Sans TC,system-ui,sans-serif" stroke="#0b1220" stroke-width="3" paint-order="stroke">無尾</text>
<text x="198.7" y="530.0" text-anchor="start" dominant-baseline="central" fill="#f472b6" font-size="11" font-weight="700" font-family="Noto Sans TC,system-ui,sans-serif" stroke="#0b1220" stroke-width="3" paint-order="stroke">烏石</text>
</g>
<g id="wws-live-layer">
<line x1="316.2" y1="507.4" x2="297.4" y2="532.3" stroke="#38bdf8" stroke-width="2.4" marker-end="url(#arrow-38bdf8)" /><line x1="318.2" y1="508.5" x2="306.5" y2="537.4" stroke="#fbbf24" stroke-width="2.4" marker-end="url(#arrow-fbbf24)" /><polygon points="321.5,491.2 330.7,500.4 321.5,509.6 312.3,500.4" fill="#38bdf8" stroke="#fff" stroke-width="1.5" opacity="0.92"/>
<line x1="337.7" y1="517.5" x2="318.9" y2="542.4" stroke="#38bdf8" stroke-width="2.4" marker-end="url(#arrow-38bdf8)" /><line x1="339.7" y1="518.6" x2="328.0" y2="547.5" stroke="#fbbf24" stroke-width="2.4" marker-end="url(#arrow-fbbf24)" /><polygon points="343.0,501.2 352.2,510.4 343.0,519.6 333.8,510.4" fill="#2dd4bf" stroke="#fff" stroke-width="1.5" opacity="0.92"/>
<line x1="194.0" y1="526.1" x2="181.8" y2="554.8" stroke="#38bdf8" stroke-width="2.4" marker-end="url(#arrow-38bdf8)" /><line x1="197.4" y1="526.8" x2="197.4" y2="558.0" stroke="#fbbf24" stroke-width="2.4" marker-end="url(#arrow-fbbf24)" /><polygon points="197.4,508.8 206.6,518.0 197.4,527.2 188.2,518.0" fill="#fbbf24" stroke="#fff" stroke-width="1.5" opacity="0.92"/>
<line x1="221.6" y1="502.7" x2="191.9" y2="493.0" stroke="#38bdf8" stroke-width="2.4" marker-end="url(#arrow-38bdf8)" /><line x1="223.8" y1="511.6" x2="201.7" y2="533.7" stroke="#fbbf24" stroke-width="2.4" marker-end="url(#arrow-fbbf24)" /><polygon points="230.0,496.2 239.2,505.4 230.0,514.6 220.8,505.4" fill="#86efac" stroke="#fff" stroke-width="1.5" opacity="0.92"/>
<line x1="113.5" y1="513.0" x2="129.1" y2="540.0" stroke="#38bdf8" stroke-width="2.4" marker-end="url(#arrow-38bdf8)" /><line x1="100.5" y1="503.7" x2="69.9" y2="497.8" stroke="#fbbf24" stroke-width="2.4" marker-end="url(#arrow-fbbf24)" /><polygon points="109.1,496.2 118.3,505.4 109.1,514.6 99.9,505.4" fill="#a78bfa" stroke="#fff" stroke-width="1.5" opacity="0.92"/>
<text x="307.5" y="512.4" text-anchor="end" dominant-baseline="central" fill="#38bdf8" font-size="11" font-weight="700" font-family="Noto Sans TC,system-ui,sans-serif" stroke="#0b1220" stroke-width="3" paint-order="stroke">後龍·即</text>
<text x="357.0" y="522.4" text-anchor="start" dominant-baseline="central" fill="#2dd4bf" font-size="11" font-weight="700" font-family="Noto Sans TC,system-ui,sans-serif" stroke="#0b1220" stroke-width="3" paint-order="stroke">假森·即</text>
<text x="183.4" y="508.0" text-anchor="end" dominant-baseline="central" fill="#fbbf24" font-size="11" font-weight="700" font-family="Noto Sans TC,system-ui,sans-serif" stroke="#0b1220" stroke-width="3" paint-order="stroke">松柏·即</text>
<text x="244.0" y="495.4" text-anchor="start" dominant-baseline="central" fill="#86efac" font-size="11" font-weight="700" font-family="Noto Sans TC,system-ui,sans-serif" stroke="#0b1220" stroke-width="3" paint-order="stroke">富貴·即</text>
<text x="123.1" y="517.4" text-anchor="start" dominant-baseline="central" fill="#a78bfa" font-size="11" font-weight="700" font-family="Noto Sans TC,system-ui,sans-serif" stroke="#0b1220" stroke-width="3" paint-order="stroke">無尾·即</text>
</g>
<circle cx="90" cy="568" r="7" fill="#94a3b8" stroke="#fff"/>
<text x="106" y="572" fill="#e2e8f0" font-size="11" font-family="Noto Sans TC,system-ui,sans-serif">預報</text>
<polygon points="160,561 167,568 160,575 153,568" fill="#94a3b8" stroke="#fff"/>
<text x="176" y="572" fill="#e2e8f0" font-size="11" font-family="Noto Sans TC,system-ui,sans-serif">即時</text>
<line x1="230" y1="568" x2="255" y2="568" stroke="#38bdf8" stroke-width="2.2"/>
<text x="262" y="572" fill="#e2e8f0" font-size="11" font-family="Noto Sans TC,system-ui,sans-serif">風向去向</text>
<line x1="340" y1="568" x2="365" y2="568" stroke="#fbbf24" stroke-width="2.2"/>
<text x="372" y="572" fill="#e2e8f0" font-size="11" font-family="Noto Sans TC,system-ui,sans-serif">浪向去向</text>
<text id="wws-foot" x="490" y="582" text-anchor="middle" fill="#64748b" font-size="10" font-family="Noto Sans TC,system-ui,sans-serif">預報 10/1 15:00 台北｜即時約 2026-10-01 21:23｜北海岸三點即時共用富貴角（只顯示一點）｜後龍／假日之森共用新竹略偏移｜綠&lt;8kt／黃8–14／紅≥15</text>
</svg>