<svg id="wws-svg" xmlns="http://www.w3.org/2000/svg" viewBox="0 0 980 600" role="img" aria-label="風速與浪高散佈圖，可拖曳時間軸切換預報時次" style="width:100%;height:auto;display:block">
<rect width="980" height="600" fill="#0b1220" rx="16"/>
<rect x="58" y="58" width="880" height="460" fill="#111a2e" rx="8"/>
<rect x="58.0" y="58" width="237.7" height="460" fill="#34d399" opacity="0.07"/>
<rect x="295.7" y="58" width="224.8" height="460" fill="#fbbf24" opacity="0.07"/>
<rect x="520.5" y="58" width="417.5" height="460" fill="#fb7185" opacity="0.07"/>
<defs><marker id="arrow-38bdf8" viewBox="0 0 10 10" refX="8" refY="5" markerWidth="6" markerHeight="6" orient="auto-start-reverse"><path d="M0,0 L10,5 L0,10 z" fill="#38bdf8"/></marker><marker id="arrow-fbbf24" viewBox="0 0 10 10" refX="8" refY="5" markerWidth="6" markerHeight="6" orient="auto-start-reverse"><path d="M0,0 L10,5 L0,10 z" fill="#fbbf24"/></marker></defs>
<text id="wws-title" x="58" y="24" fill="#e2e8f0" font-size="16" font-weight="700" font-family="Noto Sans TC,system-ui,sans-serif">今日 15:00 風速 × 浪高　預報 vs 即時浮標</text>
<text x="58" y="44" fill="#8b9bb4" font-size="11" font-family="Noto Sans TC,system-ui,sans-serif">圓點＝預報 · 菱形＝即時 · 縮寫標在點旁 · 箭頭為去向（北風→朝南；北=0°、東=90°）· 青＝風 · 金＝浪 · 拖曳下方時間軸切換預報時次</text>
<line x1="70.8" y1="58" x2="70.8" y2="518" stroke="#1e3a5f" stroke-dasharray="4 4" opacity="0.7"/>
<text x="70.8" y="536" text-anchor="middle" fill="#8b9bb4" font-size="11">1</text>
<line x1="135.1" y1="58" x2="135.1" y2="518" stroke="#1e3a5f" stroke-dasharray="4 4" opacity="0.7"/>
<text x="135.1" y="536" text-anchor="middle" fill="#8b9bb4" font-size="11">3</text>
<line x1="199.3" y1="58" x2="199.3" y2="518" stroke="#1e3a5f" stroke-dasharray="4 4" opacity="0.7"/>
<text x="199.3" y="536" text-anchor="middle" fill="#8b9bb4" font-size="11">5</text>
<line x1="263.5" y1="58" x2="263.5" y2="518" stroke="#1e3a5f" stroke-dasharray="4 4" opacity="0.7"/>
<text x="263.5" y="536" text-anchor="middle" fill="#8b9bb4" font-size="11">7</text>
<line x1="327.8" y1="58" x2="327.8" y2="518" stroke="#1e3a5f" stroke-dasharray="4 4" opacity="0.7"/>
<text x="327.8" y="536" text-anchor="middle" fill="#8b9bb4" font-size="11">9</text>
<line x1="392.0" y1="58" x2="392.0" y2="518" stroke="#1e3a5f" stroke-dasharray="4 4" opacity="0.7"/>
<text x="392.0" y="536" text-anchor="middle" fill="#8b9bb4" font-size="11">11</text>
<line x1="456.2" y1="58" x2="456.2" y2="518" stroke="#1e3a5f" stroke-dasharray="4 4" opacity="0.7"/>
<text x="456.2" y="536" text-anchor="middle" fill="#8b9bb4" font-size="11">13</text>
<line x1="520.5" y1="58" x2="520.5" y2="518" stroke="#1e3a5f" stroke-dasharray="4 4" opacity="0.7"/>
<text x="520.5" y="536" text-anchor="middle" fill="#8b9bb4" font-size="11">15</text>
<line x1="584.7" y1="58" x2="584.7" y2="518" stroke="#1e3a5f" stroke-dasharray="4 4" opacity="0.7"/>
<text x="584.7" y="536" text-anchor="middle" fill="#8b9bb4" font-size="11">17</text>
<line x1="648.9" y1="58" x2="648.9" y2="518" stroke="#1e3a5f" stroke-dasharray="4 4" opacity="0.7"/>
<text x="648.9" y="536" text-anchor="middle" fill="#8b9bb4" font-size="11">19</text>
<line x1="713.2" y1="58" x2="713.2" y2="518" stroke="#1e3a5f" stroke-dasharray="4 4" opacity="0.7"/>
<text x="713.2" y="536" text-anchor="middle" fill="#8b9bb4" font-size="11">21</text>
<line x1="777.4" y1="58" x2="777.4" y2="518" stroke="#1e3a5f" stroke-dasharray="4 4" opacity="0.7"/>
<text x="777.4" y="536" text-anchor="middle" fill="#8b9bb4" font-size="11">23</text>
<line x1="841.6" y1="58" x2="841.6" y2="518" stroke="#1e3a5f" stroke-dasharray="4 4" opacity="0.7"/>
<text x="841.6" y="536" text-anchor="middle" fill="#8b9bb4" font-size="11">25</text>
<line x1="905.9" y1="58" x2="905.9" y2="518" stroke="#1e3a5f" stroke-dasharray="4 4" opacity="0.7"/>
<text x="905.9" y="536" text-anchor="middle" fill="#8b9bb4" font-size="11">27</text>
<line x1="58" y1="507.0" x2="938" y2="507.0" stroke="#1e3a5f" stroke-dasharray="4 4" opacity="0.5"/>
<text x="50" y="507.0" text-anchor="end" dominant-baseline="middle" fill="#8b9bb4" font-size="11">0.5</text>
<line x1="58" y1="463.2" x2="938" y2="463.2" stroke="#1e3a5f" stroke-dasharray="4 4" opacity="0.5"/>
<text x="50" y="463.2" text-anchor="end" dominant-baseline="middle" fill="#8b9bb4" font-size="11">0.7</text>
<line x1="58" y1="419.4" x2="938" y2="419.4" stroke="#1e3a5f" stroke-dasharray="4 4" opacity="0.5"/>
<text x="50" y="419.4" text-anchor="end" dominant-baseline="middle" fill="#8b9bb4" font-size="11">0.9</text>
<line x1="58" y1="375.6" x2="938" y2="375.6" stroke="#1e3a5f" stroke-dasharray="4 4" opacity="0.5"/>
<text x="50" y="375.6" text-anchor="end" dominant-baseline="middle" fill="#8b9bb4" font-size="11">1.1</text>
<line x1="58" y1="353.7" x2="938" y2="353.7" stroke="#1e3a5f" stroke-dasharray="4 4" opacity="0.5"/>
<text x="50" y="353.7" text-anchor="end" dominant-baseline="middle" fill="#8b9bb4" font-size="11">1.2</text>
<line x1="58" y1="288.0" x2="938" y2="288.0" stroke="#1e3a5f" stroke-dasharray="4 4" opacity="0.5"/>
<text x="50" y="288.0" text-anchor="end" dominant-baseline="middle" fill="#8b9bb4" font-size="11">1.5</text>
<line x1="58" y1="244.2" x2="938" y2="244.2" stroke="#1e3a5f" stroke-dasharray="4 4" opacity="0.5"/>
<text x="50" y="244.2" text-anchor="end" dominant-baseline="middle" fill="#8b9bb4" font-size="11">1.7</text>
<line x1="58" y1="200.4" x2="938" y2="200.4" stroke="#1e3a5f" stroke-dasharray="4 4" opacity="0.5"/>
<text x="50" y="200.4" text-anchor="end" dominant-baseline="middle" fill="#8b9bb4" font-size="11">1.9</text>
<line x1="58" y1="156.6" x2="938" y2="156.6" stroke="#1e3a5f" stroke-dasharray="4 4" opacity="0.5"/>
<text x="50" y="156.6" text-anchor="end" dominant-baseline="middle" fill="#8b9bb4" font-size="11">2.1</text>
<line x1="58" y1="134.7" x2="938" y2="134.7" stroke="#1e3a5f" stroke-dasharray="4 4" opacity="0.5"/>
<text x="50" y="134.7" text-anchor="end" dominant-baseline="middle" fill="#8b9bb4" font-size="11">2.2</text>
<line x1="58" y1="69.0" x2="938" y2="69.0" stroke="#1e3a5f" stroke-dasharray="4 4" opacity="0.5"/>
<text x="50" y="69.0" text-anchor="end" dominant-baseline="middle" fill="#8b9bb4" font-size="11">2.5</text>
<text x="498" y="552" text-anchor="middle" fill="#e2e8f0" font-size="12">風速（kt）</text>
<text x="52" y="54" text-anchor="end" fill="#8b9bb4" font-size="11">浪高 m</text>
<g id="wws-forecast-layer">
<line x1="800.2" y1="208.7" x2="790.1" y2="238.2" stroke="#38bdf8" stroke-width="2.4" marker-end="url(#arrow-38bdf8)" /><line x1="799.1" y1="208.2" x2="784.9" y2="236.0" stroke="#fbbf24" stroke-width="2.4" marker-end="url(#arrow-fbbf24)" /><circle cx="803.1" cy="200.4" r="8.0" fill="#38bdf8" stroke="#fff" stroke-width="1.6" opacity="0.95"/>
<line x1="668.3" y1="252.4" x2="657.1" y2="281.5" stroke="#38bdf8" stroke-width="2.4" marker-end="url(#arrow-38bdf8)" /><line x1="667.0" y1="251.8" x2="651.4" y2="278.8" stroke="#fbbf24" stroke-width="2.4" marker-end="url(#arrow-fbbf24)" /><circle cx="671.4" cy="244.2" r="8.0" fill="#2dd4bf" stroke="#fff" stroke-width="1.6" opacity="0.95"/>
<line x1="640.2" y1="208.9" x2="632.2" y2="239.0" stroke="#38bdf8" stroke-width="2.4" marker-end="url(#arrow-38bdf8)" /><line x1="639.5" y1="208.7" x2="628.8" y2="238.0" stroke="#fbbf24" stroke-width="2.4" marker-end="url(#arrow-fbbf24)" /><circle cx="642.5" cy="200.4" r="8.0" fill="#fbbf24" stroke="#fff" stroke-width="1.6" opacity="0.95"/>
<line x1="435.5" y1="335.7" x2="407.4" y2="349.3" stroke="#38bdf8" stroke-width="2.4" marker-end="url(#arrow-38bdf8)" /><line x1="438.2" y1="338.9" x2="419.9" y2="364.2" stroke="#fbbf24" stroke-width="2.4" marker-end="url(#arrow-fbbf24)" /><circle cx="443.4" cy="331.8" r="8.0" fill="#4ade80" stroke="#fff" stroke-width="1.6" opacity="0.95"/>
<line x1="416.5" y1="358.1" x2="389.5" y2="373.7" stroke="#38bdf8" stroke-width="2.4" marker-end="url(#arrow-38bdf8)" /><line x1="418.8" y1="360.7" x2="400.1" y2="385.7" stroke="#fbbf24" stroke-width="2.4" marker-end="url(#arrow-fbbf24)" /><circle cx="424.1" cy="353.7" r="8.0" fill="#22d3ee" stroke="#fff" stroke-width="1.6" opacity="0.95"/>
<line x1="512.4" y1="313.5" x2="483.9" y2="326.2" stroke="#38bdf8" stroke-width="2.4" marker-end="url(#arrow-38bdf8)" /><line x1="515.3" y1="317.0" x2="497.0" y2="342.3" stroke="#fbbf24" stroke-width="2.4" marker-end="url(#arrow-fbbf24)" /><circle cx="520.5" cy="309.9" r="8.0" fill="#fb923c" stroke="#fff" stroke-width="1.6" opacity="0.95"/>
<line x1="341.9" y1="344.2" x2="329.2" y2="372.7" stroke="#38bdf8" stroke-width="2.4" marker-end="url(#arrow-38bdf8)" /><line x1="340.9" y1="343.7" x2="324.8" y2="370.5" stroke="#fbbf24" stroke-width="2.4" marker-end="url(#arrow-fbbf24)" /><circle cx="345.4" cy="336.2" r="8.0" fill="#a78bfa" stroke="#fff" stroke-width="1.6" opacity="0.95"/>
<line x1="288.5" y1="424.5" x2="262.9" y2="442.4" stroke="#38bdf8" stroke-width="2.4" marker-end="url(#arrow-38bdf8)" /><line x1="287.0" y1="421.0" x2="256.3" y2="426.4" stroke="#fbbf24" stroke-width="2.4" marker-end="url(#arrow-fbbf24)" /><circle cx="295.7" cy="419.4" r="8.0" fill="#f472b6" stroke="#fff" stroke-width="1.6" opacity="0.95"/>
<text x="817.1" y="190.4" text-anchor="start" dominant-baseline="central" fill="#38bdf8" font-size="11" font-weight="700" font-family="Noto Sans TC,system-ui,sans-serif" stroke="#0b1220" stroke-width="3" paint-order="stroke">後龍</text>
<text x="685.4" y="256.2" text-anchor="start" dominant-baseline="central" fill="#2dd4bf" font-size="11" font-weight="700" font-family="Noto Sans TC,system-ui,sans-serif" stroke="#0b1220" stroke-width="3" paint-order="stroke">假森</text>
<text x="656.5" y="190.4" text-anchor="start" dominant-baseline="central" fill="#fbbf24" font-size="11" font-weight="700" font-family="Noto Sans TC,system-ui,sans-serif" stroke="#0b1220" stroke-width="3" paint-order="stroke">松柏</text>
<text x="457.4" y="321.8" text-anchor="start" dominant-baseline="central" fill="#4ade80" font-size="11" font-weight="700" font-family="Noto Sans TC,system-ui,sans-serif" stroke="#0b1220" stroke-width="3" paint-order="stroke">中角</text>
<text x="438.1" y="365.7" text-anchor="start" dominant-baseline="central" fill="#22d3ee" font-size="11" font-weight="700" font-family="Noto Sans TC,system-ui,sans-serif" stroke="#0b1220" stroke-width="3" paint-order="stroke">翡灣</text>
<text x="506.5" y="299.9" text-anchor="end" dominant-baseline="central" fill="#fb923c" font-size="11" font-weight="700" font-family="Noto Sans TC,system-ui,sans-serif" stroke="#0b1220" stroke-width="3" paint-order="stroke">石門</text>
<text x="359.4" y="326.2" text-anchor="start" dominant-baseline="central" fill="#a78bfa" font-size="11" font-weight="700" font-family="Noto Sans TC,system-ui,sans-serif" stroke="#0b1220" stroke-width="3" paint-order="stroke">無尾</text>
<text x="309.7" y="431.4" text-anchor="start" dominant-baseline="central" fill="#f472b6" font-size="11" font-weight="700" font-family="Noto Sans TC,system-ui,sans-serif" stroke="#0b1220" stroke-width="3" paint-order="stroke">烏石</text>
</g>
<g id="wws-live-layer">
<line x1="536.0" y1="285.2" x2="513.2" y2="306.5" stroke="#38bdf8" stroke-width="2.4" marker-end="url(#arrow-38bdf8)" /><line x1="540.8" y1="287.9" x2="534.8" y2="318.5" stroke="#fbbf24" stroke-width="2.4" marker-end="url(#arrow-fbbf24)" /><polygon points="542.4,270.0 551.6,279.2 542.4,288.4 533.2,279.2" fill="#38bdf8" stroke="#fff" stroke-width="1.5" opacity="0.92"/>
<line x1="564.9" y1="302.8" x2="542.1" y2="324.0" stroke="#38bdf8" stroke-width="2.4" marker-end="url(#arrow-38bdf8)" /><line x1="569.7" y1="305.4" x2="563.7" y2="336.0" stroke="#fbbf24" stroke-width="2.4" marker-end="url(#arrow-fbbf24)" /><polygon points="571.4,287.6 580.6,296.8 571.4,306.0 562.2,296.8" fill="#2dd4bf" stroke="#fff" stroke-width="1.5" opacity="0.92"/>
<line x1="589.8" y1="295.5" x2="573.8" y2="322.3" stroke="#38bdf8" stroke-width="2.4" marker-end="url(#arrow-38bdf8)" /><line x1="592.7" y1="296.6" x2="586.7" y2="327.3" stroke="#fbbf24" stroke-width="2.4" marker-end="url(#arrow-fbbf24)" /><polygon points="594.4,278.8 603.6,288.0 594.4,297.2 585.2,288.0" fill="#fbbf24" stroke="#fff" stroke-width="1.5" opacity="0.92"/>
<line x1="648.2" y1="290.1" x2="618.0" y2="297.7" stroke="#38bdf8" stroke-width="2.4" marker-end="url(#arrow-38bdf8)" /><line x1="650.6" y1="294.2" x2="628.5" y2="316.3" stroke="#fbbf24" stroke-width="2.4" marker-end="url(#arrow-fbbf24)" /><polygon points="656.8,278.8 666.0,288.0 656.8,297.2 647.6,288.0" fill="#86efac" stroke="#fff" stroke-width="1.5" opacity="0.92"/>
<line x1="315.2" y1="357.3" x2="343.7" y2="370.0" stroke="#38bdf8" stroke-width="2.4" marker-end="url(#arrow-38bdf8)" /><line x1="299.1" y1="357.2" x2="270.4" y2="369.3" stroke="#fbbf24" stroke-width="2.4" marker-end="url(#arrow-fbbf24)" /><polygon points="307.2,344.5 316.4,353.7 307.2,362.9 298.0,353.7" fill="#a78bfa" stroke="#fff" stroke-width="1.5" opacity="0.92"/>
<line x1="159.7" y1="395.8" x2="190.4" y2="389.9" stroke="#38bdf8" stroke-width="2.4" marker-end="url(#arrow-38bdf8)" /><line x1="146.3" y1="404.9" x2="129.3" y2="431.1" stroke="#fbbf24" stroke-width="2.4" marker-end="url(#arrow-fbbf24)" /><polygon points="151.1,388.3 160.3,397.5 151.1,406.7 141.9,397.5" fill="#f472b6" stroke="#fff" stroke-width="1.5" opacity="0.92"/>
<text x="528.4" y="291.2" text-anchor="end" dominant-baseline="central" fill="#38bdf8" font-size="11" font-weight="700" font-family="Noto Sans TC,system-ui,sans-serif" stroke="#0b1220" stroke-width="3" paint-order="stroke">後龍·即</text>
<text x="585.4" y="308.8" text-anchor="start" dominant-baseline="central" fill="#2dd4bf" font-size="11" font-weight="700" font-family="Noto Sans TC,system-ui,sans-serif" stroke="#0b1220" stroke-width="3" paint-order="stroke">假森·即</text>
<text x="580.4" y="278.0" text-anchor="end" dominant-baseline="central" fill="#fbbf24" font-size="11" font-weight="700" font-family="Noto Sans TC,system-ui,sans-serif" stroke="#0b1220" stroke-width="3" paint-order="stroke">松柏·即</text>
<text x="670.8" y="278.0" text-anchor="start" dominant-baseline="central" fill="#86efac" font-size="11" font-weight="700" font-family="Noto Sans TC,system-ui,sans-serif" stroke="#0b1220" stroke-width="3" paint-order="stroke">富貴·即</text>
<text x="321.2" y="365.7" text-anchor="start" dominant-baseline="central" fill="#a78bfa" font-size="11" font-weight="700" font-family="Noto Sans TC,system-ui,sans-serif" stroke="#0b1220" stroke-width="3" paint-order="stroke">無尾·即</text>
<text x="137.1" y="409.5" text-anchor="end" dominant-baseline="central" fill="#f472b6" font-size="11" font-weight="700" font-family="Noto Sans TC,system-ui,sans-serif" stroke="#0b1220" stroke-width="3" paint-order="stroke">烏石·即</text>
</g>
<circle cx="90" cy="568" r="7" fill="#94a3b8" stroke="#fff"/>
<text x="106" y="572" fill="#e2e8f0" font-size="11" font-family="Noto Sans TC,system-ui,sans-serif">預報</text>
<polygon points="160,561 167,568 160,575 153,568" fill="#94a3b8" stroke="#fff"/>
<text x="176" y="572" fill="#e2e8f0" font-size="11" font-family="Noto Sans TC,system-ui,sans-serif">即時</text>
<line x1="230" y1="568" x2="255" y2="568" stroke="#38bdf8" stroke-width="2.2"/>
<text x="262" y="572" fill="#e2e8f0" font-size="11" font-family="Noto Sans TC,system-ui,sans-serif">風向去向</text>
<line x1="340" y1="568" x2="365" y2="568" stroke="#fbbf24" stroke-width="2.2"/>
<text x="372" y="572" fill="#e2e8f0" font-size="11" font-family="Noto Sans TC,system-ui,sans-serif">浪向去向</text>
<text id="wws-foot" x="490" y="582" text-anchor="middle" fill="#64748b" font-size="10" font-family="Noto Sans TC,system-ui,sans-serif">預報 10/8 15:00 台北｜即時約 2026-10-08 15:20｜北海岸三點即時共用富貴角（只顯示一點）｜後龍／假日之森共用新竹略偏移｜綠&lt;8kt／黃8–14／紅≥15</text>
</svg>