<svg id="wws-svg" xmlns="http://www.w3.org/2000/svg" viewBox="0 0 980 600" role="img" aria-label="風速與浪高散佈圖，可拖曳時間軸切換預報時次" style="width:100%;height:auto;display:block">
<rect width="980" height="600" fill="#0b1220" rx="16"/>
<rect x="58" y="58" width="880" height="460" fill="#111a2e" rx="8"/>
<rect x="58.0" y="58" width="257.9" height="460" fill="#34d399" opacity="0.07"/>
<rect x="315.9" y="58" width="225.6" height="460" fill="#fbbf24" opacity="0.07"/>
<rect x="541.5" y="58" width="396.5" height="460" fill="#fb7185" opacity="0.07"/>
<defs><marker id="arrow-38bdf8" viewBox="0 0 10 10" refX="8" refY="5" markerWidth="6" markerHeight="6" orient="auto-start-reverse"><path d="M0,0 L10,5 L0,10 z" fill="#38bdf8"/></marker><marker id="arrow-fbbf24" viewBox="0 0 10 10" refX="8" refY="5" markerWidth="6" markerHeight="6" orient="auto-start-reverse"><path d="M0,0 L10,5 L0,10 z" fill="#fbbf24"/></marker></defs>
<text id="wws-title" x="58" y="24" fill="#e2e8f0" font-size="16" font-weight="700" font-family="Noto Sans TC,system-ui,sans-serif">今日 15:00 風速 × 浪高　預報 vs 即時浮標</text>
<text x="58" y="44" fill="#8b9bb4" font-size="11" font-family="Noto Sans TC,system-ui,sans-serif">圓點＝預報 · 菱形＝即時 · 縮寫標在點旁 · 箭頭為去向（北風→朝南；北=0°、東=90°）· 青＝風 · 金＝浪 · 拖曳下方時間軸切換預報時次</text>
<line x1="58.0" y1="58" x2="58.0" y2="518" stroke="#1e3a5f" stroke-dasharray="4 4" opacity="0.7"/>
<text x="58.0" y="536" text-anchor="middle" fill="#8b9bb4" font-size="11">0</text>
<line x1="122.5" y1="58" x2="122.5" y2="518" stroke="#1e3a5f" stroke-dasharray="4 4" opacity="0.7"/>
<text x="122.5" y="536" text-anchor="middle" fill="#8b9bb4" font-size="11">2</text>
<line x1="186.9" y1="58" x2="186.9" y2="518" stroke="#1e3a5f" stroke-dasharray="4 4" opacity="0.7"/>
<text x="186.9" y="536" text-anchor="middle" fill="#8b9bb4" font-size="11">4</text>
<line x1="251.4" y1="58" x2="251.4" y2="518" stroke="#1e3a5f" stroke-dasharray="4 4" opacity="0.7"/>
<text x="251.4" y="536" text-anchor="middle" fill="#8b9bb4" font-size="11">6</text>
<line x1="315.9" y1="58" x2="315.9" y2="518" stroke="#1e3a5f" stroke-dasharray="4 4" opacity="0.7"/>
<text x="315.9" y="536" text-anchor="middle" fill="#8b9bb4" font-size="11">8</text>
<line x1="380.3" y1="58" x2="380.3" y2="518" stroke="#1e3a5f" stroke-dasharray="4 4" opacity="0.7"/>
<text x="380.3" y="536" text-anchor="middle" fill="#8b9bb4" font-size="11">10</text>
<line x1="444.8" y1="58" x2="444.8" y2="518" stroke="#1e3a5f" stroke-dasharray="4 4" opacity="0.7"/>
<text x="444.8" y="536" text-anchor="middle" fill="#8b9bb4" font-size="11">12</text>
<line x1="509.3" y1="58" x2="509.3" y2="518" stroke="#1e3a5f" stroke-dasharray="4 4" opacity="0.7"/>
<text x="509.3" y="536" text-anchor="middle" fill="#8b9bb4" font-size="11">14</text>
<line x1="573.8" y1="58" x2="573.8" y2="518" stroke="#1e3a5f" stroke-dasharray="4 4" opacity="0.7"/>
<text x="573.8" y="536" text-anchor="middle" fill="#8b9bb4" font-size="11">16</text>
<line x1="638.2" y1="58" x2="638.2" y2="518" stroke="#1e3a5f" stroke-dasharray="4 4" opacity="0.7"/>
<text x="638.2" y="536" text-anchor="middle" fill="#8b9bb4" font-size="11">18</text>
<line x1="702.7" y1="58" x2="702.7" y2="518" stroke="#1e3a5f" stroke-dasharray="4 4" opacity="0.7"/>
<text x="702.7" y="536" text-anchor="middle" fill="#8b9bb4" font-size="11">20</text>
<line x1="767.2" y1="58" x2="767.2" y2="518" stroke="#1e3a5f" stroke-dasharray="4 4" opacity="0.7"/>
<text x="767.2" y="536" text-anchor="middle" fill="#8b9bb4" font-size="11">22</text>
<line x1="831.6" y1="58" x2="831.6" y2="518" stroke="#1e3a5f" stroke-dasharray="4 4" opacity="0.7"/>
<text x="831.6" y="536" text-anchor="middle" fill="#8b9bb4" font-size="11">24</text>
<line x1="896.1" y1="58" x2="896.1" y2="518" stroke="#1e3a5f" stroke-dasharray="4 4" opacity="0.7"/>
<text x="896.1" y="536" text-anchor="middle" fill="#8b9bb4" font-size="11">26</text>
<line x1="58" y1="467.6" x2="938" y2="467.6" stroke="#1e3a5f" stroke-dasharray="4 4" opacity="0.5"/>
<text x="50" y="467.6" text-anchor="end" dominant-baseline="middle" fill="#8b9bb4" font-size="11">0.5</text>
<line x1="58" y1="427.2" x2="938" y2="427.2" stroke="#1e3a5f" stroke-dasharray="4 4" opacity="0.5"/>
<text x="50" y="427.2" text-anchor="end" dominant-baseline="middle" fill="#8b9bb4" font-size="11">0.7</text>
<line x1="58" y1="386.9" x2="938" y2="386.9" stroke="#1e3a5f" stroke-dasharray="4 4" opacity="0.5"/>
<text x="50" y="386.9" text-anchor="end" dominant-baseline="middle" fill="#8b9bb4" font-size="11">0.9</text>
<line x1="58" y1="346.5" x2="938" y2="346.5" stroke="#1e3a5f" stroke-dasharray="4 4" opacity="0.5"/>
<text x="50" y="346.5" text-anchor="end" dominant-baseline="middle" fill="#8b9bb4" font-size="11">1.1</text>
<line x1="58" y1="326.3" x2="938" y2="326.3" stroke="#1e3a5f" stroke-dasharray="4 4" opacity="0.5"/>
<text x="50" y="326.3" text-anchor="end" dominant-baseline="middle" fill="#8b9bb4" font-size="11">1.2</text>
<line x1="58" y1="265.8" x2="938" y2="265.8" stroke="#1e3a5f" stroke-dasharray="4 4" opacity="0.5"/>
<text x="50" y="265.8" text-anchor="end" dominant-baseline="middle" fill="#8b9bb4" font-size="11">1.5</text>
<line x1="58" y1="225.5" x2="938" y2="225.5" stroke="#1e3a5f" stroke-dasharray="4 4" opacity="0.5"/>
<text x="50" y="225.5" text-anchor="end" dominant-baseline="middle" fill="#8b9bb4" font-size="11">1.7</text>
<line x1="58" y1="185.1" x2="938" y2="185.1" stroke="#1e3a5f" stroke-dasharray="4 4" opacity="0.5"/>
<text x="50" y="185.1" text-anchor="end" dominant-baseline="middle" fill="#8b9bb4" font-size="11">1.9</text>
<line x1="58" y1="164.9" x2="938" y2="164.9" stroke="#1e3a5f" stroke-dasharray="4 4" opacity="0.5"/>
<text x="50" y="164.9" text-anchor="end" dominant-baseline="middle" fill="#8b9bb4" font-size="11">2.0</text>
<line x1="58" y1="124.6" x2="938" y2="124.6" stroke="#1e3a5f" stroke-dasharray="4 4" opacity="0.5"/>
<text x="50" y="124.6" text-anchor="end" dominant-baseline="middle" fill="#8b9bb4" font-size="11">2.2</text>
<line x1="58" y1="64.1" x2="938" y2="64.1" stroke="#1e3a5f" stroke-dasharray="4 4" opacity="0.5"/>
<text x="50" y="64.1" text-anchor="end" dominant-baseline="middle" fill="#8b9bb4" font-size="11">2.5</text>
<text x="498" y="552" text-anchor="middle" fill="#e2e8f0" font-size="12">風速（kt）</text>
<text x="52" y="54" text-anchor="end" fill="#8b9bb4" font-size="11">浪高 m</text>
<g id="wws-forecast-layer">
<line x1="800.2" y1="213.7" x2="791.6" y2="243.7" stroke="#38bdf8" stroke-width="2.4" marker-end="url(#arrow-38bdf8)" /><line x1="798.6" y1="213.1" x2="784.5" y2="240.9" stroke="#fbbf24" stroke-width="2.4" marker-end="url(#arrow-fbbf24)" /><circle cx="802.6" cy="205.3" r="8.0" fill="#38bdf8" stroke="#fff" stroke-width="1.6" opacity="0.95"/>
<line x1="678.0" y1="254.2" x2="670.4" y2="284.4" stroke="#38bdf8" stroke-width="2.4" marker-end="url(#arrow-38bdf8)" /><line x1="675.7" y1="253.3" x2="660.1" y2="280.3" stroke="#fbbf24" stroke-width="2.4" marker-end="url(#arrow-fbbf24)" /><circle cx="680.1" cy="245.6" r="8.0" fill="#2dd4bf" stroke="#fff" stroke-width="1.6" opacity="0.95"/>
<line x1="649.0" y1="213.8" x2="641.4" y2="244.1" stroke="#38bdf8" stroke-width="2.4" marker-end="url(#arrow-38bdf8)" /><line x1="648.1" y1="213.5" x2="637.4" y2="242.9" stroke="#fbbf24" stroke-width="2.4" marker-end="url(#arrow-fbbf24)" /><circle cx="651.1" cy="205.3" r="8.0" fill="#fbbf24" stroke="#fff" stroke-width="1.6" opacity="0.95"/>
<line x1="450.3" y1="371.5" x2="424.2" y2="388.5" stroke="#38bdf8" stroke-width="2.4" marker-end="url(#arrow-38bdf8)" /><line x1="450.3" y1="371.5" x2="424.2" y2="388.5" stroke="#fbbf24" stroke-width="2.4" marker-end="url(#arrow-fbbf24)" /><circle cx="457.7" cy="366.7" r="8.0" fill="#4ade80" stroke="#fff" stroke-width="1.6" opacity="0.95"/>
<line x1="434.3" y1="371.6" x2="408.4" y2="389.1" stroke="#38bdf8" stroke-width="2.4" marker-end="url(#arrow-38bdf8)" /><line x1="434.1" y1="371.3" x2="407.7" y2="387.9" stroke="#fbbf24" stroke-width="2.4" marker-end="url(#arrow-fbbf24)" /><circle cx="441.6" cy="366.7" r="8.0" fill="#22d3ee" stroke="#fff" stroke-width="1.6" opacity="0.95"/>
<line x1="485.6" y1="371.2" x2="458.9" y2="387.3" stroke="#38bdf8" stroke-width="2.4" marker-end="url(#arrow-38bdf8)" /><line x1="485.9" y1="371.6" x2="460.0" y2="389.1" stroke="#fbbf24" stroke-width="2.4" marker-end="url(#arrow-fbbf24)" /><circle cx="493.2" cy="366.7" r="8.0" fill="#fb923c" stroke="#fff" stroke-width="1.6" opacity="0.95"/>
<line x1="383.2" y1="354.5" x2="370.5" y2="383.1" stroke="#38bdf8" stroke-width="2.4" marker-end="url(#arrow-38bdf8)" /><line x1="380.0" y1="352.0" x2="355.7" y2="371.7" stroke="#fbbf24" stroke-width="2.4" marker-end="url(#arrow-fbbf24)" /><circle cx="386.8" cy="346.5" r="8.0" fill="#a78bfa" stroke="#fff" stroke-width="1.6" opacity="0.95"/>
<line x1="357.7" y1="412.9" x2="334.5" y2="433.8" stroke="#38bdf8" stroke-width="2.4" marker-end="url(#arrow-38bdf8)" /><line x1="356.1" y1="410.5" x2="327.4" y2="422.7" stroke="#fbbf24" stroke-width="2.4" marker-end="url(#arrow-fbbf24)" /><circle cx="364.2" cy="407.0" r="8.0" fill="#f472b6" stroke="#fff" stroke-width="1.6" opacity="0.95"/>
<text x="816.6" y="195.3" text-anchor="start" dominant-baseline="central" fill="#38bdf8" font-size="11" font-weight="700" font-family="Noto Sans TC,system-ui,sans-serif" stroke="#0b1220" stroke-width="3" paint-order="stroke">後龍</text>
<text x="694.1" y="257.6" text-anchor="start" dominant-baseline="central" fill="#2dd4bf" font-size="11" font-weight="700" font-family="Noto Sans TC,system-ui,sans-serif" stroke="#0b1220" stroke-width="3" paint-order="stroke">假森</text>
<text x="665.1" y="195.3" text-anchor="start" dominant-baseline="central" fill="#fbbf24" font-size="11" font-weight="700" font-family="Noto Sans TC,system-ui,sans-serif" stroke="#0b1220" stroke-width="3" paint-order="stroke">松柏</text>
<text x="471.7" y="356.7" text-anchor="start" dominant-baseline="central" fill="#4ade80" font-size="11" font-weight="700" font-family="Noto Sans TC,system-ui,sans-serif" stroke="#0b1220" stroke-width="3" paint-order="stroke">中角</text>
<text x="455.6" y="378.7" text-anchor="start" dominant-baseline="central" fill="#22d3ee" font-size="11" font-weight="700" font-family="Noto Sans TC,system-ui,sans-serif" stroke="#0b1220" stroke-width="3" paint-order="stroke">翡灣</text>
<text x="479.2" y="356.7" text-anchor="end" dominant-baseline="central" fill="#fb923c" font-size="11" font-weight="700" font-family="Noto Sans TC,system-ui,sans-serif" stroke="#0b1220" stroke-width="3" paint-order="stroke">石門</text>
<text x="400.8" y="336.5" text-anchor="start" dominant-baseline="central" fill="#a78bfa" font-size="11" font-weight="700" font-family="Noto Sans TC,system-ui,sans-serif" stroke="#0b1220" stroke-width="3" paint-order="stroke">無尾</text>
<text x="378.2" y="419.0" text-anchor="start" dominant-baseline="central" fill="#f472b6" font-size="11" font-weight="700" font-family="Noto Sans TC,system-ui,sans-serif" stroke="#0b1220" stroke-width="3" paint-order="stroke">烏石</text>
</g>
<g id="wws-live-layer">
<line x1="698.6" y1="172.3" x2="681.6" y2="198.5" stroke="#38bdf8" stroke-width="2.4" marker-end="url(#arrow-38bdf8)" /><line x1="700.1" y1="173.1" x2="688.4" y2="202.0" stroke="#fbbf24" stroke-width="2.4" marker-end="url(#arrow-fbbf24)" /><polygon points="703.4,155.7 712.6,164.9 703.4,174.1 694.2,164.9" fill="#fbbf24" stroke="#fff" stroke-width="1.5" opacity="0.92"/>
<line x1="262.6" y1="404.5" x2="232.8" y2="395.3" stroke="#38bdf8" stroke-width="2.4" marker-end="url(#arrow-38bdf8)" /><line x1="269.4" y1="415.7" x2="263.4" y2="446.3" stroke="#fbbf24" stroke-width="2.4" marker-end="url(#arrow-fbbf24)" /><polygon points="271.0,397.8 280.2,407.0 271.0,416.2 261.8,407.0" fill="#86efac" stroke="#fff" stroke-width="1.5" opacity="0.92"/>
<line x1="267.1" y1="328.3" x2="297.5" y2="335.3" stroke="#38bdf8" stroke-width="2.4" marker-end="url(#arrow-38bdf8)" /><line x1="249.9" y1="324.7" x2="219.2" y2="318.7" stroke="#fbbf24" stroke-width="2.4" marker-end="url(#arrow-fbbf24)" /><polygon points="258.5,317.1 267.7,326.3 258.5,335.5 249.3,326.3" fill="#a78bfa" stroke="#fff" stroke-width="1.5" opacity="0.92"/>
<line x1="387.5" y1="455.8" x2="378.4" y2="485.6" stroke="#38bdf8" stroke-width="2.4" marker-end="url(#arrow-38bdf8)" /><line x1="381.5" y1="445.7" x2="350.8" y2="439.8" stroke="#fbbf24" stroke-width="2.4" marker-end="url(#arrow-fbbf24)" /><polygon points="390.1,438.2 399.3,447.4 390.1,456.6 380.9,447.4" fill="#f472b6" stroke="#fff" stroke-width="1.5" opacity="0.92"/>
<text x="689.4" y="154.9" text-anchor="end" dominant-baseline="central" fill="#fbbf24" font-size="11" font-weight="700" font-family="Noto Sans TC,system-ui,sans-serif" stroke="#0b1220" stroke-width="3" paint-order="stroke">松柏·即</text>
<text x="285.0" y="397.0" text-anchor="start" dominant-baseline="central" fill="#86efac" font-size="11" font-weight="700" font-family="Noto Sans TC,system-ui,sans-serif" stroke="#0b1220" stroke-width="3" paint-order="stroke">富貴·即</text>
<text x="272.5" y="338.3" text-anchor="start" dominant-baseline="central" fill="#a78bfa" font-size="11" font-weight="700" font-family="Noto Sans TC,system-ui,sans-serif" stroke="#0b1220" stroke-width="3" paint-order="stroke">無尾·即</text>
<text x="376.1" y="459.4" text-anchor="end" dominant-baseline="central" fill="#f472b6" font-size="11" font-weight="700" font-family="Noto Sans TC,system-ui,sans-serif" stroke="#0b1220" stroke-width="3" paint-order="stroke">烏石·即</text>
</g>
<circle cx="90" cy="568" r="7" fill="#94a3b8" stroke="#fff"/>
<text x="106" y="572" fill="#e2e8f0" font-size="11" font-family="Noto Sans TC,system-ui,sans-serif">預報</text>
<polygon points="160,561 167,568 160,575 153,568" fill="#94a3b8" stroke="#fff"/>
<text x="176" y="572" fill="#e2e8f0" font-size="11" font-family="Noto Sans TC,system-ui,sans-serif">即時</text>
<line x1="230" y1="568" x2="255" y2="568" stroke="#38bdf8" stroke-width="2.2"/>
<text x="262" y="572" fill="#e2e8f0" font-size="11" font-family="Noto Sans TC,system-ui,sans-serif">風向去向</text>
<line x1="340" y1="568" x2="365" y2="568" stroke="#fbbf24" stroke-width="2.2"/>
<text x="372" y="572" fill="#e2e8f0" font-size="11" font-family="Noto Sans TC,system-ui,sans-serif">浪向去向</text>
<text id="wws-foot" x="490" y="582" text-anchor="middle" fill="#64748b" font-size="10" font-family="Noto Sans TC,system-ui,sans-serif">預報 10/9 15:00 台北｜即時約 2026-10-09 21:48｜北海岸三點即時共用富貴角（只顯示一點）｜後龍／假日之森共用新竹略偏移｜綠&lt;8kt／黃8–14／紅≥15</text>
</svg>