<svg id="wws-svg" xmlns="http://www.w3.org/2000/svg" viewBox="0 0 980 600" role="img" aria-label="風速與浪高散佈圖，可拖曳時間軸切換預報時次" style="width:100%;height:auto;display:block">
<rect width="980" height="600" fill="#0b1220" rx="16"/>
<rect x="58" y="58" width="880" height="460" fill="#111a2e" rx="8"/>
<rect x="58.0" y="58" width="322.9" height="460" fill="#34d399" opacity="0.07"/>
<rect x="380.9" y="58" width="282.6" height="460" fill="#fbbf24" opacity="0.07"/>
<rect x="663.5" y="58" width="274.5" height="460" fill="#fb7185" opacity="0.07"/>
<defs><marker id="arrow-38bdf8" viewBox="0 0 10 10" refX="8" refY="5" markerWidth="6" markerHeight="6" orient="auto-start-reverse"><path d="M0,0 L10,5 L0,10 z" fill="#38bdf8"/></marker><marker id="arrow-fbbf24" viewBox="0 0 10 10" refX="8" refY="5" markerWidth="6" markerHeight="6" orient="auto-start-reverse"><path d="M0,0 L10,5 L0,10 z" fill="#fbbf24"/></marker></defs>
<text id="wws-title" x="58" y="24" fill="#e2e8f0" font-size="16" font-weight="700" font-family="Noto Sans TC,system-ui,sans-serif">今日 15:00 風速 × 浪高　預報 vs 即時浮標</text>
<text x="58" y="44" fill="#8b9bb4" font-size="11" font-family="Noto Sans TC,system-ui,sans-serif">圓點＝預報 · 菱形＝即時 · 縮寫標在點旁 · 箭頭為去向（北風→朝南；北=0°、東=90°）· 青＝風 · 金＝浪 · 拖曳下方時間軸切換預報時次</text>
<line x1="58.0" y1="58" x2="58.0" y2="518" stroke="#1e3a5f" stroke-dasharray="4 4" opacity="0.7"/>
<text x="58.0" y="536" text-anchor="middle" fill="#8b9bb4" font-size="11">0</text>
<line x1="138.7" y1="58" x2="138.7" y2="518" stroke="#1e3a5f" stroke-dasharray="4 4" opacity="0.7"/>
<text x="138.7" y="536" text-anchor="middle" fill="#8b9bb4" font-size="11">2</text>
<line x1="219.5" y1="58" x2="219.5" y2="518" stroke="#1e3a5f" stroke-dasharray="4 4" opacity="0.7"/>
<text x="219.5" y="536" text-anchor="middle" fill="#8b9bb4" font-size="11">4</text>
<line x1="300.2" y1="58" x2="300.2" y2="518" stroke="#1e3a5f" stroke-dasharray="4 4" opacity="0.7"/>
<text x="300.2" y="536" text-anchor="middle" fill="#8b9bb4" font-size="11">6</text>
<line x1="380.9" y1="58" x2="380.9" y2="518" stroke="#1e3a5f" stroke-dasharray="4 4" opacity="0.7"/>
<text x="380.9" y="536" text-anchor="middle" fill="#8b9bb4" font-size="11">8</text>
<line x1="461.7" y1="58" x2="461.7" y2="518" stroke="#1e3a5f" stroke-dasharray="4 4" opacity="0.7"/>
<text x="461.7" y="536" text-anchor="middle" fill="#8b9bb4" font-size="11">10</text>
<line x1="542.4" y1="58" x2="542.4" y2="518" stroke="#1e3a5f" stroke-dasharray="4 4" opacity="0.7"/>
<text x="542.4" y="536" text-anchor="middle" fill="#8b9bb4" font-size="11">12</text>
<line x1="623.1" y1="58" x2="623.1" y2="518" stroke="#1e3a5f" stroke-dasharray="4 4" opacity="0.7"/>
<text x="623.1" y="536" text-anchor="middle" fill="#8b9bb4" font-size="11">14</text>
<line x1="703.9" y1="58" x2="703.9" y2="518" stroke="#1e3a5f" stroke-dasharray="4 4" opacity="0.7"/>
<text x="703.9" y="536" text-anchor="middle" fill="#8b9bb4" font-size="11">16</text>
<line x1="784.6" y1="58" x2="784.6" y2="518" stroke="#1e3a5f" stroke-dasharray="4 4" opacity="0.7"/>
<text x="784.6" y="536" text-anchor="middle" fill="#8b9bb4" font-size="11">18</text>
<line x1="865.3" y1="58" x2="865.3" y2="518" stroke="#1e3a5f" stroke-dasharray="4 4" opacity="0.7"/>
<text x="865.3" y="536" text-anchor="middle" fill="#8b9bb4" font-size="11">20</text>
<line x1="58" y1="518.0" x2="938" y2="518.0" stroke="#1e3a5f" stroke-dasharray="4 4" opacity="0.5"/>
<text x="50" y="518.0" text-anchor="end" dominant-baseline="middle" fill="#8b9bb4" font-size="11">0.2</text>
<line x1="58" y1="454.6" x2="938" y2="454.6" stroke="#1e3a5f" stroke-dasharray="4 4" opacity="0.5"/>
<text x="50" y="454.6" text-anchor="end" dominant-baseline="middle" fill="#8b9bb4" font-size="11">0.4</text>
<line x1="58" y1="391.1" x2="938" y2="391.1" stroke="#1e3a5f" stroke-dasharray="4 4" opacity="0.5"/>
<text x="50" y="391.1" text-anchor="end" dominant-baseline="middle" fill="#8b9bb4" font-size="11">0.6</text>
<line x1="58" y1="327.7" x2="938" y2="327.7" stroke="#1e3a5f" stroke-dasharray="4 4" opacity="0.5"/>
<text x="50" y="327.7" text-anchor="end" dominant-baseline="middle" fill="#8b9bb4" font-size="11">0.8</text>
<line x1="58" y1="264.2" x2="938" y2="264.2" stroke="#1e3a5f" stroke-dasharray="4 4" opacity="0.5"/>
<text x="50" y="264.2" text-anchor="end" dominant-baseline="middle" fill="#8b9bb4" font-size="11">1.0</text>
<line x1="58" y1="200.8" x2="938" y2="200.8" stroke="#1e3a5f" stroke-dasharray="4 4" opacity="0.5"/>
<text x="50" y="200.8" text-anchor="end" dominant-baseline="middle" fill="#8b9bb4" font-size="11">1.2</text>
<line x1="58" y1="137.3" x2="938" y2="137.3" stroke="#1e3a5f" stroke-dasharray="4 4" opacity="0.5"/>
<text x="50" y="137.3" text-anchor="end" dominant-baseline="middle" fill="#8b9bb4" font-size="11">1.4</text>
<line x1="58" y1="73.9" x2="938" y2="73.9" stroke="#1e3a5f" stroke-dasharray="4 4" opacity="0.5"/>
<text x="50" y="73.9" text-anchor="end" dominant-baseline="middle" fill="#8b9bb4" font-size="11">1.6</text>
<text x="498" y="552" text-anchor="middle" fill="#e2e8f0" font-size="12">風速（kt）</text>
<text x="52" y="54" text-anchor="end" fill="#8b9bb4" font-size="11">浪高 m</text>
<g id="wws-forecast-layer">
<line x1="385.5" y1="488.1" x2="416.0" y2="494.6" stroke="#38bdf8" stroke-width="2.4" marker-end="url(#arrow-38bdf8)" /><line x1="385.7" y1="486.4" x2="416.9" y2="487.0" stroke="#fbbf24" stroke-width="2.4" marker-end="url(#arrow-fbbf24)" /><circle cx="376.9" cy="486.3" r="8.0" fill="#38bdf8" stroke="#fff" stroke-width="1.6" opacity="0.95"/>
<line x1="365.0" y1="489.3" x2="394.3" y2="500.0" stroke="#38bdf8" stroke-width="2.4" marker-end="url(#arrow-38bdf8)" /><line x1="365.5" y1="486.4" x2="396.7" y2="487.0" stroke="#fbbf24" stroke-width="2.4" marker-end="url(#arrow-fbbf24)" /><circle cx="356.7" cy="486.3" r="8.0" fill="#2dd4bf" stroke="#fff" stroke-width="1.6" opacity="0.95"/>
<line x1="448.2" y1="461.5" x2="479.4" y2="463.7" stroke="#38bdf8" stroke-width="2.4" marker-end="url(#arrow-38bdf8)" /><line x1="448.2" y1="460.0" x2="479.2" y2="456.7" stroke="#fbbf24" stroke-width="2.4" marker-end="url(#arrow-fbbf24)" /><circle cx="439.5" cy="460.9" r="8.0" fill="#fbbf24" stroke="#fff" stroke-width="1.6" opacity="0.95"/>
<line x1="427.5" y1="429.1" x2="449.6" y2="451.1" stroke="#38bdf8" stroke-width="2.4" marker-end="url(#arrow-38bdf8)" /><line x1="413.0" y1="419.8" x2="383.7" y2="409.1" stroke="#fbbf24" stroke-width="2.4" marker-end="url(#arrow-fbbf24)" /><circle cx="421.3" cy="422.8" r="8.0" fill="#4ade80" stroke="#fff" stroke-width="1.6" opacity="0.95"/>
<line x1="352.5" y1="430.7" x2="366.2" y2="458.8" stroke="#38bdf8" stroke-width="2.4" marker-end="url(#arrow-38bdf8)" /><line x1="340.5" y1="419.4" x2="311.8" y2="407.2" stroke="#fbbf24" stroke-width="2.4" marker-end="url(#arrow-fbbf24)" /><circle cx="348.6" cy="422.8" r="8.0" fill="#22d3ee" stroke="#fff" stroke-width="1.6" opacity="0.95"/>
<line x1="397.0" y1="458.3" x2="425.3" y2="471.5" stroke="#38bdf8" stroke-width="2.4" marker-end="url(#arrow-38bdf8)" /><line x1="380.5" y1="452.3" x2="350.4" y2="444.2" stroke="#fbbf24" stroke-width="2.4" marker-end="url(#arrow-fbbf24)" /><circle cx="389.0" cy="454.6" r="8.0" fill="#fb923c" stroke="#fff" stroke-width="1.6" opacity="0.95"/>
<line x1="289.4" y1="365.0" x2="265.5" y2="385.1" stroke="#38bdf8" stroke-width="2.4" marker-end="url(#arrow-38bdf8)" /><line x1="288.4" y1="355.2" x2="260.8" y2="340.6" stroke="#fbbf24" stroke-width="2.4" marker-end="url(#arrow-fbbf24)" /><circle cx="296.2" cy="359.4" r="8.0" fill="#a78bfa" stroke="#fff" stroke-width="1.6" opacity="0.95"/>
<line x1="238.9" y1="391.7" x2="207.8" y2="393.9" stroke="#38bdf8" stroke-width="2.4" marker-end="url(#arrow-38bdf8)" /><line x1="239.8" y1="387.2" x2="211.8" y2="373.6" stroke="#fbbf24" stroke-width="2.4" marker-end="url(#arrow-fbbf24)" /><circle cx="247.7" cy="391.1" r="8.0" fill="#f472b6" stroke="#fff" stroke-width="1.6" opacity="0.95"/>
<text x="390.9" y="476.3" text-anchor="start" dominant-baseline="central" fill="#38bdf8" font-size="11" font-weight="700" font-family="Noto Sans TC,system-ui,sans-serif" stroke="#0b1220" stroke-width="3" paint-order="stroke">後龍</text>
<text x="370.7" y="498.3" text-anchor="start" dominant-baseline="central" fill="#2dd4bf" font-size="11" font-weight="700" font-family="Noto Sans TC,system-ui,sans-serif" stroke="#0b1220" stroke-width="3" paint-order="stroke">假森</text>
<text x="453.5" y="450.9" text-anchor="start" dominant-baseline="central" fill="#fbbf24" font-size="11" font-weight="700" font-family="Noto Sans TC,system-ui,sans-serif" stroke="#0b1220" stroke-width="3" paint-order="stroke">松柏</text>
<text x="435.3" y="412.8" text-anchor="start" dominant-baseline="central" fill="#4ade80" font-size="11" font-weight="700" font-family="Noto Sans TC,system-ui,sans-serif" stroke="#0b1220" stroke-width="3" paint-order="stroke">中角</text>
<text x="362.6" y="434.8" text-anchor="start" dominant-baseline="central" fill="#22d3ee" font-size="11" font-weight="700" font-family="Noto Sans TC,system-ui,sans-serif" stroke="#0b1220" stroke-width="3" paint-order="stroke">翡灣</text>
<text x="375.0" y="444.6" text-anchor="end" dominant-baseline="central" fill="#fb923c" font-size="11" font-weight="700" font-family="Noto Sans TC,system-ui,sans-serif" stroke="#0b1220" stroke-width="3" paint-order="stroke">石門</text>
<text x="310.2" y="349.4" text-anchor="start" dominant-baseline="central" fill="#a78bfa" font-size="11" font-weight="700" font-family="Noto Sans TC,system-ui,sans-serif" stroke="#0b1220" stroke-width="3" paint-order="stroke">無尾</text>
<text x="261.7" y="403.1" text-anchor="start" dominant-baseline="central" fill="#f472b6" font-size="11" font-weight="700" font-family="Noto Sans TC,system-ui,sans-serif" stroke="#0b1220" stroke-width="3" paint-order="stroke">烏石</text>
</g>
<g id="wws-live-layer">
<line x1="456.6" y1="506.7" x2="487.4" y2="511.6" stroke="#38bdf8" stroke-width="2.4" marker-end="url(#arrow-38bdf8)" /><line x1="449.7" y1="513.9" x2="456.2" y2="544.4" stroke="#fbbf24" stroke-width="2.4" marker-end="url(#arrow-fbbf24)" /><polygon points="447.9,496.1 457.1,505.3 447.9,514.5 438.7,505.3" fill="#38bdf8" stroke="#fff" stroke-width="1.5" opacity="0.92"/>
<line x1="492.9" y1="532.1" x2="523.7" y2="536.9" stroke="#38bdf8" stroke-width="2.4" marker-end="url(#arrow-38bdf8)" /><line x1="486.0" y1="539.3" x2="492.5" y2="569.8" stroke="#fbbf24" stroke-width="2.4" marker-end="url(#arrow-fbbf24)" /><polygon points="484.2,521.5 493.4,530.7 484.2,539.9 475.0,530.7" fill="#2dd4bf" stroke="#fff" stroke-width="1.5" opacity="0.92"/>
<line x1="380.6" y1="517.4" x2="411.8" y2="515.2" stroke="#38bdf8" stroke-width="2.4" marker-end="url(#arrow-38bdf8)" /><line x1="371.9" y1="526.8" x2="371.9" y2="558.0" stroke="#fbbf24" stroke-width="2.4" marker-end="url(#arrow-fbbf24)" /><polygon points="371.9,508.8 381.1,518.0 371.9,527.2 362.7,518.0" fill="#fbbf24" stroke="#fff" stroke-width="1.5" opacity="0.92"/>
<line x1="490.5" y1="486.7" x2="521.7" y2="488.4" stroke="#38bdf8" stroke-width="2.4" marker-end="url(#arrow-38bdf8)" /><line x1="474.4" y1="491.2" x2="448.6" y2="508.6" stroke="#fbbf24" stroke-width="2.4" marker-end="url(#arrow-fbbf24)" /><polygon points="481.7,477.1 490.9,486.3 481.7,495.5 472.5,486.3" fill="#86efac" stroke="#fff" stroke-width="1.5" opacity="0.92"/>
<line x1="269.9" y1="291.9" x2="242.1" y2="277.8" stroke="#38bdf8" stroke-width="2.4" marker-end="url(#arrow-38bdf8)" /><line x1="268.9" y1="295.9" x2="237.7" y2="295.9" stroke="#fbbf24" stroke-width="2.4" marker-end="url(#arrow-fbbf24)" /><polygon points="277.7,286.7 286.9,295.9 277.7,305.1 268.5,295.9" fill="#a78bfa" stroke="#fff" stroke-width="1.5" opacity="0.92"/>
<line x1="458.1" y1="299.7" x2="429.8" y2="312.8" stroke="#38bdf8" stroke-width="2.4" marker-end="url(#arrow-38bdf8)" /><line x1="464.2" y1="287.3" x2="457.7" y2="256.8" stroke="#fbbf24" stroke-width="2.4" marker-end="url(#arrow-fbbf24)" /><polygon points="466.0,286.7 475.2,295.9 466.0,305.1 456.8,295.9" fill="#f472b6" stroke="#fff" stroke-width="1.5" opacity="0.92"/>
<text x="433.9" y="517.3" text-anchor="end" dominant-baseline="central" fill="#38bdf8" font-size="11" font-weight="700" font-family="Noto Sans TC,system-ui,sans-serif" stroke="#0b1220" stroke-width="3" paint-order="stroke">後龍·即</text>
<text x="498.2" y="542.7" text-anchor="start" dominant-baseline="central" fill="#2dd4bf" font-size="11" font-weight="700" font-family="Noto Sans TC,system-ui,sans-serif" stroke="#0b1220" stroke-width="3" paint-order="stroke">假森·即</text>
<text x="357.9" y="508.0" text-anchor="end" dominant-baseline="central" fill="#fbbf24" font-size="11" font-weight="700" font-family="Noto Sans TC,system-ui,sans-serif" stroke="#0b1220" stroke-width="3" paint-order="stroke">松柏·即</text>
<text x="495.7" y="476.3" text-anchor="start" dominant-baseline="central" fill="#86efac" font-size="11" font-weight="700" font-family="Noto Sans TC,system-ui,sans-serif" stroke="#0b1220" stroke-width="3" paint-order="stroke">富貴·即</text>
<text x="291.7" y="307.9" text-anchor="start" dominant-baseline="central" fill="#a78bfa" font-size="11" font-weight="700" font-family="Noto Sans TC,system-ui,sans-serif" stroke="#0b1220" stroke-width="3" paint-order="stroke">無尾·即</text>
<text x="452.0" y="307.9" text-anchor="end" dominant-baseline="central" fill="#f472b6" font-size="11" font-weight="700" font-family="Noto Sans TC,system-ui,sans-serif" stroke="#0b1220" stroke-width="3" paint-order="stroke">烏石·即</text>
</g>
<circle cx="90" cy="568" r="7" fill="#94a3b8" stroke="#fff"/>
<text x="106" y="572" fill="#e2e8f0" font-size="11" font-family="Noto Sans TC,system-ui,sans-serif">預報</text>
<polygon points="160,561 167,568 160,575 153,568" fill="#94a3b8" stroke="#fff"/>
<text x="176" y="572" fill="#e2e8f0" font-size="11" font-family="Noto Sans TC,system-ui,sans-serif">即時</text>
<line x1="230" y1="568" x2="255" y2="568" stroke="#38bdf8" stroke-width="2.2"/>
<text x="262" y="572" fill="#e2e8f0" font-size="11" font-family="Noto Sans TC,system-ui,sans-serif">風向去向</text>
<line x1="340" y1="568" x2="365" y2="568" stroke="#fbbf24" stroke-width="2.2"/>
<text x="372" y="572" fill="#e2e8f0" font-size="11" font-family="Noto Sans TC,system-ui,sans-serif">浪向去向</text>
<text id="wws-foot" x="490" y="582" text-anchor="middle" fill="#64748b" font-size="10" font-family="Noto Sans TC,system-ui,sans-serif">預報 9/26 15:00 台北｜即時約 2026-09-26 15:18｜北海岸三點即時共用富貴角（只顯示一點）｜後龍／假日之森共用新竹略偏移｜綠&lt;8kt／黃8–14／紅≥15</text>
</svg>