<svg id="wws-svg" xmlns="http://www.w3.org/2000/svg" viewBox="0 0 980 600" role="img" aria-label="風速與浪高散佈圖，可拖曳時間軸切換預報時次" style="width:100%;height:auto;display:block">
<rect width="980" height="600" fill="#0b1220" rx="16"/>
<rect x="58" y="58" width="880" height="460" fill="#111a2e" rx="8"/>
<rect x="58.0" y="58" width="241.1" height="460" fill="#34d399" opacity="0.07"/>
<rect x="299.1" y="58" width="211.0" height="460" fill="#fbbf24" opacity="0.07"/>
<rect x="510.1" y="58" width="427.9" height="460" fill="#fb7185" opacity="0.07"/>
<defs><marker id="arrow-38bdf8" viewBox="0 0 10 10" refX="8" refY="5" markerWidth="6" markerHeight="6" orient="auto-start-reverse"><path d="M0,0 L10,5 L0,10 z" fill="#38bdf8"/></marker><marker id="arrow-fbbf24" viewBox="0 0 10 10" refX="8" refY="5" markerWidth="6" markerHeight="6" orient="auto-start-reverse"><path d="M0,0 L10,5 L0,10 z" fill="#fbbf24"/></marker></defs>
<text id="wws-title" x="58" y="24" fill="#e2e8f0" font-size="16" font-weight="700" font-family="Noto Sans TC,system-ui,sans-serif">今日 15:00 風速 × 浪高　預報 vs 即時浮標</text>
<text x="58" y="44" fill="#8b9bb4" font-size="11" font-family="Noto Sans TC,system-ui,sans-serif">圓點＝預報 · 菱形＝即時 · 縮寫標在點旁 · 箭頭為去向（北風→朝南；北=0°、東=90°）· 青＝風 · 金＝浪 · 拖曳下方時間軸切換預報時次</text>
<line x1="58.0" y1="58" x2="58.0" y2="518" stroke="#1e3a5f" stroke-dasharray="4 4" opacity="0.7"/>
<text x="58.0" y="536" text-anchor="middle" fill="#8b9bb4" font-size="11">0</text>
<line x1="118.3" y1="58" x2="118.3" y2="518" stroke="#1e3a5f" stroke-dasharray="4 4" opacity="0.7"/>
<text x="118.3" y="536" text-anchor="middle" fill="#8b9bb4" font-size="11">2</text>
<line x1="178.5" y1="58" x2="178.5" y2="518" stroke="#1e3a5f" stroke-dasharray="4 4" opacity="0.7"/>
<text x="178.5" y="536" text-anchor="middle" fill="#8b9bb4" font-size="11">4</text>
<line x1="238.8" y1="58" x2="238.8" y2="518" stroke="#1e3a5f" stroke-dasharray="4 4" opacity="0.7"/>
<text x="238.8" y="536" text-anchor="middle" fill="#8b9bb4" font-size="11">6</text>
<line x1="299.1" y1="58" x2="299.1" y2="518" stroke="#1e3a5f" stroke-dasharray="4 4" opacity="0.7"/>
<text x="299.1" y="536" text-anchor="middle" fill="#8b9bb4" font-size="11">8</text>
<line x1="359.4" y1="58" x2="359.4" y2="518" stroke="#1e3a5f" stroke-dasharray="4 4" opacity="0.7"/>
<text x="359.4" y="536" text-anchor="middle" fill="#8b9bb4" font-size="11">10</text>
<line x1="419.6" y1="58" x2="419.6" y2="518" stroke="#1e3a5f" stroke-dasharray="4 4" opacity="0.7"/>
<text x="419.6" y="536" text-anchor="middle" fill="#8b9bb4" font-size="11">12</text>
<line x1="479.9" y1="58" x2="479.9" y2="518" stroke="#1e3a5f" stroke-dasharray="4 4" opacity="0.7"/>
<text x="479.9" y="536" text-anchor="middle" fill="#8b9bb4" font-size="11">14</text>
<line x1="540.2" y1="58" x2="540.2" y2="518" stroke="#1e3a5f" stroke-dasharray="4 4" opacity="0.7"/>
<text x="540.2" y="536" text-anchor="middle" fill="#8b9bb4" font-size="11">16</text>
<line x1="600.5" y1="58" x2="600.5" y2="518" stroke="#1e3a5f" stroke-dasharray="4 4" opacity="0.7"/>
<text x="600.5" y="536" text-anchor="middle" fill="#8b9bb4" font-size="11">18</text>
<line x1="660.7" y1="58" x2="660.7" y2="518" stroke="#1e3a5f" stroke-dasharray="4 4" opacity="0.7"/>
<text x="660.7" y="536" text-anchor="middle" fill="#8b9bb4" font-size="11">20</text>
<line x1="721.0" y1="58" x2="721.0" y2="518" stroke="#1e3a5f" stroke-dasharray="4 4" opacity="0.7"/>
<text x="721.0" y="536" text-anchor="middle" fill="#8b9bb4" font-size="11">22</text>
<line x1="781.3" y1="58" x2="781.3" y2="518" stroke="#1e3a5f" stroke-dasharray="4 4" opacity="0.7"/>
<text x="781.3" y="536" text-anchor="middle" fill="#8b9bb4" font-size="11">24</text>
<line x1="841.6" y1="58" x2="841.6" y2="518" stroke="#1e3a5f" stroke-dasharray="4 4" opacity="0.7"/>
<text x="841.6" y="536" text-anchor="middle" fill="#8b9bb4" font-size="11">26</text>
<line x1="901.8" y1="58" x2="901.8" y2="518" stroke="#1e3a5f" stroke-dasharray="4 4" opacity="0.7"/>
<text x="901.8" y="536" text-anchor="middle" fill="#8b9bb4" font-size="11">28</text>
<line x1="58" y1="518.0" x2="938" y2="518.0" stroke="#1e3a5f" stroke-dasharray="4 4" opacity="0.5"/>
<text x="50" y="518.0" text-anchor="end" dominant-baseline="middle" fill="#8b9bb4" font-size="11">0.2</text>
<line x1="58" y1="481.9" x2="938" y2="481.9" stroke="#1e3a5f" stroke-dasharray="4 4" opacity="0.5"/>
<text x="50" y="481.9" text-anchor="end" dominant-baseline="middle" fill="#8b9bb4" font-size="11">0.4</text>
<line x1="58" y1="445.8" x2="938" y2="445.8" stroke="#1e3a5f" stroke-dasharray="4 4" opacity="0.5"/>
<text x="50" y="445.8" text-anchor="end" dominant-baseline="middle" fill="#8b9bb4" font-size="11">0.6</text>
<line x1="58" y1="409.8" x2="938" y2="409.8" stroke="#1e3a5f" stroke-dasharray="4 4" opacity="0.5"/>
<text x="50" y="409.8" text-anchor="end" dominant-baseline="middle" fill="#8b9bb4" font-size="11">0.8</text>
<line x1="58" y1="373.7" x2="938" y2="373.7" stroke="#1e3a5f" stroke-dasharray="4 4" opacity="0.5"/>
<text x="50" y="373.7" text-anchor="end" dominant-baseline="middle" fill="#8b9bb4" font-size="11">1.0</text>
<line x1="58" y1="337.6" x2="938" y2="337.6" stroke="#1e3a5f" stroke-dasharray="4 4" opacity="0.5"/>
<text x="50" y="337.6" text-anchor="end" dominant-baseline="middle" fill="#8b9bb4" font-size="11">1.2</text>
<line x1="58" y1="301.5" x2="938" y2="301.5" stroke="#1e3a5f" stroke-dasharray="4 4" opacity="0.5"/>
<text x="50" y="301.5" text-anchor="end" dominant-baseline="middle" fill="#8b9bb4" font-size="11">1.4</text>
<line x1="58" y1="265.5" x2="938" y2="265.5" stroke="#1e3a5f" stroke-dasharray="4 4" opacity="0.5"/>
<text x="50" y="265.5" text-anchor="end" dominant-baseline="middle" fill="#8b9bb4" font-size="11">1.6</text>
<line x1="58" y1="229.4" x2="938" y2="229.4" stroke="#1e3a5f" stroke-dasharray="4 4" opacity="0.5"/>
<text x="50" y="229.4" text-anchor="end" dominant-baseline="middle" fill="#8b9bb4" font-size="11">1.8</text>
<line x1="58" y1="193.3" x2="938" y2="193.3" stroke="#1e3a5f" stroke-dasharray="4 4" opacity="0.5"/>
<text x="50" y="193.3" text-anchor="end" dominant-baseline="middle" fill="#8b9bb4" font-size="11">2.0</text>
<line x1="58" y1="157.2" x2="938" y2="157.2" stroke="#1e3a5f" stroke-dasharray="4 4" opacity="0.5"/>
<text x="50" y="157.2" text-anchor="end" dominant-baseline="middle" fill="#8b9bb4" font-size="11">2.2</text>
<line x1="58" y1="121.1" x2="938" y2="121.1" stroke="#1e3a5f" stroke-dasharray="4 4" opacity="0.5"/>
<text x="50" y="121.1" text-anchor="end" dominant-baseline="middle" fill="#8b9bb4" font-size="11">2.4</text>
<line x1="58" y1="85.1" x2="938" y2="85.1" stroke="#1e3a5f" stroke-dasharray="4 4" opacity="0.5"/>
<text x="50" y="85.1" text-anchor="end" dominant-baseline="middle" fill="#8b9bb4" font-size="11">2.6</text>
<text x="498" y="552" text-anchor="middle" fill="#e2e8f0" font-size="12">風速（kt）</text>
<text x="52" y="54" text-anchor="end" fill="#8b9bb4" font-size="11">浪高 m</text>
<g id="wws-forecast-layer">
<line x1="620.4" y1="351.7" x2="648.2" y2="337.5" stroke="#38bdf8" stroke-width="2.4" marker-end="url(#arrow-38bdf8)" /><line x1="620.5" y1="351.9" x2="648.8" y2="338.7" stroke="#fbbf24" stroke-width="2.4" marker-end="url(#arrow-fbbf24)" /><circle cx="612.5" cy="355.6" r="8.0" fill="#38bdf8" stroke="#fff" stroke-width="1.6" opacity="0.95"/>
<line x1="572.6" y1="352.8" x2="602.1" y2="342.6" stroke="#38bdf8" stroke-width="2.4" marker-end="url(#arrow-38bdf8)" /><line x1="572.3" y1="352.1" x2="600.8" y2="339.4" stroke="#fbbf24" stroke-width="2.4" marker-end="url(#arrow-fbbf24)" /><circle cx="564.3" cy="355.6" r="8.0" fill="#2dd4bf" stroke="#fff" stroke-width="1.6" opacity="0.95"/>
<line x1="469.5" y1="387.3" x2="496.5" y2="371.7" stroke="#38bdf8" stroke-width="2.4" marker-end="url(#arrow-38bdf8)" /><line x1="469.9" y1="388.1" x2="498.4" y2="375.5" stroke="#fbbf24" stroke-width="2.4" marker-end="url(#arrow-fbbf24)" /><circle cx="461.8" cy="391.7" r="8.0" fill="#fbbf24" stroke="#fff" stroke-width="1.6" opacity="0.95"/>
<line x1="89.4" y1="328.9" x2="93.7" y2="298.0" stroke="#38bdf8" stroke-width="2.4" marker-end="url(#arrow-38bdf8)" /><line x1="79.4" y1="338.8" x2="48.5" y2="343.2" stroke="#fbbf24" stroke-width="2.4" marker-end="url(#arrow-fbbf24)" /><circle cx="88.1" cy="337.6" r="8.0" fill="#4ade80" stroke="#fff" stroke-width="1.6" opacity="0.95"/>
<line x1="161.0" y1="376.0" x2="130.9" y2="384.0" stroke="#38bdf8" stroke-width="2.4" marker-end="url(#arrow-38bdf8)" /><line x1="160.8" y1="374.9" x2="129.9" y2="379.3" stroke="#fbbf24" stroke-width="2.4" marker-end="url(#arrow-fbbf24)" /><circle cx="169.5" cy="373.7" r="8.0" fill="#22d3ee" stroke="#fff" stroke-width="1.6" opacity="0.95"/>
<line x1="361.6" y1="334.6" x2="390.9" y2="323.9" stroke="#38bdf8" stroke-width="2.4" marker-end="url(#arrow-38bdf8)" /><line x1="344.7" y1="339.3" x2="314.1" y2="345.2" stroke="#fbbf24" stroke-width="2.4" marker-end="url(#arrow-fbbf24)" /><circle cx="353.3" cy="337.6" r="8.0" fill="#fb923c" stroke="#fff" stroke-width="1.6" opacity="0.95"/>
<line x1="145.6" y1="445.5" x2="114.5" y2="444.4" stroke="#38bdf8" stroke-width="2.4" marker-end="url(#arrow-38bdf8)" /><line x1="145.8" y1="447.4" x2="115.0" y2="452.8" stroke="#fbbf24" stroke-width="2.4" marker-end="url(#arrow-fbbf24)" /><circle cx="154.4" cy="445.8" r="8.0" fill="#a78bfa" stroke="#fff" stroke-width="1.6" opacity="0.95"/>
<line x1="179.1" y1="425.4" x2="149.1" y2="416.8" stroke="#38bdf8" stroke-width="2.4" marker-end="url(#arrow-38bdf8)" /><line x1="178.9" y1="428.9" x2="147.9" y2="432.7" stroke="#fbbf24" stroke-width="2.4" marker-end="url(#arrow-fbbf24)" /><circle cx="187.6" cy="427.8" r="8.0" fill="#f472b6" stroke="#fff" stroke-width="1.6" opacity="0.95"/>
<text x="626.5" y="345.6" text-anchor="start" dominant-baseline="central" fill="#38bdf8" font-size="11" font-weight="700" font-family="Noto Sans TC,system-ui,sans-serif" stroke="#0b1220" stroke-width="3" paint-order="stroke">後龍</text>
<text x="578.3" y="367.6" text-anchor="start" dominant-baseline="central" fill="#2dd4bf" font-size="11" font-weight="700" font-family="Noto Sans TC,system-ui,sans-serif" stroke="#0b1220" stroke-width="3" paint-order="stroke">假森</text>
<text x="475.8" y="381.7" text-anchor="start" dominant-baseline="central" fill="#fbbf24" font-size="11" font-weight="700" font-family="Noto Sans TC,system-ui,sans-serif" stroke="#0b1220" stroke-width="3" paint-order="stroke">松柏</text>
<text x="102.1" y="327.6" text-anchor="start" dominant-baseline="central" fill="#4ade80" font-size="11" font-weight="700" font-family="Noto Sans TC,system-ui,sans-serif" stroke="#0b1220" stroke-width="3" paint-order="stroke">中角</text>
<text x="183.5" y="385.7" text-anchor="start" dominant-baseline="central" fill="#22d3ee" font-size="11" font-weight="700" font-family="Noto Sans TC,system-ui,sans-serif" stroke="#0b1220" stroke-width="3" paint-order="stroke">翡灣</text>
<text x="339.3" y="327.6" text-anchor="end" dominant-baseline="central" fill="#fb923c" font-size="11" font-weight="700" font-family="Noto Sans TC,system-ui,sans-serif" stroke="#0b1220" stroke-width="3" paint-order="stroke">石門</text>
<text x="168.4" y="435.8" text-anchor="start" dominant-baseline="central" fill="#a78bfa" font-size="11" font-weight="700" font-family="Noto Sans TC,system-ui,sans-serif" stroke="#0b1220" stroke-width="3" paint-order="stroke">無尾</text>
<text x="201.6" y="439.8" text-anchor="start" dominant-baseline="central" fill="#f472b6" font-size="11" font-weight="700" font-family="Noto Sans TC,system-ui,sans-serif" stroke="#0b1220" stroke-width="3" paint-order="stroke">烏石</text>
</g>
<g id="wws-live-layer">
<line x1="525.1" y1="414.3" x2="546.7" y2="391.8" stroke="#38bdf8" stroke-width="2.4" marker-end="url(#arrow-38bdf8)" /><line x1="527.6" y1="418.8" x2="558.1" y2="412.3" stroke="#fbbf24" stroke-width="2.4" marker-end="url(#arrow-fbbf24)" /><polygon points="518.9,411.4 528.1,420.6 518.9,429.8 509.7,420.6" fill="#38bdf8" stroke="#fff" stroke-width="1.5" opacity="0.92"/>
<line x1="552.2" y1="428.7" x2="573.9" y2="406.2" stroke="#38bdf8" stroke-width="2.4" marker-end="url(#arrow-38bdf8)" /><line x1="554.7" y1="433.2" x2="585.2" y2="426.7" stroke="#fbbf24" stroke-width="2.4" marker-end="url(#arrow-fbbf24)" /><polygon points="546.1,425.8 555.3,435.0 546.1,444.2 536.9,435.0" fill="#2dd4bf" stroke="#fff" stroke-width="1.5" opacity="0.92"/>
<line x1="381.4" y1="473.2" x2="385.8" y2="442.3" stroke="#38bdf8" stroke-width="2.4" marker-end="url(#arrow-38bdf8)" /><line x1="388.3" y1="478.5" x2="417.0" y2="466.3" stroke="#fbbf24" stroke-width="2.4" marker-end="url(#arrow-fbbf24)" /><polygon points="380.2,472.7 389.4,481.9 380.2,491.1 371.0,481.9" fill="#fbbf24" stroke="#fff" stroke-width="1.5" opacity="0.92"/>
<line x1="447.1" y1="461.0" x2="476.6" y2="450.9" stroke="#38bdf8" stroke-width="2.4" marker-end="url(#arrow-38bdf8)" /><line x1="432.6" y1="470.1" x2="410.5" y2="492.2" stroke="#fbbf24" stroke-width="2.4" marker-end="url(#arrow-fbbf24)" /><polygon points="438.8,454.7 448.0,463.9 438.8,473.1 429.6,463.9" fill="#86efac" stroke="#fff" stroke-width="1.5" opacity="0.92"/>
<line x1="242.4" y1="465.4" x2="273.1" y2="470.8" stroke="#38bdf8" stroke-width="2.4" marker-end="url(#arrow-38bdf8)" /><line x1="225.6" y1="467.3" x2="196.9" y2="479.5" stroke="#fbbf24" stroke-width="2.4" marker-end="url(#arrow-fbbf24)" /><polygon points="233.7,454.7 242.9,463.9 233.7,473.1 224.5,463.9" fill="#a78bfa" stroke="#fff" stroke-width="1.5" opacity="0.92"/>
<line x1="153.8" y1="503.7" x2="182.1" y2="516.9" stroke="#38bdf8" stroke-width="2.4" marker-end="url(#arrow-38bdf8)" /><line x1="144.2" y1="508.6" x2="138.2" y2="539.2" stroke="#fbbf24" stroke-width="2.4" marker-end="url(#arrow-fbbf24)" /><polygon points="145.9,490.8 155.1,500.0 145.9,509.2 136.7,500.0" fill="#f472b6" stroke="#fff" stroke-width="1.5" opacity="0.92"/>
<text x="504.9" y="432.6" text-anchor="end" dominant-baseline="central" fill="#38bdf8" font-size="11" font-weight="700" font-family="Noto Sans TC,system-ui,sans-serif" stroke="#0b1220" stroke-width="3" paint-order="stroke">後龍·即</text>
<text x="560.1" y="447.0" text-anchor="start" dominant-baseline="central" fill="#2dd4bf" font-size="11" font-weight="700" font-family="Noto Sans TC,system-ui,sans-serif" stroke="#0b1220" stroke-width="3" paint-order="stroke">假森·即</text>
<text x="366.2" y="471.9" text-anchor="end" dominant-baseline="central" fill="#fbbf24" font-size="11" font-weight="700" font-family="Noto Sans TC,system-ui,sans-serif" stroke="#0b1220" stroke-width="3" paint-order="stroke">松柏·即</text>
<text x="452.8" y="453.9" text-anchor="start" dominant-baseline="central" fill="#86efac" font-size="11" font-weight="700" font-family="Noto Sans TC,system-ui,sans-serif" stroke="#0b1220" stroke-width="3" paint-order="stroke">富貴·即</text>
<text x="247.7" y="475.9" text-anchor="start" dominant-baseline="central" fill="#a78bfa" font-size="11" font-weight="700" font-family="Noto Sans TC,system-ui,sans-serif" stroke="#0b1220" stroke-width="3" paint-order="stroke">無尾·即</text>
<text x="131.9" y="512.0" text-anchor="end" dominant-baseline="central" fill="#f472b6" font-size="11" font-weight="700" font-family="Noto Sans TC,system-ui,sans-serif" stroke="#0b1220" stroke-width="3" paint-order="stroke">烏石·即</text>
</g>
<circle cx="90" cy="568" r="7" fill="#94a3b8" stroke="#fff"/>
<text x="106" y="572" fill="#e2e8f0" font-size="11" font-family="Noto Sans TC,system-ui,sans-serif">預報</text>
<polygon points="160,561 167,568 160,575 153,568" fill="#94a3b8" stroke="#fff"/>
<text x="176" y="572" fill="#e2e8f0" font-size="11" font-family="Noto Sans TC,system-ui,sans-serif">即時</text>
<line x1="230" y1="568" x2="255" y2="568" stroke="#38bdf8" stroke-width="2.2"/>
<text x="262" y="572" fill="#e2e8f0" font-size="11" font-family="Noto Sans TC,system-ui,sans-serif">風向去向</text>
<line x1="340" y1="568" x2="365" y2="568" stroke="#fbbf24" stroke-width="2.2"/>
<text x="372" y="572" fill="#e2e8f0" font-size="11" font-family="Noto Sans TC,system-ui,sans-serif">浪向去向</text>
<text id="wws-foot" x="490" y="582" text-anchor="middle" fill="#64748b" font-size="10" font-family="Noto Sans TC,system-ui,sans-serif">預報 9/28 15:00 台北｜即時約 2026-09-28 03:20｜北海岸三點即時共用富貴角（只顯示一點）｜後龍／假日之森共用新竹略偏移｜綠&lt;8kt／黃8–14／紅≥15</text>
</svg>