<svg id="wws-svg" xmlns="http://www.w3.org/2000/svg" viewBox="0 0 980 600" role="img" aria-label="風速與浪高散佈圖，可拖曳時間軸切換預報時次" style="width:100%;height:auto;display:block">
<rect width="980" height="600" fill="#0b1220" rx="16"/>
<rect x="58" y="58" width="880" height="460" fill="#111a2e" rx="8"/>
<rect x="58.0" y="58" width="230.8" height="460" fill="#34d399" opacity="0.07"/>
<rect x="288.8" y="58" width="202.0" height="460" fill="#fbbf24" opacity="0.07"/>
<rect x="490.8" y="58" width="447.2" height="460" fill="#fb7185" opacity="0.07"/>
<defs><marker id="arrow-38bdf8" viewBox="0 0 10 10" refX="8" refY="5" markerWidth="6" markerHeight="6" orient="auto-start-reverse"><path d="M0,0 L10,5 L0,10 z" fill="#38bdf8"/></marker><marker id="arrow-fbbf24" viewBox="0 0 10 10" refX="8" refY="5" markerWidth="6" markerHeight="6" orient="auto-start-reverse"><path d="M0,0 L10,5 L0,10 z" fill="#fbbf24"/></marker></defs>
<text id="wws-title" x="58" y="24" fill="#e2e8f0" font-size="16" font-weight="700" font-family="Noto Sans TC,system-ui,sans-serif">今日 15:00 風速 × 浪高　預報 vs 即時浮標</text>
<text x="58" y="44" fill="#8b9bb4" font-size="11" font-family="Noto Sans TC,system-ui,sans-serif">圓點＝預報 · 菱形＝即時 · 縮寫標在點旁 · 箭頭為去向（北風→朝南；北=0°、東=90°）· 青＝風 · 金＝浪 · 拖曳下方時間軸切換預報時次</text>
<line x1="58.0" y1="58" x2="58.0" y2="518" stroke="#1e3a5f" stroke-dasharray="4 4" opacity="0.7"/>
<text x="58.0" y="536" text-anchor="middle" fill="#8b9bb4" font-size="11">0</text>
<line x1="115.7" y1="58" x2="115.7" y2="518" stroke="#1e3a5f" stroke-dasharray="4 4" opacity="0.7"/>
<text x="115.7" y="536" text-anchor="middle" fill="#8b9bb4" font-size="11">2</text>
<line x1="173.4" y1="58" x2="173.4" y2="518" stroke="#1e3a5f" stroke-dasharray="4 4" opacity="0.7"/>
<text x="173.4" y="536" text-anchor="middle" fill="#8b9bb4" font-size="11">4</text>
<line x1="231.1" y1="58" x2="231.1" y2="518" stroke="#1e3a5f" stroke-dasharray="4 4" opacity="0.7"/>
<text x="231.1" y="536" text-anchor="middle" fill="#8b9bb4" font-size="11">6</text>
<line x1="288.8" y1="58" x2="288.8" y2="518" stroke="#1e3a5f" stroke-dasharray="4 4" opacity="0.7"/>
<text x="288.8" y="536" text-anchor="middle" fill="#8b9bb4" font-size="11">8</text>
<line x1="346.5" y1="58" x2="346.5" y2="518" stroke="#1e3a5f" stroke-dasharray="4 4" opacity="0.7"/>
<text x="346.5" y="536" text-anchor="middle" fill="#8b9bb4" font-size="11">10</text>
<line x1="404.2" y1="58" x2="404.2" y2="518" stroke="#1e3a5f" stroke-dasharray="4 4" opacity="0.7"/>
<text x="404.2" y="536" text-anchor="middle" fill="#8b9bb4" font-size="11">12</text>
<line x1="461.9" y1="58" x2="461.9" y2="518" stroke="#1e3a5f" stroke-dasharray="4 4" opacity="0.7"/>
<text x="461.9" y="536" text-anchor="middle" fill="#8b9bb4" font-size="11">14</text>
<line x1="519.6" y1="58" x2="519.6" y2="518" stroke="#1e3a5f" stroke-dasharray="4 4" opacity="0.7"/>
<text x="519.6" y="536" text-anchor="middle" fill="#8b9bb4" font-size="11">16</text>
<line x1="577.3" y1="58" x2="577.3" y2="518" stroke="#1e3a5f" stroke-dasharray="4 4" opacity="0.7"/>
<text x="577.3" y="536" text-anchor="middle" fill="#8b9bb4" font-size="11">18</text>
<line x1="635.0" y1="58" x2="635.0" y2="518" stroke="#1e3a5f" stroke-dasharray="4 4" opacity="0.7"/>
<text x="635.0" y="536" text-anchor="middle" fill="#8b9bb4" font-size="11">20</text>
<line x1="692.8" y1="58" x2="692.8" y2="518" stroke="#1e3a5f" stroke-dasharray="4 4" opacity="0.7"/>
<text x="692.8" y="536" text-anchor="middle" fill="#8b9bb4" font-size="11">22</text>
<line x1="750.5" y1="58" x2="750.5" y2="518" stroke="#1e3a5f" stroke-dasharray="4 4" opacity="0.7"/>
<text x="750.5" y="536" text-anchor="middle" fill="#8b9bb4" font-size="11">24</text>
<line x1="808.2" y1="58" x2="808.2" y2="518" stroke="#1e3a5f" stroke-dasharray="4 4" opacity="0.7"/>
<text x="808.2" y="536" text-anchor="middle" fill="#8b9bb4" font-size="11">26</text>
<line x1="865.9" y1="58" x2="865.9" y2="518" stroke="#1e3a5f" stroke-dasharray="4 4" opacity="0.7"/>
<text x="865.9" y="536" text-anchor="middle" fill="#8b9bb4" font-size="11">28</text>
<line x1="923.6" y1="58" x2="923.6" y2="518" stroke="#1e3a5f" stroke-dasharray="4 4" opacity="0.7"/>
<text x="923.6" y="536" text-anchor="middle" fill="#8b9bb4" font-size="11">30</text>
<line x1="58" y1="475.4" x2="938" y2="475.4" stroke="#1e3a5f" stroke-dasharray="4 4" opacity="0.5"/>
<text x="50" y="475.4" text-anchor="end" dominant-baseline="middle" fill="#8b9bb4" font-size="11">0.5</text>
<line x1="58" y1="441.3" x2="938" y2="441.3" stroke="#1e3a5f" stroke-dasharray="4 4" opacity="0.5"/>
<text x="50" y="441.3" text-anchor="end" dominant-baseline="middle" fill="#8b9bb4" font-size="11">0.7</text>
<line x1="58" y1="407.3" x2="938" y2="407.3" stroke="#1e3a5f" stroke-dasharray="4 4" opacity="0.5"/>
<text x="50" y="407.3" text-anchor="end" dominant-baseline="middle" fill="#8b9bb4" font-size="11">0.9</text>
<line x1="58" y1="373.2" x2="938" y2="373.2" stroke="#1e3a5f" stroke-dasharray="4 4" opacity="0.5"/>
<text x="50" y="373.2" text-anchor="end" dominant-baseline="middle" fill="#8b9bb4" font-size="11">1.1</text>
<line x1="58" y1="356.1" x2="938" y2="356.1" stroke="#1e3a5f" stroke-dasharray="4 4" opacity="0.5"/>
<text x="50" y="356.1" text-anchor="end" dominant-baseline="middle" fill="#8b9bb4" font-size="11">1.2</text>
<line x1="58" y1="305.0" x2="938" y2="305.0" stroke="#1e3a5f" stroke-dasharray="4 4" opacity="0.5"/>
<text x="50" y="305.0" text-anchor="end" dominant-baseline="middle" fill="#8b9bb4" font-size="11">1.5</text>
<line x1="58" y1="271.0" x2="938" y2="271.0" stroke="#1e3a5f" stroke-dasharray="4 4" opacity="0.5"/>
<text x="50" y="271.0" text-anchor="end" dominant-baseline="middle" fill="#8b9bb4" font-size="11">1.7</text>
<line x1="58" y1="236.9" x2="938" y2="236.9" stroke="#1e3a5f" stroke-dasharray="4 4" opacity="0.5"/>
<text x="50" y="236.9" text-anchor="end" dominant-baseline="middle" fill="#8b9bb4" font-size="11">1.9</text>
<line x1="58" y1="219.9" x2="938" y2="219.9" stroke="#1e3a5f" stroke-dasharray="4 4" opacity="0.5"/>
<text x="50" y="219.9" text-anchor="end" dominant-baseline="middle" fill="#8b9bb4" font-size="11">2.0</text>
<line x1="58" y1="185.8" x2="938" y2="185.8" stroke="#1e3a5f" stroke-dasharray="4 4" opacity="0.5"/>
<text x="50" y="185.8" text-anchor="end" dominant-baseline="middle" fill="#8b9bb4" font-size="11">2.2</text>
<line x1="58" y1="134.7" x2="938" y2="134.7" stroke="#1e3a5f" stroke-dasharray="4 4" opacity="0.5"/>
<text x="50" y="134.7" text-anchor="end" dominant-baseline="middle" fill="#8b9bb4" font-size="11">2.5</text>
<line x1="58" y1="100.6" x2="938" y2="100.6" stroke="#1e3a5f" stroke-dasharray="4 4" opacity="0.5"/>
<text x="50" y="100.6" text-anchor="end" dominant-baseline="middle" fill="#8b9bb4" font-size="11">2.7</text>
<line x1="58" y1="66.5" x2="938" y2="66.5" stroke="#1e3a5f" stroke-dasharray="4 4" opacity="0.5"/>
<text x="50" y="66.5" text-anchor="end" dominant-baseline="middle" fill="#8b9bb4" font-size="11">2.9</text>
<text x="498" y="552" text-anchor="middle" fill="#e2e8f0" font-size="12">風速（kt）</text>
<text x="52" y="54" text-anchor="end" fill="#8b9bb4" font-size="11">浪高 m</text>
<g id="wws-forecast-layer">
<line x1="737.8" y1="244.7" x2="723.6" y2="272.5" stroke="#38bdf8" stroke-width="2.4" marker-end="url(#arrow-38bdf8)" /><line x1="737.0" y1="244.3" x2="720.0" y2="270.4" stroke="#fbbf24" stroke-width="2.4" marker-end="url(#arrow-fbbf24)" /><circle cx="741.8" cy="236.9" r="8.0" fill="#38bdf8" stroke="#fff" stroke-width="1.6" opacity="0.95"/>
<line x1="619.5" y1="295.8" x2="605.3" y2="323.6" stroke="#38bdf8" stroke-width="2.4" marker-end="url(#arrow-38bdf8)" /><line x1="618.2" y1="295.0" x2="599.4" y2="319.9" stroke="#fbbf24" stroke-width="2.4" marker-end="url(#arrow-fbbf24)" /><circle cx="623.5" cy="288.0" r="8.0" fill="#2dd4bf" stroke="#fff" stroke-width="1.6" opacity="0.95"/>
<line x1="649.6" y1="228.2" x2="640.0" y2="257.9" stroke="#38bdf8" stroke-width="2.4" marker-end="url(#arrow-38bdf8)" /><line x1="648.9" y1="228.0" x2="636.7" y2="256.7" stroke="#fbbf24" stroke-width="2.4" marker-end="url(#arrow-fbbf24)" /><circle cx="652.4" cy="219.9" r="8.0" fill="#fbbf24" stroke="#fff" stroke-width="1.6" opacity="0.95"/>
<line x1="389.8" y1="345.8" x2="369.3" y2="369.3" stroke="#38bdf8" stroke-width="2.4" marker-end="url(#arrow-38bdf8)" /><line x1="388.1" y1="343.8" x2="361.7" y2="360.3" stroke="#fbbf24" stroke-width="2.4" marker-end="url(#arrow-fbbf24)" /><circle cx="395.6" cy="339.1" r="8.0" fill="#4ade80" stroke="#fff" stroke-width="1.6" opacity="0.95"/>
<line x1="364.0" y1="362.9" x2="343.9" y2="386.8" stroke="#38bdf8" stroke-width="2.4" marker-end="url(#arrow-38bdf8)" /><line x1="362.0" y1="360.5" x2="335.0" y2="376.1" stroke="#fbbf24" stroke-width="2.4" marker-end="url(#arrow-fbbf24)" /><circle cx="369.6" cy="356.1" r="8.0" fill="#22d3ee" stroke="#fff" stroke-width="1.6" opacity="0.95"/>
<line x1="438.3" y1="345.2" x2="415.8" y2="366.9" stroke="#38bdf8" stroke-width="2.4" marker-end="url(#arrow-38bdf8)" /><line x1="437.2" y1="343.9" x2="411.1" y2="360.9" stroke="#fbbf24" stroke-width="2.4" marker-end="url(#arrow-fbbf24)" /><circle cx="444.6" cy="339.1" r="8.0" fill="#fb923c" stroke="#fff" stroke-width="1.6" opacity="0.95"/>
<line x1="261.6" y1="364.8" x2="267.6" y2="395.4" stroke="#38bdf8" stroke-width="2.4" marker-end="url(#arrow-38bdf8)" /><line x1="252.1" y1="360.0" x2="224.0" y2="373.7" stroke="#fbbf24" stroke-width="2.4" marker-end="url(#arrow-fbbf24)" /><circle cx="260.0" cy="356.1" r="8.0" fill="#a78bfa" stroke="#fff" stroke-width="1.6" opacity="0.95"/>
<line x1="153.5" y1="415.7" x2="144.4" y2="445.5" stroke="#38bdf8" stroke-width="2.4" marker-end="url(#arrow-38bdf8)" /><line x1="147.6" y1="409.5" x2="117.5" y2="417.6" stroke="#fbbf24" stroke-width="2.4" marker-end="url(#arrow-fbbf24)" /><circle cx="156.1" cy="407.3" r="8.0" fill="#f472b6" stroke="#fff" stroke-width="1.6" opacity="0.95"/>
<text x="755.8" y="226.9" text-anchor="start" dominant-baseline="central" fill="#38bdf8" font-size="11" font-weight="700" font-family="Noto Sans TC,system-ui,sans-serif" stroke="#0b1220" stroke-width="3" paint-order="stroke">後龍</text>
<text x="637.5" y="300.0" text-anchor="start" dominant-baseline="central" fill="#2dd4bf" font-size="11" font-weight="700" font-family="Noto Sans TC,system-ui,sans-serif" stroke="#0b1220" stroke-width="3" paint-order="stroke">假森</text>
<text x="666.4" y="209.9" text-anchor="start" dominant-baseline="central" fill="#fbbf24" font-size="11" font-weight="700" font-family="Noto Sans TC,system-ui,sans-serif" stroke="#0b1220" stroke-width="3" paint-order="stroke">松柏</text>
<text x="409.6" y="329.1" text-anchor="start" dominant-baseline="central" fill="#4ade80" font-size="11" font-weight="700" font-family="Noto Sans TC,system-ui,sans-serif" stroke="#0b1220" stroke-width="3" paint-order="stroke">中角</text>
<text x="383.6" y="368.1" text-anchor="start" dominant-baseline="central" fill="#22d3ee" font-size="11" font-weight="700" font-family="Noto Sans TC,system-ui,sans-serif" stroke="#0b1220" stroke-width="3" paint-order="stroke">翡灣</text>
<text x="430.6" y="329.1" text-anchor="end" dominant-baseline="central" fill="#fb923c" font-size="11" font-weight="700" font-family="Noto Sans TC,system-ui,sans-serif" stroke="#0b1220" stroke-width="3" paint-order="stroke">石門</text>
<text x="274.0" y="346.1" text-anchor="start" dominant-baseline="central" fill="#a78bfa" font-size="11" font-weight="700" font-family="Noto Sans TC,system-ui,sans-serif" stroke="#0b1220" stroke-width="3" paint-order="stroke">無尾</text>
<text x="170.1" y="419.3" text-anchor="start" dominant-baseline="central" fill="#f472b6" font-size="11" font-weight="700" font-family="Noto Sans TC,system-ui,sans-serif" stroke="#0b1220" stroke-width="3" paint-order="stroke">烏石</text>
</g>
<g id="wws-live-layer">
<line x1="420.7" y1="356.1" x2="400.7" y2="380.0" stroke="#38bdf8" stroke-width="2.4" marker-end="url(#arrow-38bdf8)" /><line x1="424.7" y1="358.0" x2="418.8" y2="388.6" stroke="#fbbf24" stroke-width="2.4" marker-end="url(#arrow-fbbf24)" /><polygon points="426.4,340.1 435.6,349.3 426.4,358.5 417.2,349.3" fill="#38bdf8" stroke="#fff" stroke-width="1.5" opacity="0.92"/>
<line x1="446.7" y1="369.7" x2="426.6" y2="393.6" stroke="#38bdf8" stroke-width="2.4" marker-end="url(#arrow-38bdf8)" /><line x1="450.7" y1="371.6" x2="444.7" y2="402.2" stroke="#fbbf24" stroke-width="2.4" marker-end="url(#arrow-fbbf24)" /><polygon points="452.4,353.8 461.6,363.0 452.4,372.2 443.2,363.0" fill="#2dd4bf" stroke="#fff" stroke-width="1.5" opacity="0.92"/>
<line x1="427.7" y1="328.4" x2="406.0" y2="350.8" stroke="#38bdf8" stroke-width="2.4" marker-end="url(#arrow-38bdf8)" /><line x1="432.1" y1="330.7" x2="426.1" y2="361.3" stroke="#fbbf24" stroke-width="2.4" marker-end="url(#arrow-fbbf24)" /><polygon points="433.8,312.9 443.0,322.1 433.8,331.3 424.6,322.1" fill="#fbbf24" stroke="#fff" stroke-width="1.5" opacity="0.92"/>
<line x1="447.6" y1="375.2" x2="417.2" y2="382.2" stroke="#38bdf8" stroke-width="2.4" marker-end="url(#arrow-38bdf8)" /><line x1="452.9" y1="381.3" x2="441.2" y2="410.3" stroke="#fbbf24" stroke-width="2.4" marker-end="url(#arrow-fbbf24)" /><polygon points="456.2,364.0 465.4,373.2 456.2,382.4 447.0,373.2" fill="#86efac" stroke="#fff" stroke-width="1.5" opacity="0.92"/>
<line x1="319.2" y1="407.0" x2="350.4" y2="405.9" stroke="#38bdf8" stroke-width="2.4" marker-end="url(#arrow-38bdf8)" /><line x1="302.3" y1="410.7" x2="273.6" y2="422.9" stroke="#fbbf24" stroke-width="2.4" marker-end="url(#arrow-fbbf24)" /><polygon points="310.4,398.1 319.6,407.3 310.4,416.5 301.2,407.3" fill="#a78bfa" stroke="#fff" stroke-width="1.5" opacity="0.92"/>
<line x1="334.6" y1="436.5" x2="360.8" y2="419.5" stroke="#38bdf8" stroke-width="2.4" marker-end="url(#arrow-38bdf8)" /><line x1="323.9" y1="449.5" x2="312.2" y2="478.4" stroke="#fbbf24" stroke-width="2.4" marker-end="url(#arrow-fbbf24)" /><polygon points="327.2,432.1 336.4,441.3 327.2,450.5 318.0,441.3" fill="#f472b6" stroke="#fff" stroke-width="1.5" opacity="0.92"/>
<text x="412.4" y="361.3" text-anchor="end" dominant-baseline="central" fill="#38bdf8" font-size="11" font-weight="700" font-family="Noto Sans TC,system-ui,sans-serif" stroke="#0b1220" stroke-width="3" paint-order="stroke">後龍·即</text>
<text x="466.4" y="375.0" text-anchor="start" dominant-baseline="central" fill="#2dd4bf" font-size="11" font-weight="700" font-family="Noto Sans TC,system-ui,sans-serif" stroke="#0b1220" stroke-width="3" paint-order="stroke">假森·即</text>
<text x="419.8" y="312.1" text-anchor="end" dominant-baseline="central" fill="#fbbf24" font-size="11" font-weight="700" font-family="Noto Sans TC,system-ui,sans-serif" stroke="#0b1220" stroke-width="3" paint-order="stroke">松柏·即</text>
<text x="470.2" y="363.2" text-anchor="start" dominant-baseline="central" fill="#86efac" font-size="11" font-weight="700" font-family="Noto Sans TC,system-ui,sans-serif" stroke="#0b1220" stroke-width="3" paint-order="stroke">富貴·即</text>
<text x="324.4" y="419.3" text-anchor="start" dominant-baseline="central" fill="#a78bfa" font-size="11" font-weight="700" font-family="Noto Sans TC,system-ui,sans-serif" stroke="#0b1220" stroke-width="3" paint-order="stroke">無尾·即</text>
<text x="313.2" y="453.3" text-anchor="end" dominant-baseline="central" fill="#f472b6" font-size="11" font-weight="700" font-family="Noto Sans TC,system-ui,sans-serif" stroke="#0b1220" stroke-width="3" paint-order="stroke">烏石·即</text>
</g>
<circle cx="90" cy="568" r="7" fill="#94a3b8" stroke="#fff"/>
<text x="106" y="572" fill="#e2e8f0" font-size="11" font-family="Noto Sans TC,system-ui,sans-serif">預報</text>
<polygon points="160,561 167,568 160,575 153,568" fill="#94a3b8" stroke="#fff"/>
<text x="176" y="572" fill="#e2e8f0" font-size="11" font-family="Noto Sans TC,system-ui,sans-serif">即時</text>
<line x1="230" y1="568" x2="255" y2="568" stroke="#38bdf8" stroke-width="2.2"/>
<text x="262" y="572" fill="#e2e8f0" font-size="11" font-family="Noto Sans TC,system-ui,sans-serif">風向去向</text>
<line x1="340" y1="568" x2="365" y2="568" stroke="#fbbf24" stroke-width="2.2"/>
<text x="372" y="572" fill="#e2e8f0" font-size="11" font-family="Noto Sans TC,system-ui,sans-serif">浪向去向</text>
<text id="wws-foot" x="490" y="582" text-anchor="middle" fill="#64748b" font-size="10" font-family="Noto Sans TC,system-ui,sans-serif">預報 10/10 15:00 台北｜即時約 2026-10-10 09:23｜北海岸三點即時共用富貴角（只顯示一點）｜後龍／假日之森共用新竹略偏移｜綠&lt;8kt／黃8–14／紅≥15</text>
</svg>