<svg id="wws-svg" xmlns="http://www.w3.org/2000/svg" viewBox="0 0 980 600" role="img" aria-label="風速與浪高散佈圖，可拖曳時間軸切換預報時次" style="width:100%;height:auto;display:block">
<rect width="980" height="600" fill="#0b1220" rx="16"/>
<rect x="58" y="58" width="880" height="460" fill="#111a2e" rx="8"/>
<rect x="58.0" y="58" width="229.3" height="460" fill="#34d399" opacity="0.07"/>
<rect x="287.3" y="58" width="200.7" height="460" fill="#fbbf24" opacity="0.07"/>
<rect x="488.0" y="58" width="450.0" height="460" fill="#fb7185" opacity="0.07"/>
<defs><marker id="arrow-38bdf8" viewBox="0 0 10 10" refX="8" refY="5" markerWidth="6" markerHeight="6" orient="auto-start-reverse"><path d="M0,0 L10,5 L0,10 z" fill="#38bdf8"/></marker><marker id="arrow-fbbf24" viewBox="0 0 10 10" refX="8" refY="5" markerWidth="6" markerHeight="6" orient="auto-start-reverse"><path d="M0,0 L10,5 L0,10 z" fill="#fbbf24"/></marker></defs>
<text id="wws-title" x="58" y="24" fill="#e2e8f0" font-size="16" font-weight="700" font-family="Noto Sans TC,system-ui,sans-serif">今日 15:00 風速 × 浪高　預報 vs 即時浮標</text>
<text x="58" y="44" fill="#8b9bb4" font-size="11" font-family="Noto Sans TC,system-ui,sans-serif">圓點＝預報 · 菱形＝即時 · 縮寫標在點旁 · 箭頭為去向（北風→朝南；北=0°、東=90°）· 青＝風 · 金＝浪 · 拖曳下方時間軸切換預報時次</text>
<line x1="58.0" y1="58" x2="58.0" y2="518" stroke="#1e3a5f" stroke-dasharray="4 4" opacity="0.7"/>
<text x="58.0" y="536" text-anchor="middle" fill="#8b9bb4" font-size="11">0</text>
<line x1="115.3" y1="58" x2="115.3" y2="518" stroke="#1e3a5f" stroke-dasharray="4 4" opacity="0.7"/>
<text x="115.3" y="536" text-anchor="middle" fill="#8b9bb4" font-size="11">2</text>
<line x1="172.7" y1="58" x2="172.7" y2="518" stroke="#1e3a5f" stroke-dasharray="4 4" opacity="0.7"/>
<text x="172.7" y="536" text-anchor="middle" fill="#8b9bb4" font-size="11">4</text>
<line x1="230.0" y1="58" x2="230.0" y2="518" stroke="#1e3a5f" stroke-dasharray="4 4" opacity="0.7"/>
<text x="230.0" y="536" text-anchor="middle" fill="#8b9bb4" font-size="11">6</text>
<line x1="287.3" y1="58" x2="287.3" y2="518" stroke="#1e3a5f" stroke-dasharray="4 4" opacity="0.7"/>
<text x="287.3" y="536" text-anchor="middle" fill="#8b9bb4" font-size="11">8</text>
<line x1="344.6" y1="58" x2="344.6" y2="518" stroke="#1e3a5f" stroke-dasharray="4 4" opacity="0.7"/>
<text x="344.6" y="536" text-anchor="middle" fill="#8b9bb4" font-size="11">10</text>
<line x1="402.0" y1="58" x2="402.0" y2="518" stroke="#1e3a5f" stroke-dasharray="4 4" opacity="0.7"/>
<text x="402.0" y="536" text-anchor="middle" fill="#8b9bb4" font-size="11">12</text>
<line x1="459.3" y1="58" x2="459.3" y2="518" stroke="#1e3a5f" stroke-dasharray="4 4" opacity="0.7"/>
<text x="459.3" y="536" text-anchor="middle" fill="#8b9bb4" font-size="11">14</text>
<line x1="516.6" y1="58" x2="516.6" y2="518" stroke="#1e3a5f" stroke-dasharray="4 4" opacity="0.7"/>
<text x="516.6" y="536" text-anchor="middle" fill="#8b9bb4" font-size="11">16</text>
<line x1="574.0" y1="58" x2="574.0" y2="518" stroke="#1e3a5f" stroke-dasharray="4 4" opacity="0.7"/>
<text x="574.0" y="536" text-anchor="middle" fill="#8b9bb4" font-size="11">18</text>
<line x1="631.3" y1="58" x2="631.3" y2="518" stroke="#1e3a5f" stroke-dasharray="4 4" opacity="0.7"/>
<text x="631.3" y="536" text-anchor="middle" fill="#8b9bb4" font-size="11">20</text>
<line x1="688.6" y1="58" x2="688.6" y2="518" stroke="#1e3a5f" stroke-dasharray="4 4" opacity="0.7"/>
<text x="688.6" y="536" text-anchor="middle" fill="#8b9bb4" font-size="11">22</text>
<line x1="745.9" y1="58" x2="745.9" y2="518" stroke="#1e3a5f" stroke-dasharray="4 4" opacity="0.7"/>
<text x="745.9" y="536" text-anchor="middle" fill="#8b9bb4" font-size="11">24</text>
<line x1="803.3" y1="58" x2="803.3" y2="518" stroke="#1e3a5f" stroke-dasharray="4 4" opacity="0.7"/>
<text x="803.3" y="536" text-anchor="middle" fill="#8b9bb4" font-size="11">26</text>
<line x1="860.6" y1="58" x2="860.6" y2="518" stroke="#1e3a5f" stroke-dasharray="4 4" opacity="0.7"/>
<text x="860.6" y="536" text-anchor="middle" fill="#8b9bb4" font-size="11">28</text>
<line x1="917.9" y1="58" x2="917.9" y2="518" stroke="#1e3a5f" stroke-dasharray="4 4" opacity="0.7"/>
<text x="917.9" y="536" text-anchor="middle" fill="#8b9bb4" font-size="11">30</text>
<line x1="58" y1="476.9" x2="938" y2="476.9" stroke="#1e3a5f" stroke-dasharray="4 4" opacity="0.5"/>
<text x="50" y="476.9" text-anchor="end" dominant-baseline="middle" fill="#8b9bb4" font-size="11">0.5</text>
<line x1="58" y1="444.1" x2="938" y2="444.1" stroke="#1e3a5f" stroke-dasharray="4 4" opacity="0.5"/>
<text x="50" y="444.1" text-anchor="end" dominant-baseline="middle" fill="#8b9bb4" font-size="11">0.7</text>
<line x1="58" y1="411.2" x2="938" y2="411.2" stroke="#1e3a5f" stroke-dasharray="4 4" opacity="0.5"/>
<text x="50" y="411.2" text-anchor="end" dominant-baseline="middle" fill="#8b9bb4" font-size="11">0.9</text>
<line x1="58" y1="378.4" x2="938" y2="378.4" stroke="#1e3a5f" stroke-dasharray="4 4" opacity="0.5"/>
<text x="50" y="378.4" text-anchor="end" dominant-baseline="middle" fill="#8b9bb4" font-size="11">1.1</text>
<line x1="58" y1="361.9" x2="938" y2="361.9" stroke="#1e3a5f" stroke-dasharray="4 4" opacity="0.5"/>
<text x="50" y="361.9" text-anchor="end" dominant-baseline="middle" fill="#8b9bb4" font-size="11">1.2</text>
<line x1="58" y1="312.6" x2="938" y2="312.6" stroke="#1e3a5f" stroke-dasharray="4 4" opacity="0.5"/>
<text x="50" y="312.6" text-anchor="end" dominant-baseline="middle" fill="#8b9bb4" font-size="11">1.5</text>
<line x1="58" y1="279.8" x2="938" y2="279.8" stroke="#1e3a5f" stroke-dasharray="4 4" opacity="0.5"/>
<text x="50" y="279.8" text-anchor="end" dominant-baseline="middle" fill="#8b9bb4" font-size="11">1.7</text>
<line x1="58" y1="246.9" x2="938" y2="246.9" stroke="#1e3a5f" stroke-dasharray="4 4" opacity="0.5"/>
<text x="50" y="246.9" text-anchor="end" dominant-baseline="middle" fill="#8b9bb4" font-size="11">1.9</text>
<line x1="58" y1="230.5" x2="938" y2="230.5" stroke="#1e3a5f" stroke-dasharray="4 4" opacity="0.5"/>
<text x="50" y="230.5" text-anchor="end" dominant-baseline="middle" fill="#8b9bb4" font-size="11">2.0</text>
<line x1="58" y1="197.6" x2="938" y2="197.6" stroke="#1e3a5f" stroke-dasharray="4 4" opacity="0.5"/>
<text x="50" y="197.6" text-anchor="end" dominant-baseline="middle" fill="#8b9bb4" font-size="11">2.2</text>
<line x1="58" y1="148.4" x2="938" y2="148.4" stroke="#1e3a5f" stroke-dasharray="4 4" opacity="0.5"/>
<text x="50" y="148.4" text-anchor="end" dominant-baseline="middle" fill="#8b9bb4" font-size="11">2.5</text>
<line x1="58" y1="115.5" x2="938" y2="115.5" stroke="#1e3a5f" stroke-dasharray="4 4" opacity="0.5"/>
<text x="50" y="115.5" text-anchor="end" dominant-baseline="middle" fill="#8b9bb4" font-size="11">2.7</text>
<line x1="58" y1="82.6" x2="938" y2="82.6" stroke="#1e3a5f" stroke-dasharray="4 4" opacity="0.5"/>
<text x="50" y="82.6" text-anchor="end" dominant-baseline="middle" fill="#8b9bb4" font-size="11">2.9</text>
<text x="498" y="552" text-anchor="middle" fill="#e2e8f0" font-size="12">風速（kt）</text>
<text x="52" y="54" text-anchor="end" fill="#8b9bb4" font-size="11">浪高 m</text>
<g id="wws-forecast-layer">
<line x1="736.4" y1="254.8" x2="722.7" y2="282.9" stroke="#38bdf8" stroke-width="2.4" marker-end="url(#arrow-38bdf8)" /><line x1="735.3" y1="254.2" x2="717.8" y2="280.1" stroke="#fbbf24" stroke-width="2.4" marker-end="url(#arrow-fbbf24)" /><circle cx="740.2" cy="246.9" r="8.0" fill="#38bdf8" stroke="#fff" stroke-width="1.6" opacity="0.95"/>
<line x1="616.0" y1="287.7" x2="602.3" y2="315.7" stroke="#38bdf8" stroke-width="2.4" marker-end="url(#arrow-38bdf8)" /><line x1="614.5" y1="286.8" x2="595.8" y2="311.7" stroke="#fbbf24" stroke-width="2.4" marker-end="url(#arrow-fbbf24)" /><circle cx="619.8" cy="279.8" r="8.0" fill="#2dd4bf" stroke="#fff" stroke-width="1.6" opacity="0.95"/>
<line x1="645.8" y1="222.4" x2="636.1" y2="252.1" stroke="#38bdf8" stroke-width="2.4" marker-end="url(#arrow-38bdf8)" /><line x1="645.1" y1="222.2" x2="632.9" y2="250.9" stroke="#fbbf24" stroke-width="2.4" marker-end="url(#arrow-fbbf24)" /><circle cx="648.5" cy="214.1" r="8.0" fill="#fbbf24" stroke="#fff" stroke-width="1.6" opacity="0.95"/>
<line x1="372.8" y1="351.7" x2="350.8" y2="373.8" stroke="#38bdf8" stroke-width="2.4" marker-end="url(#arrow-38bdf8)" /><line x1="371.6" y1="350.2" x2="345.1" y2="366.7" stroke="#fbbf24" stroke-width="2.4" marker-end="url(#arrow-fbbf24)" /><circle cx="379.0" cy="345.5" r="8.0" fill="#4ade80" stroke="#fff" stroke-width="1.6" opacity="0.95"/>
<line x1="347.1" y1="368.3" x2="325.5" y2="390.7" stroke="#38bdf8" stroke-width="2.4" marker-end="url(#arrow-38bdf8)" /><line x1="345.7" y1="366.5" x2="319.0" y2="382.5" stroke="#fbbf24" stroke-width="2.4" marker-end="url(#arrow-fbbf24)" /><circle cx="353.2" cy="361.9" r="8.0" fill="#22d3ee" stroke="#fff" stroke-width="1.6" opacity="0.95"/>
<line x1="432.6" y1="351.3" x2="409.0" y2="371.7" stroke="#38bdf8" stroke-width="2.4" marker-end="url(#arrow-38bdf8)" /><line x1="431.9" y1="350.3" x2="405.7" y2="367.3" stroke="#fbbf24" stroke-width="2.4" marker-end="url(#arrow-fbbf24)" /><circle cx="439.2" cy="345.5" r="8.0" fill="#fb923c" stroke="#fff" stroke-width="1.6" opacity="0.95"/>
<line x1="261.8" y1="387.2" x2="262.9" y2="418.3" stroke="#38bdf8" stroke-width="2.4" marker-end="url(#arrow-38bdf8)" /><line x1="253.5" y1="382.1" x2="225.3" y2="395.3" stroke="#fbbf24" stroke-width="2.4" marker-end="url(#arrow-fbbf24)" /><circle cx="261.5" cy="378.4" r="8.0" fill="#a78bfa" stroke="#fff" stroke-width="1.6" opacity="0.95"/>
<line x1="174.4" y1="419.1" x2="160.2" y2="446.9" stroke="#38bdf8" stroke-width="2.4" marker-end="url(#arrow-38bdf8)" /><line x1="169.9" y1="413.5" x2="139.8" y2="421.6" stroke="#fbbf24" stroke-width="2.4" marker-end="url(#arrow-fbbf24)" /><circle cx="178.4" cy="411.2" r="8.0" fill="#f472b6" stroke="#fff" stroke-width="1.6" opacity="0.95"/>
<text x="754.2" y="236.9" text-anchor="start" dominant-baseline="central" fill="#38bdf8" font-size="11" font-weight="700" font-family="Noto Sans TC,system-ui,sans-serif" stroke="#0b1220" stroke-width="3" paint-order="stroke">後龍</text>
<text x="633.8" y="291.8" text-anchor="start" dominant-baseline="central" fill="#2dd4bf" font-size="11" font-weight="700" font-family="Noto Sans TC,system-ui,sans-serif" stroke="#0b1220" stroke-width="3" paint-order="stroke">假森</text>
<text x="662.5" y="204.1" text-anchor="start" dominant-baseline="central" fill="#fbbf24" font-size="11" font-weight="700" font-family="Noto Sans TC,system-ui,sans-serif" stroke="#0b1220" stroke-width="3" paint-order="stroke">松柏</text>
<text x="393.0" y="335.5" text-anchor="start" dominant-baseline="central" fill="#4ade80" font-size="11" font-weight="700" font-family="Noto Sans TC,system-ui,sans-serif" stroke="#0b1220" stroke-width="3" paint-order="stroke">中角</text>
<text x="367.2" y="373.9" text-anchor="start" dominant-baseline="central" fill="#22d3ee" font-size="11" font-weight="700" font-family="Noto Sans TC,system-ui,sans-serif" stroke="#0b1220" stroke-width="3" paint-order="stroke">翡灣</text>
<text x="425.2" y="335.5" text-anchor="end" dominant-baseline="central" fill="#fb923c" font-size="11" font-weight="700" font-family="Noto Sans TC,system-ui,sans-serif" stroke="#0b1220" stroke-width="3" paint-order="stroke">石門</text>
<text x="275.5" y="368.4" text-anchor="start" dominant-baseline="central" fill="#a78bfa" font-size="11" font-weight="700" font-family="Noto Sans TC,system-ui,sans-serif" stroke="#0b1220" stroke-width="3" paint-order="stroke">無尾</text>
<text x="192.4" y="423.2" text-anchor="start" dominant-baseline="central" fill="#f472b6" font-size="11" font-weight="700" font-family="Noto Sans TC,system-ui,sans-serif" stroke="#0b1220" stroke-width="3" paint-order="stroke">烏石</text>
</g>
<g id="wws-live-layer">
<line x1="665.0" y1="264.6" x2="650.4" y2="292.1" stroke="#38bdf8" stroke-width="2.4" marker-end="url(#arrow-38bdf8)" /><line x1="667.5" y1="265.4" x2="661.5" y2="296.1" stroke="#fbbf24" stroke-width="2.4" marker-end="url(#arrow-fbbf24)" /><polygon points="669.2,247.6 678.4,256.8 669.2,266.0 660.0,256.8" fill="#38bdf8" stroke="#fff" stroke-width="1.5" opacity="0.92"/>
<line x1="690.8" y1="277.7" x2="676.2" y2="305.2" stroke="#38bdf8" stroke-width="2.4" marker-end="url(#arrow-38bdf8)" /><line x1="693.3" y1="278.6" x2="687.3" y2="309.2" stroke="#fbbf24" stroke-width="2.4" marker-end="url(#arrow-fbbf24)" /><polygon points="695.0,260.7 704.2,269.9 695.0,279.1 685.8,269.9" fill="#2dd4bf" stroke="#fff" stroke-width="1.5" opacity="0.92"/>
<line x1="749.4" y1="172.0" x2="731.5" y2="197.6" stroke="#38bdf8" stroke-width="2.4" marker-end="url(#arrow-38bdf8)" /><line x1="751.2" y1="172.9" x2="739.5" y2="201.9" stroke="#fbbf24" stroke-width="2.4" marker-end="url(#arrow-fbbf24)" /><polygon points="754.5,155.6 763.7,164.8 754.5,174.0 745.3,164.8" fill="#fbbf24" stroke="#fff" stroke-width="1.5" opacity="0.92"/>
<line x1="517.8" y1="397.8" x2="488.5" y2="408.5" stroke="#38bdf8" stroke-width="2.4" marker-end="url(#arrow-38bdf8)" /><line x1="524.4" y1="403.4" x2="518.4" y2="434.1" stroke="#fbbf24" stroke-width="2.4" marker-end="url(#arrow-fbbf24)" /><polygon points="526.0,385.6 535.2,394.8 526.0,404.0 516.8,394.8" fill="#86efac" stroke="#fff" stroke-width="1.5" opacity="0.92"/>
<line x1="329.5" y1="387.0" x2="324.1" y2="417.7" stroke="#38bdf8" stroke-width="2.4" marker-end="url(#arrow-38bdf8)" /><line x1="322.4" y1="380.2" x2="291.9" y2="386.7" stroke="#fbbf24" stroke-width="2.4" marker-end="url(#arrow-fbbf24)" /><polygon points="331.0,369.2 340.2,378.4 331.0,387.6 321.8,378.4" fill="#a78bfa" stroke="#fff" stroke-width="1.5" opacity="0.92"/>
<line x1="369.2" y1="450.1" x2="346.3" y2="471.4" stroke="#38bdf8" stroke-width="2.4" marker-end="url(#arrow-38bdf8)" /><line x1="367.5" y1="447.5" x2="338.8" y2="459.7" stroke="#fbbf24" stroke-width="2.4" marker-end="url(#arrow-fbbf24)" /><polygon points="375.6,434.9 384.8,444.1 375.6,453.3 366.4,444.1" fill="#f472b6" stroke="#fff" stroke-width="1.5" opacity="0.92"/>
<text x="655.2" y="268.8" text-anchor="end" dominant-baseline="central" fill="#38bdf8" font-size="11" font-weight="700" font-family="Noto Sans TC,system-ui,sans-serif" stroke="#0b1220" stroke-width="3" paint-order="stroke">後龍·即</text>
<text x="709.0" y="281.9" text-anchor="start" dominant-baseline="central" fill="#2dd4bf" font-size="11" font-weight="700" font-family="Noto Sans TC,system-ui,sans-serif" stroke="#0b1220" stroke-width="3" paint-order="stroke">假森·即</text>
<text x="740.5" y="154.8" text-anchor="end" dominant-baseline="central" fill="#fbbf24" font-size="11" font-weight="700" font-family="Noto Sans TC,system-ui,sans-serif" stroke="#0b1220" stroke-width="3" paint-order="stroke">松柏·即</text>
<text x="540.0" y="384.8" text-anchor="start" dominant-baseline="central" fill="#86efac" font-size="11" font-weight="700" font-family="Noto Sans TC,system-ui,sans-serif" stroke="#0b1220" stroke-width="3" paint-order="stroke">富貴·即</text>
<text x="345.0" y="390.4" text-anchor="start" dominant-baseline="central" fill="#a78bfa" font-size="11" font-weight="700" font-family="Noto Sans TC,system-ui,sans-serif" stroke="#0b1220" stroke-width="3" paint-order="stroke">無尾·即</text>
<text x="361.6" y="456.1" text-anchor="end" dominant-baseline="central" fill="#f472b6" font-size="11" font-weight="700" font-family="Noto Sans TC,system-ui,sans-serif" stroke="#0b1220" stroke-width="3" paint-order="stroke">烏石·即</text>
</g>
<circle cx="90" cy="568" r="7" fill="#94a3b8" stroke="#fff"/>
<text x="106" y="572" fill="#e2e8f0" font-size="11" font-family="Noto Sans TC,system-ui,sans-serif">預報</text>
<polygon points="160,561 167,568 160,575 153,568" fill="#94a3b8" stroke="#fff"/>
<text x="176" y="572" fill="#e2e8f0" font-size="11" font-family="Noto Sans TC,system-ui,sans-serif">即時</text>
<line x1="230" y1="568" x2="255" y2="568" stroke="#38bdf8" stroke-width="2.2"/>
<text x="262" y="572" fill="#e2e8f0" font-size="11" font-family="Noto Sans TC,system-ui,sans-serif">風向去向</text>
<line x1="340" y1="568" x2="365" y2="568" stroke="#fbbf24" stroke-width="2.2"/>
<text x="372" y="572" fill="#e2e8f0" font-size="11" font-family="Noto Sans TC,system-ui,sans-serif">浪向去向</text>
<text id="wws-foot" x="490" y="582" text-anchor="middle" fill="#64748b" font-size="10" font-family="Noto Sans TC,system-ui,sans-serif">預報 10/10 15:00 台北｜即時約 2026-10-10 18:17｜北海岸三點即時共用富貴角（只顯示一點）｜後龍／假日之森共用新竹略偏移｜綠&lt;8kt／黃8–14／紅≥15</text>
</svg>