<svg id="wws-svg" xmlns="http://www.w3.org/2000/svg" viewBox="0 0 980 600" role="img" aria-label="風速與浪高散佈圖，可拖曳時間軸切換預報時次" style="width:100%;height:auto;display:block">
<rect width="980" height="600" fill="#0b1220" rx="16"/>
<rect x="58" y="58" width="880" height="460" fill="#111a2e" rx="8"/>
<rect x="58.0" y="58" width="227.9" height="460" fill="#34d399" opacity="0.07"/>
<rect x="285.9" y="58" width="202.0" height="460" fill="#fbbf24" opacity="0.07"/>
<rect x="487.9" y="58" width="450.1" height="460" fill="#fb7185" opacity="0.07"/>
<defs><marker id="arrow-38bdf8" viewBox="0 0 10 10" refX="8" refY="5" markerWidth="6" markerHeight="6" orient="auto-start-reverse"><path d="M0,0 L10,5 L0,10 z" fill="#38bdf8"/></marker><marker id="arrow-fbbf24" viewBox="0 0 10 10" refX="8" refY="5" markerWidth="6" markerHeight="6" orient="auto-start-reverse"><path d="M0,0 L10,5 L0,10 z" fill="#fbbf24"/></marker></defs>
<text id="wws-title" x="58" y="24" fill="#e2e8f0" font-size="16" font-weight="700" font-family="Noto Sans TC,system-ui,sans-serif">今日 15:00 風速 × 浪高　預報 vs 即時浮標</text>
<text x="58" y="44" fill="#8b9bb4" font-size="11" font-family="Noto Sans TC,system-ui,sans-serif">圓點＝預報 · 菱形＝即時 · 縮寫標在點旁 · 箭頭為去向（北風→朝南；北=0°、東=90°）· 青＝風 · 金＝浪 · 拖曳下方時間軸切換預報時次</text>
<line x1="84.0" y1="58" x2="84.0" y2="518" stroke="#1e3a5f" stroke-dasharray="4 4" opacity="0.7"/>
<text x="84.0" y="536" text-anchor="middle" fill="#8b9bb4" font-size="11">1</text>
<line x1="141.7" y1="58" x2="141.7" y2="518" stroke="#1e3a5f" stroke-dasharray="4 4" opacity="0.7"/>
<text x="141.7" y="536" text-anchor="middle" fill="#8b9bb4" font-size="11">3</text>
<line x1="199.4" y1="58" x2="199.4" y2="518" stroke="#1e3a5f" stroke-dasharray="4 4" opacity="0.7"/>
<text x="199.4" y="536" text-anchor="middle" fill="#8b9bb4" font-size="11">5</text>
<line x1="257.1" y1="58" x2="257.1" y2="518" stroke="#1e3a5f" stroke-dasharray="4 4" opacity="0.7"/>
<text x="257.1" y="536" text-anchor="middle" fill="#8b9bb4" font-size="11">7</text>
<line x1="314.8" y1="58" x2="314.8" y2="518" stroke="#1e3a5f" stroke-dasharray="4 4" opacity="0.7"/>
<text x="314.8" y="536" text-anchor="middle" fill="#8b9bb4" font-size="11">9</text>
<line x1="372.5" y1="58" x2="372.5" y2="518" stroke="#1e3a5f" stroke-dasharray="4 4" opacity="0.7"/>
<text x="372.5" y="536" text-anchor="middle" fill="#8b9bb4" font-size="11">11</text>
<line x1="430.2" y1="58" x2="430.2" y2="518" stroke="#1e3a5f" stroke-dasharray="4 4" opacity="0.7"/>
<text x="430.2" y="536" text-anchor="middle" fill="#8b9bb4" font-size="11">13</text>
<line x1="487.9" y1="58" x2="487.9" y2="518" stroke="#1e3a5f" stroke-dasharray="4 4" opacity="0.7"/>
<text x="487.9" y="536" text-anchor="middle" fill="#8b9bb4" font-size="11">15</text>
<line x1="545.6" y1="58" x2="545.6" y2="518" stroke="#1e3a5f" stroke-dasharray="4 4" opacity="0.7"/>
<text x="545.6" y="536" text-anchor="middle" fill="#8b9bb4" font-size="11">17</text>
<line x1="603.3" y1="58" x2="603.3" y2="518" stroke="#1e3a5f" stroke-dasharray="4 4" opacity="0.7"/>
<text x="603.3" y="536" text-anchor="middle" fill="#8b9bb4" font-size="11">19</text>
<line x1="661.0" y1="58" x2="661.0" y2="518" stroke="#1e3a5f" stroke-dasharray="4 4" opacity="0.7"/>
<text x="661.0" y="536" text-anchor="middle" fill="#8b9bb4" font-size="11">21</text>
<line x1="718.7" y1="58" x2="718.7" y2="518" stroke="#1e3a5f" stroke-dasharray="4 4" opacity="0.7"/>
<text x="718.7" y="536" text-anchor="middle" fill="#8b9bb4" font-size="11">23</text>
<line x1="776.4" y1="58" x2="776.4" y2="518" stroke="#1e3a5f" stroke-dasharray="4 4" opacity="0.7"/>
<text x="776.4" y="536" text-anchor="middle" fill="#8b9bb4" font-size="11">25</text>
<line x1="834.1" y1="58" x2="834.1" y2="518" stroke="#1e3a5f" stroke-dasharray="4 4" opacity="0.7"/>
<text x="834.1" y="536" text-anchor="middle" fill="#8b9bb4" font-size="11">27</text>
<line x1="891.8" y1="58" x2="891.8" y2="518" stroke="#1e3a5f" stroke-dasharray="4 4" opacity="0.7"/>
<text x="891.8" y="536" text-anchor="middle" fill="#8b9bb4" font-size="11">29</text>
<line x1="58" y1="473.8" x2="938" y2="473.8" stroke="#1e3a5f" stroke-dasharray="4 4" opacity="0.5"/>
<text x="50" y="473.8" text-anchor="end" dominant-baseline="middle" fill="#8b9bb4" font-size="11">0.6</text>
<line x1="58" y1="438.4" x2="938" y2="438.4" stroke="#1e3a5f" stroke-dasharray="4 4" opacity="0.5"/>
<text x="50" y="438.4" text-anchor="end" dominant-baseline="middle" fill="#8b9bb4" font-size="11">0.8</text>
<line x1="58" y1="403.0" x2="938" y2="403.0" stroke="#1e3a5f" stroke-dasharray="4 4" opacity="0.5"/>
<text x="50" y="403.0" text-anchor="end" dominant-baseline="middle" fill="#8b9bb4" font-size="11">1.0</text>
<line x1="58" y1="385.3" x2="938" y2="385.3" stroke="#1e3a5f" stroke-dasharray="4 4" opacity="0.5"/>
<text x="50" y="385.3" text-anchor="end" dominant-baseline="middle" fill="#8b9bb4" font-size="11">1.1</text>
<line x1="58" y1="332.2" x2="938" y2="332.2" stroke="#1e3a5f" stroke-dasharray="4 4" opacity="0.5"/>
<text x="50" y="332.2" text-anchor="end" dominant-baseline="middle" fill="#8b9bb4" font-size="11">1.4</text>
<line x1="58" y1="296.8" x2="938" y2="296.8" stroke="#1e3a5f" stroke-dasharray="4 4" opacity="0.5"/>
<text x="50" y="296.8" text-anchor="end" dominant-baseline="middle" fill="#8b9bb4" font-size="11">1.6</text>
<line x1="58" y1="261.5" x2="938" y2="261.5" stroke="#1e3a5f" stroke-dasharray="4 4" opacity="0.5"/>
<text x="50" y="261.5" text-anchor="end" dominant-baseline="middle" fill="#8b9bb4" font-size="11">1.8</text>
<line x1="58" y1="226.1" x2="938" y2="226.1" stroke="#1e3a5f" stroke-dasharray="4 4" opacity="0.5"/>
<text x="50" y="226.1" text-anchor="end" dominant-baseline="middle" fill="#8b9bb4" font-size="11">2.0</text>
<line x1="58" y1="208.4" x2="938" y2="208.4" stroke="#1e3a5f" stroke-dasharray="4 4" opacity="0.5"/>
<text x="50" y="208.4" text-anchor="end" dominant-baseline="middle" fill="#8b9bb4" font-size="11">2.1</text>
<line x1="58" y1="155.3" x2="938" y2="155.3" stroke="#1e3a5f" stroke-dasharray="4 4" opacity="0.5"/>
<text x="50" y="155.3" text-anchor="end" dominant-baseline="middle" fill="#8b9bb4" font-size="11">2.4</text>
<line x1="58" y1="119.9" x2="938" y2="119.9" stroke="#1e3a5f" stroke-dasharray="4 4" opacity="0.5"/>
<text x="50" y="119.9" text-anchor="end" dominant-baseline="middle" fill="#8b9bb4" font-size="11">2.6</text>
<line x1="58" y1="84.5" x2="938" y2="84.5" stroke="#1e3a5f" stroke-dasharray="4 4" opacity="0.5"/>
<text x="50" y="84.5" text-anchor="end" dominant-baseline="middle" fill="#8b9bb4" font-size="11">2.8</text>
<text x="498" y="552" text-anchor="middle" fill="#e2e8f0" font-size="12">風速（kt）</text>
<text x="52" y="54" text-anchor="end" fill="#8b9bb4" font-size="11">浪高 m</text>
<g id="wws-forecast-layer">
<line x1="674.9" y1="304.9" x2="662.7" y2="333.7" stroke="#38bdf8" stroke-width="2.4" marker-end="url(#arrow-38bdf8)" /><line x1="673.7" y1="304.3" x2="657.1" y2="330.8" stroke="#fbbf24" stroke-width="2.4" marker-end="url(#arrow-fbbf24)" /><circle cx="678.3" cy="296.8" r="8.0" fill="#38bdf8" stroke="#fff" stroke-width="1.6" opacity="0.95"/>
<line x1="568.6" y1="340.5" x2="557.9" y2="369.8" stroke="#38bdf8" stroke-width="2.4" marker-end="url(#arrow-38bdf8)" /><line x1="566.7" y1="339.5" x2="549.2" y2="365.4" stroke="#fbbf24" stroke-width="2.4" marker-end="url(#arrow-fbbf24)" /><circle cx="571.6" cy="332.2" r="8.0" fill="#2dd4bf" stroke="#fff" stroke-width="1.6" opacity="0.95"/>
<line x1="580.4" y1="287.5" x2="570.8" y2="317.2" stroke="#38bdf8" stroke-width="2.4" marker-end="url(#arrow-38bdf8)" /><line x1="579.5" y1="287.2" x2="566.8" y2="315.7" stroke="#fbbf24" stroke-width="2.4" marker-end="url(#arrow-fbbf24)" /><circle cx="583.1" cy="279.2" r="8.0" fill="#fbbf24" stroke="#fff" stroke-width="1.6" opacity="0.95"/>
<line x1="309.0" y1="409.6" x2="288.5" y2="433.2" stroke="#38bdf8" stroke-width="2.4" marker-end="url(#arrow-38bdf8)" /><line x1="306.0" y1="403.9" x2="275.0" y2="407.2" stroke="#fbbf24" stroke-width="2.4" marker-end="url(#arrow-fbbf24)" /><circle cx="314.8" cy="403.0" r="8.0" fill="#4ade80" stroke="#fff" stroke-width="1.6" opacity="0.95"/>
<line x1="305.2" y1="413.6" x2="286.4" y2="438.5" stroke="#38bdf8" stroke-width="2.4" marker-end="url(#arrow-38bdf8)" /><line x1="301.7" y1="407.3" x2="270.6" y2="410.0" stroke="#fbbf24" stroke-width="2.4" marker-end="url(#arrow-fbbf24)" /><circle cx="310.5" cy="406.5" r="8.0" fill="#22d3ee" stroke="#fff" stroke-width="1.6" opacity="0.95"/>
<line x1="386.1" y1="408.9" x2="363.0" y2="429.8" stroke="#38bdf8" stroke-width="2.4" marker-end="url(#arrow-38bdf8)" /><line x1="384.1" y1="404.8" x2="353.6" y2="411.3" stroke="#fbbf24" stroke-width="2.4" marker-end="url(#arrow-fbbf24)" /><circle cx="392.7" cy="403.0" r="8.0" fill="#fb923c" stroke="#fff" stroke-width="1.6" opacity="0.95"/>
<line x1="427.9" y1="392.4" x2="409.6" y2="417.7" stroke="#38bdf8" stroke-width="2.4" marker-end="url(#arrow-38bdf8)" /><line x1="424.3" y1="385.2" x2="393.1" y2="384.6" stroke="#fbbf24" stroke-width="2.4" marker-end="url(#arrow-fbbf24)" /><circle cx="433.1" cy="385.3" r="8.0" fill="#a78bfa" stroke="#fff" stroke-width="1.6" opacity="0.95"/>
<line x1="296.8" y1="464.1" x2="284.1" y2="492.6" stroke="#38bdf8" stroke-width="2.4" marker-end="url(#arrow-38bdf8)" /><line x1="291.6" y1="456.2" x2="260.4" y2="456.8" stroke="#fbbf24" stroke-width="2.4" marker-end="url(#arrow-fbbf24)" /><circle cx="300.4" cy="456.1" r="8.0" fill="#f472b6" stroke="#fff" stroke-width="1.6" opacity="0.95"/>
<text x="692.3" y="286.8" text-anchor="start" dominant-baseline="central" fill="#38bdf8" font-size="11" font-weight="700" font-family="Noto Sans TC,system-ui,sans-serif" stroke="#0b1220" stroke-width="3" paint-order="stroke">後龍</text>
<text x="585.6" y="344.2" text-anchor="start" dominant-baseline="central" fill="#2dd4bf" font-size="11" font-weight="700" font-family="Noto Sans TC,system-ui,sans-serif" stroke="#0b1220" stroke-width="3" paint-order="stroke">假森</text>
<text x="597.1" y="269.2" text-anchor="start" dominant-baseline="central" fill="#fbbf24" font-size="11" font-weight="700" font-family="Noto Sans TC,system-ui,sans-serif" stroke="#0b1220" stroke-width="3" paint-order="stroke">松柏</text>
<text x="328.8" y="393.0" text-anchor="start" dominant-baseline="central" fill="#4ade80" font-size="11" font-weight="700" font-family="Noto Sans TC,system-ui,sans-serif" stroke="#0b1220" stroke-width="3" paint-order="stroke">中角</text>
<text x="324.5" y="418.5" text-anchor="start" dominant-baseline="central" fill="#22d3ee" font-size="11" font-weight="700" font-family="Noto Sans TC,system-ui,sans-serif" stroke="#0b1220" stroke-width="3" paint-order="stroke">翡灣</text>
<text x="378.7" y="393.0" text-anchor="end" dominant-baseline="central" fill="#fb923c" font-size="11" font-weight="700" font-family="Noto Sans TC,system-ui,sans-serif" stroke="#0b1220" stroke-width="3" paint-order="stroke">石門</text>
<text x="447.1" y="375.3" text-anchor="start" dominant-baseline="central" fill="#a78bfa" font-size="11" font-weight="700" font-family="Noto Sans TC,system-ui,sans-serif" stroke="#0b1220" stroke-width="3" paint-order="stroke">無尾</text>
<text x="314.4" y="468.1" text-anchor="start" dominant-baseline="central" fill="#f472b6" font-size="11" font-weight="700" font-family="Noto Sans TC,system-ui,sans-serif" stroke="#0b1220" stroke-width="3" paint-order="stroke">烏石</text>
</g>
<g id="wws-live-layer">
<line x1="422.8" y1="419.7" x2="400.3" y2="441.4" stroke="#38bdf8" stroke-width="2.4" marker-end="url(#arrow-38bdf8)" /><line x1="429.1" y1="422.4" x2="429.1" y2="453.6" stroke="#fbbf24" stroke-width="2.4" marker-end="url(#arrow-fbbf24)" /><polygon points="429.1,404.4 438.3,413.6 429.1,422.8 419.9,413.6" fill="#38bdf8" stroke="#fff" stroke-width="1.5" opacity="0.92"/>
<line x1="448.8" y1="433.9" x2="426.3" y2="455.6" stroke="#38bdf8" stroke-width="2.4" marker-end="url(#arrow-38bdf8)" /><line x1="455.1" y1="436.6" x2="455.1" y2="467.8" stroke="#fbbf24" stroke-width="2.4" marker-end="url(#arrow-fbbf24)" /><polygon points="455.1,418.6 464.3,427.8 455.1,437.0 445.9,427.8" fill="#2dd4bf" stroke="#fff" stroke-width="1.5" opacity="0.92"/>
<line x1="549.1" y1="357.0" x2="530.8" y2="382.3" stroke="#38bdf8" stroke-width="2.4" marker-end="url(#arrow-38bdf8)" /><line x1="552.6" y1="358.6" x2="546.6" y2="389.2" stroke="#fbbf24" stroke-width="2.4" marker-end="url(#arrow-fbbf24)" /><polygon points="554.3,340.7 563.5,349.9 554.3,359.1 545.1,349.9" fill="#fbbf24" stroke="#fff" stroke-width="1.5" opacity="0.92"/>
<line x1="304.5" y1="436.6" x2="274.0" y2="430.1" stroke="#38bdf8" stroke-width="2.4" marker-end="url(#arrow-38bdf8)" /><line x1="305.8" y1="443.3" x2="279.9" y2="460.8" stroke="#fbbf24" stroke-width="2.4" marker-end="url(#arrow-fbbf24)" /><polygon points="313.1,429.2 322.3,438.4 313.1,447.6 303.9,438.4" fill="#86efac" stroke="#fff" stroke-width="1.5" opacity="0.92"/>
<line x1="293.4" y1="405.7" x2="323.1" y2="415.4" stroke="#38bdf8" stroke-width="2.4" marker-end="url(#arrow-38bdf8)" /><line x1="277.8" y1="407.9" x2="251.9" y2="425.4" stroke="#fbbf24" stroke-width="2.4" marker-end="url(#arrow-fbbf24)" /><polygon points="285.1,393.8 294.3,403.0 285.1,412.2 275.9,403.0" fill="#a78bfa" stroke="#fff" stroke-width="1.5" opacity="0.92"/>
<line x1="342.2" y1="463.6" x2="326.2" y2="490.4" stroke="#38bdf8" stroke-width="2.4" marker-end="url(#arrow-38bdf8)" /><line x1="342.0" y1="463.5" x2="325.0" y2="489.6" stroke="#fbbf24" stroke-width="2.4" marker-end="url(#arrow-fbbf24)" /><polygon points="346.8,446.9 356.0,456.1 346.8,465.3 337.6,456.1" fill="#f472b6" stroke="#fff" stroke-width="1.5" opacity="0.92"/>
<text x="415.1" y="425.6" text-anchor="end" dominant-baseline="central" fill="#38bdf8" font-size="11" font-weight="700" font-family="Noto Sans TC,system-ui,sans-serif" stroke="#0b1220" stroke-width="3" paint-order="stroke">後龍·即</text>
<text x="469.1" y="439.8" text-anchor="start" dominant-baseline="central" fill="#2dd4bf" font-size="11" font-weight="700" font-family="Noto Sans TC,system-ui,sans-serif" stroke="#0b1220" stroke-width="3" paint-order="stroke">假森·即</text>
<text x="540.3" y="339.9" text-anchor="end" dominant-baseline="central" fill="#fbbf24" font-size="11" font-weight="700" font-family="Noto Sans TC,system-ui,sans-serif" stroke="#0b1220" stroke-width="3" paint-order="stroke">松柏·即</text>
<text x="327.1" y="428.4" text-anchor="start" dominant-baseline="central" fill="#86efac" font-size="11" font-weight="700" font-family="Noto Sans TC,system-ui,sans-serif" stroke="#0b1220" stroke-width="3" paint-order="stroke">富貴·即</text>
<text x="299.1" y="415.0" text-anchor="start" dominant-baseline="central" fill="#a78bfa" font-size="11" font-weight="700" font-family="Noto Sans TC,system-ui,sans-serif" stroke="#0b1220" stroke-width="3" paint-order="stroke">無尾·即</text>
<text x="332.8" y="468.1" text-anchor="end" dominant-baseline="central" fill="#f472b6" font-size="11" font-weight="700" font-family="Noto Sans TC,system-ui,sans-serif" stroke="#0b1220" stroke-width="3" paint-order="stroke">烏石·即</text>
</g>
<circle cx="90" cy="568" r="7" fill="#94a3b8" stroke="#fff"/>
<text x="106" y="572" fill="#e2e8f0" font-size="11" font-family="Noto Sans TC,system-ui,sans-serif">預報</text>
<polygon points="160,561 167,568 160,575 153,568" fill="#94a3b8" stroke="#fff"/>
<text x="176" y="572" fill="#e2e8f0" font-size="11" font-family="Noto Sans TC,system-ui,sans-serif">即時</text>
<line x1="230" y1="568" x2="255" y2="568" stroke="#38bdf8" stroke-width="2.2"/>
<text x="262" y="572" fill="#e2e8f0" font-size="11" font-family="Noto Sans TC,system-ui,sans-serif">風向去向</text>
<line x1="340" y1="568" x2="365" y2="568" stroke="#fbbf24" stroke-width="2.2"/>
<text x="372" y="572" fill="#e2e8f0" font-size="11" font-family="Noto Sans TC,system-ui,sans-serif">浪向去向</text>
<text id="wws-foot" x="490" y="582" text-anchor="middle" fill="#64748b" font-size="10" font-family="Noto Sans TC,system-ui,sans-serif">預報 10/11 15:00 台北｜即時約 2026-10-11 03:24｜北海岸三點即時共用富貴角（只顯示一點）｜後龍／假日之森共用新竹略偏移｜綠&lt;8kt／黃8–14／紅≥15</text>
</svg>