<svg id="wws-svg" xmlns="http://www.w3.org/2000/svg" viewBox="0 0 980 600" role="img" aria-label="風速與浪高散佈圖，可拖曳時間軸切換預報時次" style="width:100%;height:auto;display:block">
<rect width="980" height="600" fill="#0b1220" rx="16"/>
<rect x="58" y="58" width="880" height="460" fill="#111a2e" rx="8"/>
<rect x="58.0" y="58" width="204.1" height="460" fill="#34d399" opacity="0.07"/>
<rect x="262.1" y="58" width="178.6" height="460" fill="#fbbf24" opacity="0.07"/>
<rect x="440.6" y="58" width="497.4" height="460" fill="#fb7185" opacity="0.07"/>
<defs><marker id="arrow-38bdf8" viewBox="0 0 10 10" refX="8" refY="5" markerWidth="6" markerHeight="6" orient="auto-start-reverse"><path d="M0,0 L10,5 L0,10 z" fill="#38bdf8"/></marker><marker id="arrow-fbbf24" viewBox="0 0 10 10" refX="8" refY="5" markerWidth="6" markerHeight="6" orient="auto-start-reverse"><path d="M0,0 L10,5 L0,10 z" fill="#fbbf24"/></marker></defs>
<text id="wws-title" x="58" y="24" fill="#e2e8f0" font-size="16" font-weight="700" font-family="Noto Sans TC,system-ui,sans-serif">今日 15:00 風速 × 浪高　預報 vs 即時浮標</text>
<text x="58" y="44" fill="#8b9bb4" font-size="11" font-family="Noto Sans TC,system-ui,sans-serif">圓點＝預報 · 菱形＝即時 · 縮寫標在點旁 · 箭頭為去向（北風→朝南；北=0°、東=90°）· 青＝風 · 金＝浪 · 拖曳下方時間軸切換預報時次</text>
<line x1="58.0" y1="58" x2="58.0" y2="518" stroke="#1e3a5f" stroke-dasharray="4 4" opacity="0.7"/>
<text x="58.0" y="536" text-anchor="middle" fill="#8b9bb4" font-size="11">0</text>
<line x1="109.0" y1="58" x2="109.0" y2="518" stroke="#1e3a5f" stroke-dasharray="4 4" opacity="0.7"/>
<text x="109.0" y="536" text-anchor="middle" fill="#8b9bb4" font-size="11">2</text>
<line x1="160.0" y1="58" x2="160.0" y2="518" stroke="#1e3a5f" stroke-dasharray="4 4" opacity="0.7"/>
<text x="160.0" y="536" text-anchor="middle" fill="#8b9bb4" font-size="11">4</text>
<line x1="211.0" y1="58" x2="211.0" y2="518" stroke="#1e3a5f" stroke-dasharray="4 4" opacity="0.7"/>
<text x="211.0" y="536" text-anchor="middle" fill="#8b9bb4" font-size="11">6</text>
<line x1="262.1" y1="58" x2="262.1" y2="518" stroke="#1e3a5f" stroke-dasharray="4 4" opacity="0.7"/>
<text x="262.1" y="536" text-anchor="middle" fill="#8b9bb4" font-size="11">8</text>
<line x1="313.1" y1="58" x2="313.1" y2="518" stroke="#1e3a5f" stroke-dasharray="4 4" opacity="0.7"/>
<text x="313.1" y="536" text-anchor="middle" fill="#8b9bb4" font-size="11">10</text>
<line x1="364.1" y1="58" x2="364.1" y2="518" stroke="#1e3a5f" stroke-dasharray="4 4" opacity="0.7"/>
<text x="364.1" y="536" text-anchor="middle" fill="#8b9bb4" font-size="11">12</text>
<line x1="415.1" y1="58" x2="415.1" y2="518" stroke="#1e3a5f" stroke-dasharray="4 4" opacity="0.7"/>
<text x="415.1" y="536" text-anchor="middle" fill="#8b9bb4" font-size="11">14</text>
<line x1="466.1" y1="58" x2="466.1" y2="518" stroke="#1e3a5f" stroke-dasharray="4 4" opacity="0.7"/>
<text x="466.1" y="536" text-anchor="middle" fill="#8b9bb4" font-size="11">16</text>
<line x1="517.1" y1="58" x2="517.1" y2="518" stroke="#1e3a5f" stroke-dasharray="4 4" opacity="0.7"/>
<text x="517.1" y="536" text-anchor="middle" fill="#8b9bb4" font-size="11">18</text>
<line x1="568.1" y1="58" x2="568.1" y2="518" stroke="#1e3a5f" stroke-dasharray="4 4" opacity="0.7"/>
<text x="568.1" y="536" text-anchor="middle" fill="#8b9bb4" font-size="11">20</text>
<line x1="619.2" y1="58" x2="619.2" y2="518" stroke="#1e3a5f" stroke-dasharray="4 4" opacity="0.7"/>
<text x="619.2" y="536" text-anchor="middle" fill="#8b9bb4" font-size="11">22</text>
<line x1="670.2" y1="58" x2="670.2" y2="518" stroke="#1e3a5f" stroke-dasharray="4 4" opacity="0.7"/>
<text x="670.2" y="536" text-anchor="middle" fill="#8b9bb4" font-size="11">24</text>
<line x1="721.2" y1="58" x2="721.2" y2="518" stroke="#1e3a5f" stroke-dasharray="4 4" opacity="0.7"/>
<text x="721.2" y="536" text-anchor="middle" fill="#8b9bb4" font-size="11">26</text>
<line x1="772.2" y1="58" x2="772.2" y2="518" stroke="#1e3a5f" stroke-dasharray="4 4" opacity="0.7"/>
<text x="772.2" y="536" text-anchor="middle" fill="#8b9bb4" font-size="11">28</text>
<line x1="823.2" y1="58" x2="823.2" y2="518" stroke="#1e3a5f" stroke-dasharray="4 4" opacity="0.7"/>
<text x="823.2" y="536" text-anchor="middle" fill="#8b9bb4" font-size="11">30</text>
<line x1="874.2" y1="58" x2="874.2" y2="518" stroke="#1e3a5f" stroke-dasharray="4 4" opacity="0.7"/>
<text x="874.2" y="536" text-anchor="middle" fill="#8b9bb4" font-size="11">32</text>
<line x1="925.2" y1="58" x2="925.2" y2="518" stroke="#1e3a5f" stroke-dasharray="4 4" opacity="0.7"/>
<text x="925.2" y="536" text-anchor="middle" fill="#8b9bb4" font-size="11">34</text>
<line x1="58" y1="510.6" x2="938" y2="510.6" stroke="#1e3a5f" stroke-dasharray="4 4" opacity="0.5"/>
<text x="50" y="510.6" text-anchor="end" dominant-baseline="middle" fill="#8b9bb4" font-size="11">0.5</text>
<line x1="58" y1="480.9" x2="938" y2="480.9" stroke="#1e3a5f" stroke-dasharray="4 4" opacity="0.5"/>
<text x="50" y="480.9" text-anchor="end" dominant-baseline="middle" fill="#8b9bb4" font-size="11">0.7</text>
<line x1="58" y1="451.2" x2="938" y2="451.2" stroke="#1e3a5f" stroke-dasharray="4 4" opacity="0.5"/>
<text x="50" y="451.2" text-anchor="end" dominant-baseline="middle" fill="#8b9bb4" font-size="11">0.9</text>
<line x1="58" y1="421.5" x2="938" y2="421.5" stroke="#1e3a5f" stroke-dasharray="4 4" opacity="0.5"/>
<text x="50" y="421.5" text-anchor="end" dominant-baseline="middle" fill="#8b9bb4" font-size="11">1.1</text>
<line x1="58" y1="406.7" x2="938" y2="406.7" stroke="#1e3a5f" stroke-dasharray="4 4" opacity="0.5"/>
<text x="50" y="406.7" text-anchor="end" dominant-baseline="middle" fill="#8b9bb4" font-size="11">1.2</text>
<line x1="58" y1="362.2" x2="938" y2="362.2" stroke="#1e3a5f" stroke-dasharray="4 4" opacity="0.5"/>
<text x="50" y="362.2" text-anchor="end" dominant-baseline="middle" fill="#8b9bb4" font-size="11">1.5</text>
<line x1="58" y1="332.5" x2="938" y2="332.5" stroke="#1e3a5f" stroke-dasharray="4 4" opacity="0.5"/>
<text x="50" y="332.5" text-anchor="end" dominant-baseline="middle" fill="#8b9bb4" font-size="11">1.7</text>
<line x1="58" y1="302.8" x2="938" y2="302.8" stroke="#1e3a5f" stroke-dasharray="4 4" opacity="0.5"/>
<text x="50" y="302.8" text-anchor="end" dominant-baseline="middle" fill="#8b9bb4" font-size="11">1.9</text>
<line x1="58" y1="273.2" x2="938" y2="273.2" stroke="#1e3a5f" stroke-dasharray="4 4" opacity="0.5"/>
<text x="50" y="273.2" text-anchor="end" dominant-baseline="middle" fill="#8b9bb4" font-size="11">2.1</text>
<line x1="58" y1="258.3" x2="938" y2="258.3" stroke="#1e3a5f" stroke-dasharray="4 4" opacity="0.5"/>
<text x="50" y="258.3" text-anchor="end" dominant-baseline="middle" fill="#8b9bb4" font-size="11">2.2</text>
<line x1="58" y1="213.8" x2="938" y2="213.8" stroke="#1e3a5f" stroke-dasharray="4 4" opacity="0.5"/>
<text x="50" y="213.8" text-anchor="end" dominant-baseline="middle" fill="#8b9bb4" font-size="11">2.5</text>
<line x1="58" y1="184.1" x2="938" y2="184.1" stroke="#1e3a5f" stroke-dasharray="4 4" opacity="0.5"/>
<text x="50" y="184.1" text-anchor="end" dominant-baseline="middle" fill="#8b9bb4" font-size="11">2.7</text>
<line x1="58" y1="154.5" x2="938" y2="154.5" stroke="#1e3a5f" stroke-dasharray="4 4" opacity="0.5"/>
<text x="50" y="154.5" text-anchor="end" dominant-baseline="middle" fill="#8b9bb4" font-size="11">2.9</text>
<line x1="58" y1="124.8" x2="938" y2="124.8" stroke="#1e3a5f" stroke-dasharray="4 4" opacity="0.5"/>
<text x="50" y="124.8" text-anchor="end" dominant-baseline="middle" fill="#8b9bb4" font-size="11">3.1</text>
<line x1="58" y1="95.1" x2="938" y2="95.1" stroke="#1e3a5f" stroke-dasharray="4 4" opacity="0.5"/>
<text x="50" y="95.1" text-anchor="end" dominant-baseline="middle" fill="#8b9bb4" font-size="11">3.3</text>
<line x1="58" y1="65.4" x2="938" y2="65.4" stroke="#1e3a5f" stroke-dasharray="4 4" opacity="0.5"/>
<text x="50" y="65.4" text-anchor="end" dominant-baseline="middle" fill="#8b9bb4" font-size="11">3.5</text>
<text x="498" y="552" text-anchor="middle" fill="#e2e8f0" font-size="12">風速（kt）</text>
<text x="52" y="54" text-anchor="end" fill="#8b9bb4" font-size="11">浪高 m</text>
<g id="wws-forecast-layer">
<line x1="856.6" y1="146.9" x2="839.1" y2="172.8" stroke="#38bdf8" stroke-width="2.4" marker-end="url(#arrow-38bdf8)" /><line x1="857.5" y1="147.5" x2="843.3" y2="175.3" stroke="#fbbf24" stroke-width="2.4" marker-end="url(#arrow-fbbf24)" /><circle cx="861.5" cy="139.6" r="8.0" fill="#38bdf8" stroke="#fff" stroke-width="1.6" opacity="0.95"/>
<line x1="708.6" y1="221.1" x2="691.2" y2="247.0" stroke="#38bdf8" stroke-width="2.4" marker-end="url(#arrow-38bdf8)" /><line x1="709.5" y1="221.6" x2="695.4" y2="249.4" stroke="#fbbf24" stroke-width="2.4" marker-end="url(#arrow-fbbf24)" /><circle cx="713.5" cy="213.8" r="8.0" fill="#2dd4bf" stroke="#fff" stroke-width="1.6" opacity="0.95"/>
<line x1="730.2" y1="147.6" x2="717.0" y2="175.9" stroke="#38bdf8" stroke-width="2.4" marker-end="url(#arrow-38bdf8)" /><line x1="730.9" y1="147.9" x2="720.3" y2="177.2" stroke="#fbbf24" stroke-width="2.4" marker-end="url(#arrow-fbbf24)" /><circle cx="733.9" cy="139.6" r="8.0" fill="#fbbf24" stroke="#fff" stroke-width="1.6" opacity="0.95"/>
<line x1="472.3" y1="236.5" x2="458.2" y2="264.3" stroke="#38bdf8" stroke-width="2.4" marker-end="url(#arrow-38bdf8)" /><line x1="471.5" y1="236.0" x2="454.5" y2="262.2" stroke="#fbbf24" stroke-width="2.4" marker-end="url(#arrow-fbbf24)" /><circle cx="476.3" cy="228.6" r="8.0" fill="#4ade80" stroke="#fff" stroke-width="1.6" opacity="0.95"/>
<line x1="448.0" y1="254.2" x2="433.3" y2="281.8" stroke="#38bdf8" stroke-width="2.4" marker-end="url(#arrow-38bdf8)" /><line x1="447.2" y1="253.7" x2="429.7" y2="279.6" stroke="#fbbf24" stroke-width="2.4" marker-end="url(#arrow-fbbf24)" /><circle cx="452.1" cy="246.5" r="8.0" fill="#22d3ee" stroke="#fff" stroke-width="1.6" opacity="0.95"/>
<line x1="527.3" y1="235.8" x2="508.9" y2="261.0" stroke="#38bdf8" stroke-width="2.4" marker-end="url(#arrow-38bdf8)" /><line x1="527.8" y1="236.1" x2="511.2" y2="262.6" stroke="#fbbf24" stroke-width="2.4" marker-end="url(#arrow-fbbf24)" /><circle cx="532.4" cy="228.6" r="8.0" fill="#fb923c" stroke="#fff" stroke-width="1.6" opacity="0.95"/>
<line x1="428.0" y1="282.0" x2="428.6" y2="313.2" stroke="#38bdf8" stroke-width="2.4" marker-end="url(#arrow-38bdf8)" /><line x1="423.2" y1="280.6" x2="406.7" y2="307.1" stroke="#fbbf24" stroke-width="2.4" marker-end="url(#arrow-fbbf24)" /><circle cx="427.9" cy="273.2" r="8.0" fill="#a78bfa" stroke="#fff" stroke-width="1.6" opacity="0.95"/>
<line x1="260.7" y1="385.7" x2="255.8" y2="416.5" stroke="#38bdf8" stroke-width="2.4" marker-end="url(#arrow-38bdf8)" /><line x1="255.5" y1="382.9" x2="232.3" y2="403.8" stroke="#fbbf24" stroke-width="2.4" marker-end="url(#arrow-fbbf24)" /><circle cx="262.1" cy="377.0" r="8.0" fill="#f472b6" stroke="#fff" stroke-width="1.6" opacity="0.95"/>
<text x="875.5" y="129.6" text-anchor="start" dominant-baseline="central" fill="#38bdf8" font-size="11" font-weight="700" font-family="Noto Sans TC,system-ui,sans-serif" stroke="#0b1220" stroke-width="3" paint-order="stroke">後龍</text>
<text x="727.5" y="225.8" text-anchor="start" dominant-baseline="central" fill="#2dd4bf" font-size="11" font-weight="700" font-family="Noto Sans TC,system-ui,sans-serif" stroke="#0b1220" stroke-width="3" paint-order="stroke">假森</text>
<text x="747.9" y="129.6" text-anchor="start" dominant-baseline="central" fill="#fbbf24" font-size="11" font-weight="700" font-family="Noto Sans TC,system-ui,sans-serif" stroke="#0b1220" stroke-width="3" paint-order="stroke">松柏</text>
<text x="490.3" y="218.6" text-anchor="start" dominant-baseline="central" fill="#4ade80" font-size="11" font-weight="700" font-family="Noto Sans TC,system-ui,sans-serif" stroke="#0b1220" stroke-width="3" paint-order="stroke">中角</text>
<text x="466.1" y="258.5" text-anchor="start" dominant-baseline="central" fill="#22d3ee" font-size="11" font-weight="700" font-family="Noto Sans TC,system-ui,sans-serif" stroke="#0b1220" stroke-width="3" paint-order="stroke">翡灣</text>
<text x="518.4" y="218.6" text-anchor="end" dominant-baseline="central" fill="#fb923c" font-size="11" font-weight="700" font-family="Noto Sans TC,system-ui,sans-serif" stroke="#0b1220" stroke-width="3" paint-order="stroke">石門</text>
<text x="441.9" y="263.2" text-anchor="start" dominant-baseline="central" fill="#a78bfa" font-size="11" font-weight="700" font-family="Noto Sans TC,system-ui,sans-serif" stroke="#0b1220" stroke-width="3" paint-order="stroke">無尾</text>
<text x="276.1" y="389.0" text-anchor="start" dominant-baseline="central" fill="#f472b6" font-size="11" font-weight="700" font-family="Noto Sans TC,system-ui,sans-serif" stroke="#0b1220" stroke-width="3" paint-order="stroke">烏石</text>
</g>
<g id="wws-live-layer">
<line x1="640.6" y1="303.4" x2="619.7" y2="326.6" stroke="#38bdf8" stroke-width="2.4" marker-end="url(#arrow-38bdf8)" /><line x1="644.8" y1="305.5" x2="638.8" y2="336.2" stroke="#fbbf24" stroke-width="2.4" marker-end="url(#arrow-fbbf24)" /><polygon points="646.5,287.7 655.7,296.9 646.5,306.1 637.3,296.9" fill="#38bdf8" stroke="#fff" stroke-width="1.5" opacity="0.92"/>
<line x1="663.5" y1="315.3" x2="642.7" y2="338.5" stroke="#38bdf8" stroke-width="2.4" marker-end="url(#arrow-38bdf8)" /><line x1="667.7" y1="317.4" x2="661.8" y2="348.0" stroke="#fbbf24" stroke-width="2.4" marker-end="url(#arrow-fbbf24)" /><polygon points="669.4,299.6 678.6,308.8 669.4,318.0 660.2,308.8" fill="#2dd4bf" stroke="#fff" stroke-width="1.5" opacity="0.92"/>
<line x1="807.4" y1="206.7" x2="792.3" y2="234.0" stroke="#38bdf8" stroke-width="2.4" marker-end="url(#arrow-38bdf8)" /><line x1="810.0" y1="207.6" x2="804.0" y2="238.2" stroke="#fbbf24" stroke-width="2.4" marker-end="url(#arrow-fbbf24)" /><polygon points="811.6,189.8 820.8,199.0 811.6,208.2 802.4,199.0" fill="#fbbf24" stroke="#fff" stroke-width="1.5" opacity="0.92"/>
<line x1="446.1" y1="260.3" x2="415.7" y2="267.3" stroke="#38bdf8" stroke-width="2.4" marker-end="url(#arrow-38bdf8)" /><line x1="449.9" y1="265.7" x2="432.9" y2="291.9" stroke="#fbbf24" stroke-width="2.4" marker-end="url(#arrow-fbbf24)" /><polygon points="454.7,249.1 463.9,258.3 454.7,267.5 445.5,258.3" fill="#86efac" stroke="#fff" stroke-width="1.5" opacity="0.92"/>
<line x1="428.0" y1="306.3" x2="456.8" y2="318.5" stroke="#38bdf8" stroke-width="2.4" marker-end="url(#arrow-38bdf8)" /><line x1="413.7" y1="309.1" x2="391.7" y2="331.1" stroke="#fbbf24" stroke-width="2.4" marker-end="url(#arrow-fbbf24)" /><polygon points="419.9,293.6 429.1,302.8 419.9,312.0 410.7,302.8" fill="#a78bfa" stroke="#fff" stroke-width="1.5" opacity="0.92"/>
<line x1="428.0" y1="415.3" x2="421.5" y2="445.8" stroke="#38bdf8" stroke-width="2.4" marker-end="url(#arrow-38bdf8)" /><line x1="423.6" y1="412.9" x2="401.6" y2="435.0" stroke="#fbbf24" stroke-width="2.4" marker-end="url(#arrow-fbbf24)" /><polygon points="429.9,397.5 439.1,406.7 429.9,415.9 420.7,406.7" fill="#f472b6" stroke="#fff" stroke-width="1.5" opacity="0.92"/>
<text x="632.5" y="308.9" text-anchor="end" dominant-baseline="central" fill="#38bdf8" font-size="11" font-weight="700" font-family="Noto Sans TC,system-ui,sans-serif" stroke="#0b1220" stroke-width="3" paint-order="stroke">後龍·即</text>
<text x="683.4" y="320.8" text-anchor="start" dominant-baseline="central" fill="#2dd4bf" font-size="11" font-weight="700" font-family="Noto Sans TC,system-ui,sans-serif" stroke="#0b1220" stroke-width="3" paint-order="stroke">假森·即</text>
<text x="797.6" y="189.0" text-anchor="end" dominant-baseline="central" fill="#fbbf24" font-size="11" font-weight="700" font-family="Noto Sans TC,system-ui,sans-serif" stroke="#0b1220" stroke-width="3" paint-order="stroke">松柏·即</text>
<text x="468.7" y="248.3" text-anchor="start" dominant-baseline="central" fill="#86efac" font-size="11" font-weight="700" font-family="Noto Sans TC,system-ui,sans-serif" stroke="#0b1220" stroke-width="3" paint-order="stroke">富貴·即</text>
<text x="433.9" y="314.8" text-anchor="start" dominant-baseline="central" fill="#a78bfa" font-size="11" font-weight="700" font-family="Noto Sans TC,system-ui,sans-serif" stroke="#0b1220" stroke-width="3" paint-order="stroke">無尾·即</text>
<text x="415.9" y="418.7" text-anchor="end" dominant-baseline="central" fill="#f472b6" font-size="11" font-weight="700" font-family="Noto Sans TC,system-ui,sans-serif" stroke="#0b1220" stroke-width="3" paint-order="stroke">烏石·即</text>
</g>
<circle cx="90" cy="568" r="7" fill="#94a3b8" stroke="#fff"/>
<text x="106" y="572" fill="#e2e8f0" font-size="11" font-family="Noto Sans TC,system-ui,sans-serif">預報</text>
<polygon points="160,561 167,568 160,575 153,568" fill="#94a3b8" stroke="#fff"/>
<text x="176" y="572" fill="#e2e8f0" font-size="11" font-family="Noto Sans TC,system-ui,sans-serif">即時</text>
<line x1="230" y1="568" x2="255" y2="568" stroke="#38bdf8" stroke-width="2.2"/>
<text x="262" y="572" fill="#e2e8f0" font-size="11" font-family="Noto Sans TC,system-ui,sans-serif">風向去向</text>
<line x1="340" y1="568" x2="365" y2="568" stroke="#fbbf24" stroke-width="2.2"/>
<text x="372" y="572" fill="#e2e8f0" font-size="11" font-family="Noto Sans TC,system-ui,sans-serif">浪向去向</text>
<text id="wws-foot" x="490" y="582" text-anchor="middle" fill="#64748b" font-size="10" font-family="Noto Sans TC,system-ui,sans-serif">預報 10/6 15:00 台北｜即時約 2026-10-06 15:17｜北海岸三點即時共用富貴角（只顯示一點）｜後龍／假日之森共用新竹略偏移｜綠&lt;8kt／黃8–14／紅≥15</text>
</svg>